STARTFONT 2.1
FONT -misc-tadepe-bold-r-normal--16-160-75-75-C-80-ISO10646-1
SIZE 16 75 75
FONTBOUNDINGBOX 8 16 0 -3
STARTPROPERTIES 20
FONTNAME_REGISTRY ""
FOUNDRY "misc"
FAMILY_NAME "Tadepe"
WEIGHT_NAME "Bold"
SLANT "R"
SETWIDTH_NAME "Normal"
ADD_STYLE_NAME ""
PIXEL_SIZE 16
POINT_SIZE 160
RESOLUTION_X 75
RESOLUTION_Y 75
SPACING "C"
AVERAGE_WIDTH 80
CHARSET_REGISTRY "ISO10646"
CHARSET_ENCODING "1"
DEFAULT_CHAR 0
FONT_DESCENT 3
FONT_ASCENT 13
COPYRIGHT "Copyright (C) 2022-2023 Lucas de Sena"
_GBDFED_INFO "Edited with gbdfed 1.6."
ENDPROPERTIES
CHARS 1118
STARTCHAR U+0020
ENCODING 32
SWIDTH 500 0
DWIDTH 8 0
BBX 8 16 0 -3
BITMAP
00
00
00
00
00
00
00
00
00
00
00
00
00
00
00
00
ENDCHAR
STARTCHAR U+0021
ENCODING 33
SWIDTH 500 0
DWIDTH 8 0
BBX 8 16 0 -3
BITMAP
00
00
00
18
18
18
18
18
18
18
00
18
18
00
00
00
ENDCHAR
STARTCHAR U+0022
ENCODING 34
SWIDTH 500 0
DWIDTH 8 0
BBX 8 16 0 -3
BITMAP
00
00
66
66
66
66
00
00
00
00
00
00
00
00
00
00
ENDCHAR
STARTCHAR U+0023
ENCODING 35
SWIDTH 500 0
DWIDTH 8 0
BBX 8 16 0 -3
BITMAP
00
00
00
6C
6C
FE
6C
6C
6C
6C
FE
6C
6C
00
00
00
ENDCHAR
STARTCHAR U+0024
ENCODING 36
SWIDTH 500 0
DWIDTH 8 0
BBX 8 16 0 -3
BITMAP
00
00
10
7C
D2
D0
D0
7C
16
16
16
96
7C
10
00
00
ENDCHAR
STARTCHAR U+0025
ENCODING 37
SWIDTH 500 0
DWIDTH 8 0
BBX 8 16 0 -3
BITMAP
00
00
00
06
66
6C
0C
18
18
30
36
66
60
00
00
00
ENDCHAR
STARTCHAR U+0026
ENCODING 38
SWIDTH 500 0
DWIDTH 8 0
BBX 8 16 0 -3
BITMAP
00
00
00
38
6C
6C
6C
38
70
DA
CC
CC
7A
00
00
00
ENDCHAR
STARTCHAR U+0027
ENCODING 39
SWIDTH 500 0
DWIDTH 8 0
BBX 8 16 0 -3
BITMAP
00
00
00
00
18
18
18
18
00
00
00
00
00
00
00
00
ENDCHAR
STARTCHAR U+0028
ENCODING 40
SWIDTH 500 0
DWIDTH 8 0
BBX 8 16 0 -3
BITMAP
00
00
0E
18
30
30
60
60
60
60
30
30
18
0E
00
00
ENDCHAR
STARTCHAR U+0029
ENCODING 41
SWIDTH 500 0
DWIDTH 8 0
BBX 8 16 0 -3
BITMAP
00
00
70
18
0C
0C
06
06
06
06
0C
0C
18
70
00
00
ENDCHAR
STARTCHAR U+002A
ENCODING 42
SWIDTH 500 0
DWIDTH 8 0
BBX 8 16 0 -3
BITMAP
00
00
00
00
00
10
D6
7C
38
7C
D6
10
00
00
00
00
ENDCHAR
STARTCHAR U+002B
ENCODING 43
SWIDTH 500 0
DWIDTH 8 0
BBX 8 16 0 -3
BITMAP
00
00
00
00
00
00
00
18
18
7E
18
18
00
00
00
00
ENDCHAR
STARTCHAR U+002C
ENCODING 44
SWIDTH 500 0
DWIDTH 8 0
BBX 8 16 0 -3
BITMAP
00
00
00
00
00
00
00
00
00
00
00
18
18
10
20
00
ENDCHAR
STARTCHAR U+002D
ENCODING 45
SWIDTH 500 0
DWIDTH 8 0
BBX 8 16 0 -3
BITMAP
00
00
00
00
00
00
00
00
00
7E
00
00
00
00
00
00
ENDCHAR
STARTCHAR U+002E
ENCODING 46
SWIDTH 500 0
DWIDTH 8 0
BBX 8 16 0 -3
BITMAP
00
00
00
00
00
00
00
00
00
00
00
18
18
00
00
00
ENDCHAR
STARTCHAR U+002F
ENCODING 47
SWIDTH 500 0
DWIDTH 8 0
BBX 8 16 0 -3
BITMAP
00
00
06
06
0C
0C
18
18
30
30
60
60
C0
C0
00
00
ENDCHAR
STARTCHAR U+0030
ENCODING 48
SWIDTH 500 0
DWIDTH 8 0
BBX 8 16 0 -3
BITMAP
00
00
00
7C
C6
CE
CE
D6
D6
E6
E6
C6
7C
00
00
00
ENDCHAR
STARTCHAR U+0031
ENCODING 49
SWIDTH 500 0
DWIDTH 8 0
BBX 8 16 0 -3
BITMAP
00
00
00
18
38
78
18
18
18
18
18
18
7E
00
00
00
ENDCHAR
STARTCHAR U+0032
ENCODING 50
SWIDTH 500 0
DWIDTH 8 0
BBX 8 16 0 -3
BITMAP
00
00
00
7C
C6
06
06
0C
18
30
60
C6
FE
00
00
00
ENDCHAR
STARTCHAR U+0033
ENCODING 51
SWIDTH 500 0
DWIDTH 8 0
BBX 8 16 0 -3
BITMAP
00
00
00
FE
0C
18
30
7C
06
06
06
C6
7C
00
00
00
ENDCHAR
STARTCHAR U+0034
ENCODING 52
SWIDTH 500 0
DWIDTH 8 0
BBX 8 16 0 -3
BITMAP
00
00
00
C0
C0
CC
CC
CC
CC
FE
0C
0C
0C
00
00
00
ENDCHAR
STARTCHAR U+0035
ENCODING 53
SWIDTH 500 0
DWIDTH 8 0
BBX 8 16 0 -3
BITMAP
00
00
00
FC
CC
C0
C0
FC
06
06
06
C6
7C
00
00
00
ENDCHAR
STARTCHAR U+0036
ENCODING 54
SWIDTH 500 0
DWIDTH 8 0
BBX 8 16 0 -3
BITMAP
00
00
00
3C
60
C0
C0
DC
E6
C6
C6
C6
7C
00
00
00
ENDCHAR
STARTCHAR U+0037
ENCODING 55
SWIDTH 500 0
DWIDTH 8 0
BBX 8 16 0 -3
BITMAP
00
00
00
FE
C6
0C
0C
18
18
30
30
60
60
00
00
00
ENDCHAR
STARTCHAR U+0038
ENCODING 56
SWIDTH 500 0
DWIDTH 8 0
BBX 8 16 0 -3
BITMAP
00
00
00
7C
C6
C6
F6
7C
DE
C6
C6
C6
7C
00
00
00
ENDCHAR
STARTCHAR U+0039
ENCODING 57
SWIDTH 500 0
DWIDTH 8 0
BBX 8 16 0 -3
BITMAP
00
00
00
7C
C6
C6
C6
CE
76
06
06
0C
78
00
00
00
ENDCHAR
STARTCHAR U+003A
ENCODING 58
SWIDTH 500 0
DWIDTH 8 0
BBX 8 16 0 -3
BITMAP
00
00
00
00
00
00
18
18
00
00
00
18
18
00
00
00
ENDCHAR
STARTCHAR U+003B
ENCODING 59
SWIDTH 500 0
DWIDTH 8 0
BBX 8 16 0 -3
BITMAP
00
00
00
00
00
00
18
18
00
00
00
18
18
10
20
00
ENDCHAR
STARTCHAR U+003C
ENCODING 60
SWIDTH 500 0
DWIDTH 8 0
BBX 8 16 0 -3
BITMAP
00
00
00
00
00
00
06
1E
78
E0
78
1E
06
00
00
00
ENDCHAR
STARTCHAR U+003D
ENCODING 61
SWIDTH 500 0
DWIDTH 8 0
BBX 8 16 0 -3
BITMAP
00
00
00
00
00
00
00
FE
00
00
FE
00
00
00
00
00
ENDCHAR
STARTCHAR U+003E
ENCODING 62
SWIDTH 500 0
DWIDTH 8 0
BBX 8 16 0 -3
BITMAP
00
00
00
00
00
00
60
78
1E
07
1E
78
60
00
00
00
ENDCHAR
STARTCHAR U+003F
ENCODING 63
SWIDTH 500 0
DWIDTH 8 0
BBX 8 16 0 -3
BITMAP
00
00
00
7C
C6
06
0C
18
30
30
00
30
30
00
00
00
ENDCHAR
STARTCHAR U+0040
ENCODING 64
SWIDTH 500 0
DWIDTH 8 0
BBX 8 16 0 -3
BITMAP
00
00
00
7C
C2
C2
CE
DA
DA
DA
DC
C0
C6
7C
00
00
ENDCHAR
STARTCHAR U+0041
ENCODING 65
SWIDTH 500 0
DWIDTH 8 0
BBX 8 16 0 -3
BITMAP
00
00
00
38
38
38
6C
6C
7C
6C
C6
C6
C6
00
00
00
ENDCHAR
STARTCHAR U+0042
ENCODING 66
SWIDTH 500 0
DWIDTH 8 0
BBX 8 16 0 -3
BITMAP
00
00
00
FC
C6
C6
C6
FC
C6
C6
C6
C6
FC
00
00
00
ENDCHAR
STARTCHAR U+0043
ENCODING 67
SWIDTH 500 0
DWIDTH 8 0
BBX 8 16 0 -3
BITMAP
00
00
00
7C
C6
C0
C0
C0
C0
C0
C0
C6
7C
00
00
00
ENDCHAR
STARTCHAR U+0044
ENCODING 68
SWIDTH 500 0
DWIDTH 8 0
BBX 8 16 0 -3
BITMAP
00
00
00
F8
CC
C6
C6
C6
C6
C6
C6
CC
F8
00
00
00
ENDCHAR
STARTCHAR U+0045
ENCODING 69
SWIDTH 500 0
DWIDTH 8 0
BBX 8 16 0 -3
BITMAP
00
00
00
FE
C0
C0
C0
FC
C0
C0
C0
C0
FE
00
00
00
ENDCHAR
STARTCHAR U+0046
ENCODING 70
SWIDTH 500 0
DWIDTH 8 0
BBX 8 16 0 -3
BITMAP
00
00
00
FE
C0
C0
C0
FC
C0
C0
C0
C0
C0
00
00
00
ENDCHAR
STARTCHAR U+0047
ENCODING 71
SWIDTH 500 0
DWIDTH 8 0
BBX 8 16 0 -3
BITMAP
00
00
00
7C
C6
C0
C0
C0
CE
C6
C6
C6
7C
00
00
00
ENDCHAR
STARTCHAR U+0048
ENCODING 72
SWIDTH 500 0
DWIDTH 8 0
BBX 8 16 0 -3
BITMAP
00
00
00
C6
C6
C6
C6
FE
C6
C6
C6
C6
C6
00
00
00
ENDCHAR
STARTCHAR U+0049
ENCODING 73
SWIDTH 500 0
DWIDTH 8 0
BBX 8 16 0 -3
BITMAP
00
00
00
7E
18
18
18
18
18
18
18
18
7E
00
00
00
ENDCHAR
STARTCHAR U+004A
ENCODING 74
SWIDTH 500 0
DWIDTH 8 0
BBX 8 16 0 -3
BITMAP
00
00
00
1E
0C
0C
0C
0C
0C
0C
0C
CC
78
00
00
00
ENDCHAR
STARTCHAR U+004B
ENCODING 75
SWIDTH 500 0
DWIDTH 8 0
BBX 8 16 0 -3
BITMAP
00
00
00
C6
CC
CC
D8
F8
D8
CC
CC
C6
C6
00
00
00
ENDCHAR
STARTCHAR U+004C
ENCODING 76
SWIDTH 500 0
DWIDTH 8 0
BBX 8 16 0 -3
BITMAP
00
00
00
C0
C0
C0
C0
C0
C0
C0
C0
C0
FE
00
00
00
ENDCHAR
STARTCHAR U+004D
ENCODING 77
SWIDTH 500 0
DWIDTH 8 0
BBX 8 16 0 -3
BITMAP
00
00
00
C6
EE
EE
FE
D6
D6
C6
C6
C6
C6
00
00
00
ENDCHAR
STARTCHAR U+004E
ENCODING 78
SWIDTH 500 0
DWIDTH 8 0
BBX 8 16 0 -3
BITMAP
00
00
00
C6
E6
E6
F6
F6
DE
DE
CE
CE
C6
00
00
00
ENDCHAR
STARTCHAR U+004F
ENCODING 79
SWIDTH 500 0
DWIDTH 8 0
BBX 8 16 0 -3
BITMAP
00
00
00
7C
C6
C6
C6
C6
C6
C6
C6
C6
7C
00
00
00
ENDCHAR
STARTCHAR U+0050
ENCODING 80
SWIDTH 500 0
DWIDTH 8 0
BBX 8 16 0 -3
BITMAP
00
00
00
FC
C6
C6
C6
FC
C0
C0
C0
C0
C0
00
00
00
ENDCHAR
STARTCHAR U+0051
ENCODING 81
SWIDTH 500 0
DWIDTH 8 0
BBX 8 16 0 -3
BITMAP
00
00
00
7C
C6
C6
C6
C6
C6
D6
EE
C4
7A
00
00
00
ENDCHAR
STARTCHAR U+0052
ENCODING 82
SWIDTH 500 0
DWIDTH 8 0
BBX 8 16 0 -3
BITMAP
00
00
00
FC
C6
C6
C6
FC
CC
CC
C6
C6
C6
00
00
00
ENDCHAR
STARTCHAR U+0053
ENCODING 83
SWIDTH 500 0
DWIDTH 8 0
BBX 8 16 0 -3
BITMAP
00
00
00
7C
C6
C0
C0
70
1C
06
06
C6
7C
00
00
00
ENDCHAR
STARTCHAR U+0054
ENCODING 84
SWIDTH 500 0
DWIDTH 8 0
BBX 8 16 0 -3
BITMAP
00
00
00
7E
18
18
18
18
18
18
18
18
18
00
00
00
ENDCHAR
STARTCHAR U+0055
ENCODING 85
SWIDTH 500 0
DWIDTH 8 0
BBX 8 16 0 -3
BITMAP
00
00
00
C6
C6
C6
C6
C6
C6
C6
C6
C6
7C
00
00
00
ENDCHAR
STARTCHAR U+0056
ENCODING 86
SWIDTH 500 0
DWIDTH 8 0
BBX 8 16 0 -3
BITMAP
00
00
00
C6
C6
C6
C6
6C
6C
6C
38
38
38
00
00
00
ENDCHAR
STARTCHAR U+0057
ENCODING 87
SWIDTH 500 0
DWIDTH 8 0
BBX 8 16 0 -3
BITMAP
00
00
00
C6
C6
C6
C6
D6
D6
FE
FE
EE
6C
00
00
00
ENDCHAR
STARTCHAR U+0058
ENCODING 88
SWIDTH 500 0
DWIDTH 8 0
BBX 8 16 0 -3
BITMAP
00
00
00
C6
C6
6C
6C
38
38
6C
6C
C6
C6
00
00
00
ENDCHAR
STARTCHAR U+0059
ENCODING 89
SWIDTH 500 0
DWIDTH 8 0
BBX 8 16 0 -3
BITMAP
00
00
00
C6
C6
6C
6C
38
38
30
30
60
60
00
00
00
ENDCHAR
STARTCHAR U+005A
ENCODING 90
SWIDTH 500 0
DWIDTH 8 0
BBX 8 16 0 -3
BITMAP
00
00
00
FE
06
06
0C
18
30
60
C0
C0
FE
00
00
00
ENDCHAR
STARTCHAR U+005B
ENCODING 91
SWIDTH 500 0
DWIDTH 8 0
BBX 8 16 0 -3
BITMAP
00
00
3E
30
30
30
30
30
30
30
30
30
30
3E
00
00
ENDCHAR
STARTCHAR U+005C
ENCODING 92
SWIDTH 500 0
DWIDTH 8 0
BBX 8 16 0 -3
BITMAP
00
00
C0
C0
60
60
30
30
18
18
0C
0C
06
06
00
00
ENDCHAR
STARTCHAR U+005D
ENCODING 93
SWIDTH 500 0
DWIDTH 8 0
BBX 8 16 0 -3
BITMAP
00
00
7C
0C
0C
0C
0C
0C
0C
0C
0C
0C
0C
7C
00
00
ENDCHAR
STARTCHAR U+005E
ENCODING 94
SWIDTH 500 0
DWIDTH 8 0
BBX 8 16 0 -3
BITMAP
00
00
00
00
00
00
10
38
7C
EE
C6
00
00
00
00
00
ENDCHAR
STARTCHAR U+005F
ENCODING 95
SWIDTH 500 0
DWIDTH 8 0
BBX 8 16 0 -3
BITMAP
00
00
00
00
00
00
00
00
00
00
00
00
00
7E
00
00
ENDCHAR
STARTCHAR U+0060
ENCODING 96
SWIDTH 500 0
DWIDTH 8 0
BBX 8 16 0 -3
BITMAP
00
00
30
18
0C
00
00
00
00
00
00
00
00
00
00
00
ENDCHAR
STARTCHAR U+0061
ENCODING 97
SWIDTH 500 0
DWIDTH 8 0
BBX 8 16 0 -3
BITMAP
00
00
00
00
00
00
7C
06
06
7E
C6
CE
76
00
00
00
ENDCHAR
STARTCHAR U+0062
ENCODING 98
SWIDTH 500 0
DWIDTH 8 0
BBX 8 16 0 -3
BITMAP
00
00
00
00
00
00
D8
EC
CC
F8
C6
C6
FC
00
00
00
ENDCHAR
STARTCHAR U+0063
ENCODING 99
SWIDTH 500 0
DWIDTH 8 0
BBX 8 16 0 -3
BITMAP
00
00
00
00
00
00
7C
C6
C0
C0
C0
C6
7C
00
00
00
ENDCHAR
STARTCHAR U+0064
ENCODING 100
SWIDTH 500 0
DWIDTH 8 0
BBX 8 16 0 -3
BITMAP
00
00
00
00
00
00
F8
CC
C6
C6
C6
CC
F8
00
00
00
ENDCHAR
STARTCHAR U+0065
ENCODING 101
SWIDTH 500 0
DWIDTH 8 0
BBX 8 16 0 -3
BITMAP
00
00
00
00
00
00
7C
C6
C6
FE
C0
C6
7C
00
00
00
ENDCHAR
STARTCHAR U+0066
ENCODING 102
SWIDTH 500 0
DWIDTH 8 0
BBX 8 16 0 -3
BITMAP
00
00
00
00
00
00
3C
36
30
30
30
FC
30
30
30
30
ENDCHAR
STARTCHAR U+0067
ENCODING 103
SWIDTH 500 0
DWIDTH 8 0
BBX 8 16 0 -3
BITMAP
00
00
00
00
00
00
76
CE
C6
C6
C6
CE
76
06
C6
7C
ENDCHAR
STARTCHAR U+0068
ENCODING 104
SWIDTH 500 0
DWIDTH 8 0
BBX 8 16 0 -3
BITMAP
00
00
00
00
00
00
C6
C6
C6
FE
C6
C6
C6
00
00
00
ENDCHAR
STARTCHAR U+0069
ENCODING 105
SWIDTH 500 0
DWIDTH 8 0
BBX 8 16 0 -3
BITMAP
00
00
00
00
00
00
38
78
18
18
18
1E
1C
00
00
00
ENDCHAR
STARTCHAR U+006A
ENCODING 106
SWIDTH 500 0
DWIDTH 8 0
BBX 8 16 0 -3
BITMAP
00
00
00
00
00
00
0E
1E
06
06
06
06
06
06
66
3C
ENDCHAR
STARTCHAR U+006B
ENCODING 107
SWIDTH 500 0
DWIDTH 8 0
BBX 8 16 0 -3
BITMAP
00
00
00
00
00
00
C6
CC
D8
F0
D8
CC
C6
00
00
00
ENDCHAR
STARTCHAR U+006C
ENCODING 108
SWIDTH 500 0
DWIDTH 8 0
BBX 8 16 0 -3
BITMAP
00
00
00
00
00
00
60
60
60
60
60
60
7E
00
00
00
ENDCHAR
STARTCHAR U+006D
ENCODING 109
SWIDTH 500 0
DWIDTH 8 0
BBX 8 16 0 -3
BITMAP
00
00
00
00
00
00
EC
FE
D6
D6
D6
D6
D6
00
00
00
ENDCHAR
STARTCHAR U+006E
ENCODING 110
SWIDTH 500 0
DWIDTH 8 0
BBX 8 16 0 -3
BITMAP
00
00
00
00
00
00
DC
E6
C6
C6
C6
C6
C6
00
00
00
ENDCHAR
STARTCHAR U+006F
ENCODING 111
SWIDTH 500 0
DWIDTH 8 0
BBX 8 16 0 -3
BITMAP
00
00
00
00
00
00
7C
C6
C6
C6
C6
C6
7C
00
00
00
ENDCHAR
STARTCHAR U+0070
ENCODING 112
SWIDTH 500 0
DWIDTH 8 0
BBX 8 16 0 -3
BITMAP
00
00
00
00
00
00
DC
E6
C6
C6
C6
E6
DC
C0
C0
C0
ENDCHAR
STARTCHAR U+0071
ENCODING 113
SWIDTH 500 0
DWIDTH 8 0
BBX 8 16 0 -3
BITMAP
00
00
00
00
00
00
76
CE
C6
C6
C6
CE
76
06
06
06
ENDCHAR
STARTCHAR U+0072
ENCODING 114
SWIDTH 500 0
DWIDTH 8 0
BBX 8 16 0 -3
BITMAP
00
00
00
00
00
00
DC
E6
C0
C0
C0
C0
C0
00
00
00
ENDCHAR
STARTCHAR U+0073
ENCODING 115
SWIDTH 500 0
DWIDTH 8 0
BBX 8 16 0 -3
BITMAP
00
00
00
00
00
00
7C
C6
C0
7C
06
C6
7C
00
00
00
ENDCHAR
STARTCHAR U+0074
ENCODING 116
SWIDTH 500 0
DWIDTH 8 0
BBX 8 16 0 -3
BITMAP
00
00
00
00
00
00
FE
30
30
30
30
30
1C
00
00
00
ENDCHAR
STARTCHAR U+0075
ENCODING 117
SWIDTH 500 0
DWIDTH 8 0
BBX 8 16 0 -3
BITMAP
00
00
00
00
00
00
C6
C6
C6
C6
C6
CE
76
00
00
00
ENDCHAR
STARTCHAR U+0076
ENCODING 118
SWIDTH 500 0
DWIDTH 8 0
BBX 8 16 0 -3
BITMAP
00
00
00
00
00
00
C6
C6
6C
6C
6C
38
38
00
00
00
ENDCHAR
STARTCHAR U+0077
ENCODING 119
SWIDTH 500 0
DWIDTH 8 0
BBX 8 16 0 -3
BITMAP
00
00
00
00
00
00
C6
C6
C6
D6
D6
FE
6C
00
00
00
ENDCHAR
STARTCHAR U+0078
ENCODING 120
SWIDTH 500 0
DWIDTH 8 0
BBX 8 16 0 -3
BITMAP
00
00
00
00
00
00
C6
C6
6C
38
6C
C6
C6
00
00
00
ENDCHAR
STARTCHAR U+0079
ENCODING 121
SWIDTH 500 0
DWIDTH 8 0
BBX 8 16 0 -3
BITMAP
00
00
00
00
00
00
C6
C6
6C
6C
6C
38
38
30
60
60
ENDCHAR
STARTCHAR U+007A
ENCODING 122
SWIDTH 500 0
DWIDTH 8 0
BBX 8 16 0 -3
BITMAP
00
00
00
00
00
00
FE
0C
18
30
60
C0
FE
00
00
00
ENDCHAR
STARTCHAR U+007B
ENCODING 123
SWIDTH 500 0
DWIDTH 8 0
BBX 8 16 0 -3
BITMAP
00
00
0E
18
18
18
18
70
70
18
18
18
18
0E
00
00
ENDCHAR
STARTCHAR U+007C
ENCODING 124
SWIDTH 500 0
DWIDTH 8 0
BBX 8 16 0 -3
BITMAP
00
00
18
18
18
18
18
18
18
18
18
18
18
18
00
00
ENDCHAR
STARTCHAR U+007D
ENCODING 125
SWIDTH 500 0
DWIDTH 8 0
BBX 8 16 0 -3
BITMAP
00
00
70
18
18
18
18
0E
0E
18
18
18
18
70
00
00
ENDCHAR
STARTCHAR U+007E
ENCODING 126
SWIDTH 500 0
DWIDTH 8 0
BBX 8 16 0 -3
BITMAP
00
00
00
00
00
00
00
60
F2
9E
0C
00
00
00
00
00
ENDCHAR
STARTCHAR U+00A1
ENCODING 161
SWIDTH 500 0
DWIDTH 8 0
BBX 8 16 0 -3
BITMAP
00
00
00
18
18
00
18
18
18
18
18
18
18
00
00
00
ENDCHAR
STARTCHAR U+00A2
ENCODING 162
SWIDTH 500 0
DWIDTH 8 0
BBX 8 16 0 -3
BITMAP
00
00
00
00
00
10
7C
D6
D0
D0
D0
D6
7C
10
00
00
ENDCHAR
STARTCHAR U+00A3
ENCODING 163
SWIDTH 500 0
DWIDTH 8 0
BBX 8 16 0 -3
BITMAP
00
00
00
3C
66
60
60
60
F0
60
60
66
FC
00
00
00
ENDCHAR
STARTCHAR U+00A4
ENCODING 164
SWIDTH 500 0
DWIDTH 8 0
BBX 8 16 0 -3
BITMAP
00
00
00
00
00
5A
3C
66
66
3C
5A
00
00
00
00
00
ENDCHAR
STARTCHAR U+00A5
ENCODING 165
SWIDTH 500 0
DWIDTH 8 0
BBX 8 16 0 -3
BITMAP
00
00
00
66
66
3C
3C
18
7E
18
7E
18
18
00
00
00
ENDCHAR
STARTCHAR U+00A6
ENCODING 166
SWIDTH 500 0
DWIDTH 8 0
BBX 8 16 0 -3
BITMAP
00
00
00
18
18
18
18
00
00
18
18
18
18
00
00
00
ENDCHAR
STARTCHAR U+00A7
ENCODING 167
SWIDTH 500 0
DWIDTH 8 0
BBX 8 16 0 -3
BITMAP
00
00
7C
C6
C0
C0
70
DC
C6
76
1C
06
06
C6
7C
00
ENDCHAR
STARTCHAR U+00A8
ENCODING 168
SWIDTH 500 0
DWIDTH 8 0
BBX 8 16 0 -3
BITMAP
00
00
00
6C
6C
00
00
00
00
00
00
00
00
00
00
00
ENDCHAR
STARTCHAR U+00A9
ENCODING 169
SWIDTH 500 0
DWIDTH 8 0
BBX 8 16 0 -3
BITMAP
00
00
00
00
3C
42
99
A1
A1
99
42
3C
00
00
00
00
ENDCHAR
STARTCHAR U+00AA
ENCODING 170
SWIDTH 500 0
DWIDTH 8 0
BBX 8 16 0 -3
BITMAP
00
00
38
0C
3C
4C
3C
00
7C
00
00
00
00
00
00
00
ENDCHAR
STARTCHAR U+00AB
ENCODING 171
SWIDTH 500 0
DWIDTH 8 0
BBX 8 16 0 -3
BITMAP
00
00
00
00
00
00
1B
36
6C
D8
6C
36
1B
00
00
00
ENDCHAR
STARTCHAR U+00AC
ENCODING 172
SWIDTH 500 0
DWIDTH 8 0
BBX 8 16 0 -3
BITMAP
00
00
00
00
00
00
00
00
00
FE
06
06
00
00
00
00
ENDCHAR
STARTCHAR U+00AD
ENCODING 173
SWIDTH 500 0
DWIDTH 8 0
BBX 8 16 0 -3
BITMAP
00
00
00
00
00
00
00
00
00
7E
00
00
00
00
00
00
ENDCHAR
STARTCHAR U+00AE
ENCODING 174
SWIDTH 500 0
DWIDTH 8 0
BBX 8 16 0 -3
BITMAP
00
00
00
00
3C
42
B9
A5
B9
A5
42
3C
00
00
00
00
ENDCHAR
STARTCHAR U+00AF
ENCODING 175
SWIDTH 500 0
DWIDTH 8 0
BBX 8 16 0 -3
BITMAP
00
00
00
7E
00
00
00
00
00
00
00
00
00
00
00
00
ENDCHAR
STARTCHAR U+00B0
ENCODING 176
SWIDTH 500 0
DWIDTH 8 0
BBX 8 16 0 -3
BITMAP
00
00
00
38
6C
6C
6C
38
00
00
00
00
00
00
00
00
ENDCHAR
STARTCHAR U+00B1
ENCODING 177
SWIDTH 500 0
DWIDTH 8 0
BBX 8 16 0 -3
BITMAP
00
00
00
00
00
00
18
18
7E
18
18
00
7E
00
00
00
ENDCHAR
STARTCHAR U+00B2
ENCODING 178
SWIDTH 500 0
DWIDTH 8 0
BBX 8 16 0 -3
BITMAP
00
00
38
6C
0C
38
60
7C
00
00
00
00
00
00
00
00
ENDCHAR
STARTCHAR U+00B3
ENCODING 179
SWIDTH 500 0
DWIDTH 8 0
BBX 8 16 0 -3
BITMAP
00
00
7C
18
38
0C
4C
38
00
00
00
00
00
00
00
00
ENDCHAR
STARTCHAR U+00B4
ENCODING 180
SWIDTH 500 0
DWIDTH 8 0
BBX 8 16 0 -3
BITMAP
00
00
0C
18
30
00
00
00
00
00
00
00
00
00
00
00
ENDCHAR
STARTCHAR U+00B5
ENCODING 181
SWIDTH 500 0
DWIDTH 8 0
BBX 8 16 0 -3
BITMAP
00
00
00
00
00
00
CC
CC
CC
CC
CC
EC
D6
C0
C0
00
ENDCHAR
STARTCHAR U+00B6
ENCODING 182
SWIDTH 500 0
DWIDTH 8 0
BBX 8 16 0 -3
BITMAP
00
00
7E
F6
F6
F6
76
16
16
16
16
16
16
16
00
00
ENDCHAR
STARTCHAR U+00B7
ENCODING 183
SWIDTH 500 0
DWIDTH 8 0
BBX 8 16 0 -3
BITMAP
00
00
00
00
00
00
00
00
00
18
18
00
00
00
00
00
ENDCHAR
STARTCHAR U+00B8
ENCODING 184
SWIDTH 500 0
DWIDTH 8 0
BBX 8 16 0 -3
BITMAP
00
00
00
00
00
00
00
00
00
00
00
00
00
18
18
30
ENDCHAR
STARTCHAR U+00B9
ENCODING 185
SWIDTH 500 0
DWIDTH 8 0
BBX 8 16 0 -3
BITMAP
00
00
18
38
18
18
18
3C
00
00
00
00
00
00
00
00
ENDCHAR
STARTCHAR U+00BA
ENCODING 186
SWIDTH 500 0
DWIDTH 8 0
BBX 8 16 0 -3
BITMAP
00
00
00
38
6C
6C
38
00
7C
00
00
00
00
00
00
00
ENDCHAR
STARTCHAR U+00BB
ENCODING 187
SWIDTH 500 0
DWIDTH 8 0
BBX 8 16 0 -3
BITMAP
00
00
00
00
00
00
D8
6C
36
1B
36
6C
D8
00
00
00
ENDCHAR
STARTCHAR U+00BC
ENCODING 188
SWIDTH 500 0
DWIDTH 8 0
BBX 8 16 0 -3
BITMAP
00
00
00
40
C1
43
46
4C
18
30
62
C6
8A
0F
02
00
ENDCHAR
STARTCHAR U+00BD
ENCODING 189
SWIDTH 500 0
DWIDTH 8 0
BBX 8 16 0 -3
BITMAP
00
00
00
40
C1
43
46
4C
18
30
62
C5
81
02
07
00
ENDCHAR
STARTCHAR U+00BE
ENCODING 190
SWIDTH 500 0
DWIDTH 8 0
BBX 8 16 0 -3
BITMAP
00
00
00
C0
21
43
26
CC
18
30
62
C6
8A
0F
02
00
ENDCHAR
STARTCHAR U+00BF
ENCODING 191
SWIDTH 500 0
DWIDTH 8 0
BBX 8 16 0 -3
BITMAP
00
00
00
18
18
00
18
18
30
60
C0
C6
7C
00
00
00
ENDCHAR
STARTCHAR U+00C0
ENCODING 192
SWIDTH 500 0
DWIDTH 8 0
BBX 8 16 0 -3
BITMAP
30
18
00
38
38
38
6C
6C
7C
6C
C6
C6
C6
00
00
00
ENDCHAR
STARTCHAR U+00C1
ENCODING 193
SWIDTH 500 0
DWIDTH 8 0
BBX 8 16 0 -3
BITMAP
18
30
00
38
38
38
6C
6C
7C
6C
C6
C6
C6
00
00
00
ENDCHAR
STARTCHAR U+00C2
ENCODING 194
SWIDTH 500 0
DWIDTH 8 0
BBX 8 16 0 -3
BITMAP
38
6C
00
38
38
38
6C
6C
7C
6C
C6
C6
C6
00
00
00
ENDCHAR
STARTCHAR U+00C3
ENCODING 195
SWIDTH 500 0
DWIDTH 8 0
BBX 8 16 0 -3
BITMAP
76
DC
00
38
38
38
6C
6C
7C
6C
C6
C6
C6
00
00
00
ENDCHAR
STARTCHAR U+00C4
ENCODING 196
SWIDTH 500 0
DWIDTH 8 0
BBX 8 16 0 -3
BITMAP
6C
6C
00
38
38
38
6C
6C
7C
6C
C6
C6
C6
00
00
00
ENDCHAR
STARTCHAR U+00C5
ENCODING 197
SWIDTH 500 0
DWIDTH 8 0
BBX 8 16 0 -3
BITMAP
38
6C
6C
38
38
38
6C
6C
7C
6C
C6
C6
C6
00
00
00
ENDCHAR
STARTCHAR U+00C6
ENCODING 198
SWIDTH 500 0
DWIDTH 8 0
BBX 8 16 0 -3
BITMAP
00
00
00
3F
3C
3C
6C
6F
7C
6C
CC
CC
CF
00
00
00
ENDCHAR
STARTCHAR U+00C7
ENCODING 199
SWIDTH 500 0
DWIDTH 8 0
BBX 8 16 0 -3
BITMAP
00
00
00
7C
C6
C0
C0
C0
C0
C0
C0
C6
7C
18
18
30
ENDCHAR
STARTCHAR U+00C8
ENCODING 200
SWIDTH 500 0
DWIDTH 8 0
BBX 8 16 0 -3
BITMAP
30
18
00
FE
C0
C0
C0
FC
C0
C0
C0
C0
FE
00
00
00
ENDCHAR
STARTCHAR U+00C9
ENCODING 201
SWIDTH 500 0
DWIDTH 8 0
BBX 8 16 0 -3
BITMAP
18
30
00
FE
C0
C0
C0
FC
C0
C0
C0
C0
FE
00
00
00
ENDCHAR
STARTCHAR U+00CA
ENCODING 202
SWIDTH 500 0
DWIDTH 8 0
BBX 8 16 0 -3
BITMAP
38
6C
00
FE
C0
C0
C0
FC
C0
C0
C0
C0
FE
00
00
00
ENDCHAR
STARTCHAR U+00CB
ENCODING 203
SWIDTH 500 0
DWIDTH 8 0
BBX 8 16 0 -3
BITMAP
6C
6C
00
FE
C0
C0
C0
FC
C0
C0
C0
C0
FE
00
00
00
ENDCHAR
STARTCHAR U+00CC
ENCODING 204
SWIDTH 500 0
DWIDTH 8 0
BBX 8 16 0 -3
BITMAP
30
18
00
7E
18
18
18
18
18
18
18
18
7E
00
00
00
ENDCHAR
STARTCHAR U+00CD
ENCODING 205
SWIDTH 500 0
DWIDTH 8 0
BBX 8 16 0 -3
BITMAP
0C
18
00
7E
18
18
18
18
18
18
18
18
7E
00
00
00
ENDCHAR
STARTCHAR U+00CE
ENCODING 206
SWIDTH 500 0
DWIDTH 8 0
BBX 8 16 0 -3
BITMAP
18
3C
24
7E
18
18
18
18
18
18
18
18
7E
00
00
00
ENDCHAR
STARTCHAR U+00CF
ENCODING 207
SWIDTH 500 0
DWIDTH 8 0
BBX 8 16 0 -3
BITMAP
66
66
00
7E
18
18
18
18
18
18
18
18
7E
00
00
00
ENDCHAR
STARTCHAR U+00D0
ENCODING 208
SWIDTH 500 0
DWIDTH 8 0
BBX 8 16 0 -3
BITMAP
00
00
00
F8
CC
C6
46
F6
F6
46
C6
CC
F8
00
00
00
ENDCHAR
STARTCHAR U+00D1
ENCODING 209
SWIDTH 500 0
DWIDTH 8 0
BBX 8 16 0 -3
BITMAP
76
DC
00
C6
E6
E6
F6
F6
DE
DE
CE
CE
C6
00
00
00
ENDCHAR
STARTCHAR U+00D2
ENCODING 210
SWIDTH 500 0
DWIDTH 8 0
BBX 8 16 0 -3
BITMAP
30
18
00
7C
C6
C6
C6
C6
C6
C6
C6
C6
7C
00
00
00
ENDCHAR
STARTCHAR U+00D3
ENCODING 211
SWIDTH 500 0
DWIDTH 8 0
BBX 8 16 0 -3
BITMAP
18
30
00
7C
C6
C6
C6
C6
C6
C6
C6
C6
7C
00
00
00
ENDCHAR
STARTCHAR U+00D4
ENCODING 212
SWIDTH 500 0
DWIDTH 8 0
BBX 8 16 0 -3
BITMAP
38
6C
00
7C
C6
C6
C6
C6
C6
C6
C6
C6
7C
00
00
00
ENDCHAR
STARTCHAR U+00D5
ENCODING 213
SWIDTH 500 0
DWIDTH 8 0
BBX 8 16 0 -3
BITMAP
76
DC
00
7C
C6
C6
C6
C6
C6
C6
C6
C6
7C
00
00
00
ENDCHAR
STARTCHAR U+00D6
ENCODING 214
SWIDTH 500 0
DWIDTH 8 0
BBX 8 16 0 -3
BITMAP
6C
6C
00
7C
C6
C6
C6
C6
C6
C6
C6
C6
7C
00
00
00
ENDCHAR
STARTCHAR U+00D7
ENCODING 215
SWIDTH 500 0
DWIDTH 8 0
BBX 8 16 0 -3
BITMAP
00
00
00
00
00
42
66
3C
18
3C
66
42
00
00
00
00
ENDCHAR
STARTCHAR U+00D8
ENCODING 216
SWIDTH 500 0
DWIDTH 8 0
BBX 8 16 0 -3
BITMAP
00
00
00
7D
C6
CE
CE
D6
D6
E6
E6
C6
7C
80
00
00
ENDCHAR
STARTCHAR U+00D9
ENCODING 217
SWIDTH 500 0
DWIDTH 8 0
BBX 8 16 0 -3
BITMAP
30
18
00
C6
C6
C6
C6
C6
C6
C6
C6
C6
7C
00
00
00
ENDCHAR
STARTCHAR U+00DA
ENCODING 218
SWIDTH 500 0
DWIDTH 8 0
BBX 8 16 0 -3
BITMAP
18
30
00
C6
C6
C6
C6
C6
C6
C6
C6
C6
7C
00
00
00
ENDCHAR
STARTCHAR U+00DB
ENCODING 219
SWIDTH 500 0
DWIDTH 8 0
BBX 8 16 0 -3
BITMAP
38
6C
00
C6
C6
C6
C6
C6
C6
C6
C6
C6
7C
00
00
00
ENDCHAR
STARTCHAR U+00DC
ENCODING 220
SWIDTH 500 0
DWIDTH 8 0
BBX 8 16 0 -3
BITMAP
6C
6C
00
C6
C6
C6
C6
C6
C6
C6
C6
C6
7C
00
00
00
ENDCHAR
STARTCHAR U+00DD
ENCODING 221
SWIDTH 500 0
DWIDTH 8 0
BBX 8 16 0 -3
BITMAP
18
30
00
C6
C6
6C
6C
38
38
30
30
60
60
00
00
00
ENDCHAR
STARTCHAR U+00DE
ENCODING 222
SWIDTH 500 0
DWIDTH 8 0
BBX 8 16 0 -3
BITMAP
00
00
00
C0
C0
FC
C6
C6
C6
C6
FC
C0
C0
00
00
00
ENDCHAR
STARTCHAR U+00DF
ENCODING 223
SWIDTH 500 0
DWIDTH 8 0
BBX 8 16 0 -3
BITMAP
00
00
00
7C
C6
C6
CC
D8
D8
CC
C6
C6
DC
00
00
00
ENDCHAR
STARTCHAR U+00E0
ENCODING 224
SWIDTH 500 0
DWIDTH 8 0
BBX 8 16 0 -3
BITMAP
00
00
30
18
08
00
7C
06
06
7E
C6
CE
76
00
00
00
ENDCHAR
STARTCHAR U+00E1
ENCODING 225
SWIDTH 500 0
DWIDTH 8 0
BBX 8 16 0 -3
BITMAP
00
00
18
30
20
00
7C
06
06
7E
C6
CE
76
00
00
00
ENDCHAR
STARTCHAR U+00E2
ENCODING 226
SWIDTH 500 0
DWIDTH 8 0
BBX 8 16 0 -3
BITMAP
00
00
38
6C
00
00
7C
06
06
7E
C6
CE
76
00
00
00
ENDCHAR
STARTCHAR U+00E3
ENCODING 227
SWIDTH 500 0
DWIDTH 8 0
BBX 8 16 0 -3
BITMAP
00
00
76
DC
00
00
7C
06
06
7E
C6
CE
76
00
00
00
ENDCHAR
STARTCHAR U+00E4
ENCODING 228
SWIDTH 500 0
DWIDTH 8 0
BBX 8 16 0 -3
BITMAP
00
00
6C
6C
00
00
7C
06
06
7E
C6
CE
76
00
00
00
ENDCHAR
STARTCHAR U+00E5
ENCODING 229
SWIDTH 500 0
DWIDTH 8 0
BBX 8 16 0 -3
BITMAP
00
38
6C
38
00
00
7C
06
06
7E
C6
CE
76
00
00
00
ENDCHAR
STARTCHAR U+00E6
ENCODING 230
SWIDTH 500 0
DWIDTH 8 0
BBX 8 16 0 -3
BITMAP
00
00
00
00
00
00
76
9B
1B
7F
D8
DB
66
00
00
00
ENDCHAR
STARTCHAR U+00E7
ENCODING 231
SWIDTH 500 0
DWIDTH 8 0
BBX 8 16 0 -3
BITMAP
00
00
00
00
00
00
7C
C6
C0
C0
C0
C6
7C
18
18
30
ENDCHAR
STARTCHAR U+00E8
ENCODING 232
SWIDTH 500 0
DWIDTH 8 0
BBX 8 16 0 -3
BITMAP
00
00
30
18
00
00
7C
C6
C6
FE
C0
C6
7C
00
00
00
ENDCHAR
STARTCHAR U+00E9
ENCODING 233
SWIDTH 500 0
DWIDTH 8 0
BBX 8 16 0 -3
BITMAP
00
00
18
30
00
00
7C
C6
C6
FE
C0
C6
7C
00
00
00
ENDCHAR
STARTCHAR U+00EA
ENCODING 234
SWIDTH 500 0
DWIDTH 8 0
BBX 8 16 0 -3
BITMAP
00
00
38
6C
00
00
7C
C6
C6
FE
C0
C6
7C
00
00
00
ENDCHAR
STARTCHAR U+00EB
ENCODING 235
SWIDTH 500 0
DWIDTH 8 0
BBX 8 16 0 -3
BITMAP
00
00
6C
6C
00
00
7C
C6
C6
FE
C0
C6
7C
00
00
00
ENDCHAR
STARTCHAR U+00EC
ENCODING 236
SWIDTH 500 0
DWIDTH 8 0
BBX 8 16 0 -3
BITMAP
00
00
30
18
08
00
38
78
18
18
18
1E
1C
00
00
00
ENDCHAR
STARTCHAR U+00ED
ENCODING 237
SWIDTH 500 0
DWIDTH 8 0
BBX 8 16 0 -3
BITMAP
00
00
18
30
20
00
38
78
18
18
18
1E
1C
00
00
00
ENDCHAR
STARTCHAR U+00EE
ENCODING 238
SWIDTH 500 0
DWIDTH 8 0
BBX 8 16 0 -3
BITMAP
00
00
38
6C
00
00
38
78
18
18
18
1E
1C
00
00
00
ENDCHAR
STARTCHAR U+00EF
ENCODING 239
SWIDTH 500 0
DWIDTH 8 0
BBX 8 16 0 -3
BITMAP
00
00
6C
6C
00
00
38
78
18
18
18
1E
1C
00
00
00
ENDCHAR
STARTCHAR U+00F0
ENCODING 240
SWIDTH 500 0
DWIDTH 8 0
BBX 8 16 0 -3
BITMAP
00
00
64
38
18
2C
06
3E
6E
C6
C6
6C
38
00
00
00
ENDCHAR
STARTCHAR U+00F1
ENCODING 241
SWIDTH 500 0
DWIDTH 8 0
BBX 8 16 0 -3
BITMAP
00
00
76
DC
00
00
DC
E6
C6
C6
C6
C6
C6
00
00
00
ENDCHAR
STARTCHAR U+00F2
ENCODING 242
SWIDTH 500 0
DWIDTH 8 0
BBX 8 16 0 -3
BITMAP
00
00
30
18
08
00
7C
C6
C6
C6
C6
C6
7C
00
00
00
ENDCHAR
STARTCHAR U+00F3
ENCODING 243
SWIDTH 500 0
DWIDTH 8 0
BBX 8 16 0 -3
BITMAP
00
00
18
30
20
00
7C
C6
C6
C6
C6
C6
7C
00
00
00
ENDCHAR
STARTCHAR U+00F4
ENCODING 244
SWIDTH 500 0
DWIDTH 8 0
BBX 8 16 0 -3
BITMAP
00
00
38
6C
00
00
7C
C6
C6
C6
C6
C6
7C
00
00
00
ENDCHAR
STARTCHAR U+00F5
ENCODING 245
SWIDTH 500 0
DWIDTH 8 0
BBX 8 16 0 -3
BITMAP
00
00
76
DC
00
00
7C
C6
C6
C6
C6
C6
7C
00
00
00
ENDCHAR
STARTCHAR U+00F6
ENCODING 246
SWIDTH 500 0
DWIDTH 8 0
BBX 8 16 0 -3
BITMAP
00
00
6C
6C
00
00
7C
C6
C6
C6
C6
C6
7C
00
00
00
ENDCHAR
STARTCHAR U+00F7
ENCODING 247
SWIDTH 500 0
DWIDTH 8 0
BBX 8 16 0 -3
BITMAP
00
00
00
00
00
18
18
00
7E
00
18
18
00
00
00
00
ENDCHAR
STARTCHAR U+00F8
ENCODING 248
SWIDTH 500 0
DWIDTH 8 0
BBX 8 16 0 -3
BITMAP
00
00
00
00
00
00
7C
C6
CE
D6
E6
C6
7C
00
00
00
ENDCHAR
STARTCHAR U+00F9
ENCODING 249
SWIDTH 500 0
DWIDTH 8 0
BBX 8 16 0 -3
BITMAP
00
00
30
18
08
00
C6
C6
C6
C6
C6
CE
76
00
00
00
ENDCHAR
STARTCHAR U+00FA
ENCODING 250
SWIDTH 500 0
DWIDTH 8 0
BBX 8 16 0 -3
BITMAP
00
00
18
30
20
00
C6
C6
C6
C6
C6
CE
76
00
00
00
ENDCHAR
STARTCHAR U+00FB
ENCODING 251
SWIDTH 500 0
DWIDTH 8 0
BBX 8 16 0 -3
BITMAP
00
00
38
6C
00
00
C6
C6
C6
C6
C6
CE
76
00
00
00
ENDCHAR
STARTCHAR U+00FC
ENCODING 252
SWIDTH 500 0
DWIDTH 8 0
BBX 8 16 0 -3
BITMAP
00
00
6C
6C
00
00
C6
C6
C6
C6
C6
CE
76
00
00
00
ENDCHAR
STARTCHAR U+00FD
ENCODING 253
SWIDTH 500 0
DWIDTH 8 0
BBX 8 16 0 -3
BITMAP
00
00
18
30
20
00
C6
C6
6C
6C
6C
38
38
30
60
60
ENDCHAR
STARTCHAR U+00FE
ENCODING 254
SWIDTH 500 0
DWIDTH 8 0
BBX 8 16 0 -3
BITMAP
00
00
00
C0
C0
C0
DC
E6
C6
C6
C6
E6
DC
C0
C0
C0
ENDCHAR
STARTCHAR U+00FF
ENCODING 255
SWIDTH 500 0
DWIDTH 8 0
BBX 8 16 0 -3
BITMAP
00
00
6C
6C
00
00
C6
C6
6C
6C
6C
38
38
30
60
60
ENDCHAR
STARTCHAR U+0100
ENCODING 256
SWIDTH 500 0
DWIDTH 8 0
BBX 8 16 0 -3
BITMAP
7C
00
00
38
38
38
6C
6C
7C
6C
C6
C6
C6
00
00
00
ENDCHAR
STARTCHAR U+0101
ENCODING 257
SWIDTH 500 0
DWIDTH 8 0
BBX 8 16 0 -3
BITMAP
00
00
00
7C
00
00
7C
06
06
7E
C6
CE
76
00
00
00
ENDCHAR
STARTCHAR U+0102
ENCODING 258
SWIDTH 500 0
DWIDTH 8 0
BBX 8 16 0 -3
BITMAP
44
38
00
38
38
38
6C
6C
7C
6C
C6
C6
C6
00
00
00
ENDCHAR
STARTCHAR U+0103
ENCODING 259
SWIDTH 500 0
DWIDTH 8 0
BBX 8 16 0 -3
BITMAP
00
00
44
38
00
00
7C
06
06
7E
C6
CE
76
00
00
00
ENDCHAR
STARTCHAR U+0104
ENCODING 260
SWIDTH 500 0
DWIDTH 8 0
BBX 8 16 0 -3
BITMAP
00
00
00
38
38
38
6C
6C
7C
6C
C6
C6
C6
0C
0C
06
ENDCHAR
STARTCHAR U+0105
ENCODING 261
SWIDTH 500 0
DWIDTH 8 0
BBX 8 16 0 -3
BITMAP
00
00
00
00
00
00
7C
06
06
7E
C6
CE
76
0C
0C
06
ENDCHAR
STARTCHAR U+0106
ENCODING 262
SWIDTH 500 0
DWIDTH 8 0
BBX 8 16 0 -3
BITMAP
18
30
00
7C
C6
C0
C0
C0
C0
C0
C0
C6
7C
00
00
00
ENDCHAR
STARTCHAR U+0107
ENCODING 263
SWIDTH 500 0
DWIDTH 8 0
BBX 8 16 0 -3
BITMAP
00
00
18
30
20
00
7C
C6
C0
C0
C0
C6
7C
00
00
00
ENDCHAR
STARTCHAR U+0108
ENCODING 264
SWIDTH 500 0
DWIDTH 8 0
BBX 8 16 0 -3
BITMAP
38
6C
00
7C
C6
C0
C0
C0
C0
C0
C0
C6
7C
00
00
00
ENDCHAR
STARTCHAR U+0109
ENCODING 265
SWIDTH 500 0
DWIDTH 8 0
BBX 8 16 0 -3
BITMAP
00
00
38
6C
00
00
7C
C6
C0
C0
C0
C6
7C
00
00
00
ENDCHAR
STARTCHAR U+010A
ENCODING 266
SWIDTH 500 0
DWIDTH 8 0
BBX 8 16 0 -3
BITMAP
18
18
00
7C
C6
C0
C0
C0
C0
C0
C0
C6
7C
00
00
00
ENDCHAR
STARTCHAR U+010B
ENCODING 267
SWIDTH 500 0
DWIDTH 8 0
BBX 8 16 0 -3
BITMAP
00
00
18
18
00
00
7C
C6
C0
C0
C0
C6
7C
00
00
00
ENDCHAR
STARTCHAR U+010C
ENCODING 268
SWIDTH 500 0
DWIDTH 8 0
BBX 8 16 0 -3
BITMAP
6C
38
00
7C
C6
C0
C0
C0
C0
C0
C0
C6
7C
00
00
00
ENDCHAR
STARTCHAR U+010D
ENCODING 269
SWIDTH 500 0
DWIDTH 8 0
BBX 8 16 0 -3
BITMAP
00
00
6C
38
00
00
7C
C6
C0
C0
C0
C6
7C
00
00
00
ENDCHAR
STARTCHAR U+010E
ENCODING 270
SWIDTH 500 0
DWIDTH 8 0
BBX 8 16 0 -3
BITMAP
6C
38
00
F8
CC
C6
C6
C6
C6
C6
C6
CC
F8
00
00
00
ENDCHAR
STARTCHAR U+010F
ENCODING 271
SWIDTH 500 0
DWIDTH 8 0
BBX 8 16 0 -3
BITMAP
00
00
6C
38
00
00
F8
CC
C6
C6
C6
CC
F8
00
00
00
ENDCHAR
STARTCHAR U+0110
ENCODING 272
SWIDTH 500 0
DWIDTH 8 0
BBX 8 16 0 -3
BITMAP
00
00
00
F8
CC
C6
46
F6
F6
46
C6
CC
F8
00
00
00
ENDCHAR
STARTCHAR U+0111
ENCODING 273
SWIDTH 500 0
DWIDTH 8 0
BBX 8 16 0 -3
BITMAP
00
00
00
06
1F
06
76
CE
C6
C6
C6
CE
76
00
00
00
ENDCHAR
STARTCHAR U+0112
ENCODING 274
SWIDTH 500 0
DWIDTH 8 0
BBX 8 16 0 -3
BITMAP
7C
00
00
FE
C0
C0
C0
FC
C0
C0
C0
C0
FE
00
00
00
ENDCHAR
STARTCHAR U+0113
ENCODING 275
SWIDTH 500 0
DWIDTH 8 0
BBX 8 16 0 -3
BITMAP
00
00
00
7C
00
00
7C
C6
C6
FE
C0
C6
7C
00
00
00
ENDCHAR
STARTCHAR U+0114
ENCODING 276
SWIDTH 500 0
DWIDTH 8 0
BBX 8 16 0 -3
BITMAP
44
38
00
FE
C0
C0
C0
FC
C0
C0
C0
C0
FE
00
00
00
ENDCHAR
STARTCHAR U+0115
ENCODING 277
SWIDTH 500 0
DWIDTH 8 0
BBX 8 16 0 -3
BITMAP
00
00
44
38
00
00
7C
C6
C6
FE
C0
C6
7C
00
00
00
ENDCHAR
STARTCHAR U+0116
ENCODING 278
SWIDTH 500 0
DWIDTH 8 0
BBX 8 16 0 -3
BITMAP
18
18
00
FE
C0
C0
C0
FC
C0
C0
C0
C0
FE
00
00
00
ENDCHAR
STARTCHAR U+0117
ENCODING 279
SWIDTH 500 0
DWIDTH 8 0
BBX 8 16 0 -3
BITMAP
00
00
18
18
00
00
7C
C6
C6
FE
C0
C6
7C
00
00
00
ENDCHAR
STARTCHAR U+0118
ENCODING 280
SWIDTH 500 0
DWIDTH 8 0
BBX 8 16 0 -3
BITMAP
00
00
00
FE
C0
C0
C0
FC
C0
C0
C0
C0
FE
0C
0C
06
ENDCHAR
STARTCHAR U+0119
ENCODING 281
SWIDTH 500 0
DWIDTH 8 0
BBX 8 16 0 -3
BITMAP
00
00
00
00
00
00
7C
C6
C6
FE
C0
C6
7C
0C
0C
06
ENDCHAR
STARTCHAR U+011A
ENCODING 282
SWIDTH 500 0
DWIDTH 8 0
BBX 8 16 0 -3
BITMAP
6C
38
00
FE
C0
C0
C0
FC
C0
C0
C0
C0
FE
00
00
00
ENDCHAR
STARTCHAR U+011B
ENCODING 283
SWIDTH 500 0
DWIDTH 8 0
BBX 8 16 0 -3
BITMAP
00
00
6C
38
00
00
7C
C6
C6
FE
C0
C6
7C
00
00
00
ENDCHAR
STARTCHAR U+011C
ENCODING 284
SWIDTH 500 0
DWIDTH 8 0
BBX 8 16 0 -3
BITMAP
38
6C
00
7C
C6
C0
C0
C0
CE
C6
C6
C6
7C
00
00
00
ENDCHAR
STARTCHAR U+011D
ENCODING 285
SWIDTH 500 0
DWIDTH 8 0
BBX 8 16 0 -3
BITMAP
00
00
38
6C
00
00
76
CE
C6
C6
C6
CE
76
06
C6
7C
ENDCHAR
STARTCHAR U+011E
ENCODING 286
SWIDTH 500 0
DWIDTH 8 0
BBX 8 16 0 -3
BITMAP
44
38
00
7C
C6
C0
C0
C0
CE
C6
C6
C6
7C
00
00
00
ENDCHAR
STARTCHAR U+011F
ENCODING 287
SWIDTH 500 0
DWIDTH 8 0
BBX 8 16 0 -3
BITMAP
00
00
44
38
00
00
76
CE
C6
C6
C6
CE
76
06
C6
7C
ENDCHAR
STARTCHAR U+0120
ENCODING 288
SWIDTH 500 0
DWIDTH 8 0
BBX 8 16 0 -3
BITMAP
18
18
00
7C
C6
C0
C0
C0
CE
C6
C6
C6
7C
00
00
00
ENDCHAR
STARTCHAR U+0121
ENCODING 289
SWIDTH 500 0
DWIDTH 8 0
BBX 8 16 0 -3
BITMAP
00
00
18
18
00
00
76
CE
C6
C6
C6
CE
76
06
C6
7C
ENDCHAR
STARTCHAR U+0122
ENCODING 290
SWIDTH 500 0
DWIDTH 8 0
BBX 8 16 0 -3
BITMAP
00
00
00
7C
C6
C0
C0
C0
CE
C6
C6
C6
7C
18
18
30
ENDCHAR
STARTCHAR U+0123
ENCODING 291
SWIDTH 500 0
DWIDTH 8 0
BBX 8 16 0 -3
BITMAP
00
00
0C
18
18
00
76
CE
C6
C6
C6
CE
76
06
C6
7C
ENDCHAR
STARTCHAR U+0124
ENCODING 292
SWIDTH 500 0
DWIDTH 8 0
BBX 8 16 0 -3
BITMAP
38
6C
00
C6
C6
C6
C6
FE
C6
C6
C6
C6
C6
00
00
00
ENDCHAR
STARTCHAR U+0125
ENCODING 293
SWIDTH 500 0
DWIDTH 8 0
BBX 8 16 0 -3
BITMAP
00
00
38
6C
00
00
C6
C6
C6
FE
C6
C6
C6
00
00
00
ENDCHAR
STARTCHAR U+0126
ENCODING 294
SWIDTH 500 0
DWIDTH 8 0
BBX 8 16 0 -3
BITMAP
00
00
00
C6
FE
C6
C6
FE
C6
C6
C6
C6
C6
00
00
00
ENDCHAR
STARTCHAR U+0127
ENCODING 295
SWIDTH 500 0
DWIDTH 8 0
BBX 8 16 0 -3
BITMAP
00
00
00
C0
F0
C0
DC
E6
C6
C6
C6
C6
C6
00
00
00
ENDCHAR
STARTCHAR U+0128
ENCODING 296
SWIDTH 500 0
DWIDTH 8 0
BBX 8 16 0 -3
BITMAP
76
5C
00
7E
18
18
18
18
18
18
18
18
7E
00
00
00
ENDCHAR
STARTCHAR U+0129
ENCODING 297
SWIDTH 500 0
DWIDTH 8 0
BBX 8 16 0 -3
BITMAP
00
00
76
5C
00
00
38
78
18
18
18
1E
1C
00
00
00
ENDCHAR
STARTCHAR U+012A
ENCODING 298
SWIDTH 500 0
DWIDTH 8 0
BBX 8 16 0 -3
BITMAP
7E
00
00
7E
18
18
18
18
18
18
18
18
7E
00
00
00
ENDCHAR
STARTCHAR U+012B
ENCODING 299
SWIDTH 500 0
DWIDTH 8 0
BBX 8 16 0 -3
BITMAP
00
00
00
7E
00
00
38
78
18
18
18
1E
1C
00
00
00
ENDCHAR
STARTCHAR U+012C
ENCODING 300
SWIDTH 500 0
DWIDTH 8 0
BBX 8 16 0 -3
BITMAP
44
38
00
7E
18
18
18
18
18
18
18
18
7E
00
00
00
ENDCHAR
STARTCHAR U+012D
ENCODING 301
SWIDTH 500 0
DWIDTH 8 0
BBX 8 16 0 -3
BITMAP
00
00
44
38
00
00
38
78
18
18
18
1E
1C
00
00
00
ENDCHAR
STARTCHAR U+012E
ENCODING 302
SWIDTH 500 0
DWIDTH 8 0
BBX 8 16 0 -3
BITMAP
00
00
00
7E
18
18
18
18
18
18
18
18
7E
0C
0C
06
ENDCHAR
STARTCHAR U+012F
ENCODING 303
SWIDTH 500 0
DWIDTH 8 0
BBX 8 16 0 -3
BITMAP
00
00
00
00
00
00
38
78
18
18
18
1E
1C
0C
0C
06
ENDCHAR
STARTCHAR U+0130
ENCODING 304
SWIDTH 500 0
DWIDTH 8 0
BBX 8 16 0 -3
BITMAP
18
18
00
7E
18
18
18
18
18
18
18
18
7E
00
00
00
ENDCHAR
STARTCHAR U+0131
ENCODING 305
SWIDTH 500 0
DWIDTH 8 0
BBX 8 16 0 -3
BITMAP
00
00
18
18
00
00
38
78
18
18
18
1E
1C
00
00
00
ENDCHAR
STARTCHAR U+0132
ENCODING 306
SWIDTH 500 0
DWIDTH 8 0
BBX 8 16 0 -3
BITMAP
00
00
00
DE
CC
CC
CC
CC
CC
CC
0C
8C
78
00
00
00
ENDCHAR
STARTCHAR U+0133
ENCODING 307
SWIDTH 500 0
DWIDTH 8 0
BBX 8 16 0 -3
BITMAP
00
00
00
00
00
00
66
66
66
66
66
66
66
06
46
3C
ENDCHAR
STARTCHAR U+0134
ENCODING 308
SWIDTH 500 0
DWIDTH 8 0
BBX 8 16 0 -3
BITMAP
1C
36
00
1E
0C
0C
0C
0C
0C
0C
0C
CC
78
00
00
00
ENDCHAR
STARTCHAR U+0135
ENCODING 309
SWIDTH 500 0
DWIDTH 8 0
BBX 8 16 0 -3
BITMAP
00
00
00
1C
36
00
0E
1E
06
06
06
06
06
06
66
3C
ENDCHAR
STARTCHAR U+0136
ENCODING 310
SWIDTH 500 0
DWIDTH 8 0
BBX 8 16 0 -3
BITMAP
00
00
00
C6
CC
CC
D8
F8
D8
CC
CC
C6
C6
18
18
30
ENDCHAR
STARTCHAR U+0137
ENCODING 311
SWIDTH 500 0
DWIDTH 8 0
BBX 8 16 0 -3
BITMAP
00
00
00
00
00
00
C6
CC
D8
F0
D8
CC
C6
18
18
30
ENDCHAR
STARTCHAR U+0139
ENCODING 313
SWIDTH 500 0
DWIDTH 8 0
BBX 8 16 0 -3
BITMAP
18
30
00
C0
C0
C0
C0
C0
C0
C0
C0
C0
FE
00
00
00
ENDCHAR
STARTCHAR U+013A
ENCODING 314
SWIDTH 500 0
DWIDTH 8 0
BBX 8 16 0 -3
BITMAP
00
00
18
30
20
00
60
60
60
60
60
60
7E
00
00
00
ENDCHAR
STARTCHAR U+013B
ENCODING 315
SWIDTH 500 0
DWIDTH 8 0
BBX 8 16 0 -3
BITMAP
00
00
00
C0
C0
C0
C0
C0
C0
C0
C0
C0
FE
18
18
30
ENDCHAR
STARTCHAR U+013C
ENCODING 316
SWIDTH 500 0
DWIDTH 8 0
BBX 8 16 0 -3
BITMAP
00
00
00
00
00
00
60
60
60
60
60
60
7E
18
18
30
ENDCHAR
STARTCHAR U+013D
ENCODING 317
SWIDTH 500 0
DWIDTH 8 0
BBX 8 16 0 -3
BITMAP
6C
38
00
C0
C0
C0
C0
C0
C0
C0
C0
C0
FE
00
00
00
ENDCHAR
STARTCHAR U+013E
ENCODING 318
SWIDTH 500 0
DWIDTH 8 0
BBX 8 16 0 -3
BITMAP
00
00
6C
38
00
00
60
60
60
60
60
60
7E
00
00
00
ENDCHAR
STARTCHAR U+013F
ENCODING 319
SWIDTH 500 0
DWIDTH 8 0
BBX 8 16 0 -3
BITMAP
18
18
00
C0
C0
C0
C0
C0
C0
C0
C0
C0
FE
00
00
00
ENDCHAR
STARTCHAR U+0140
ENCODING 320
SWIDTH 500 0
DWIDTH 8 0
BBX 8 16 0 -3
BITMAP
00
00
18
18
00
00
60
60
60
60
60
60
7E
00
00
00
ENDCHAR
STARTCHAR U+0141
ENCODING 321
SWIDTH 500 0
DWIDTH 8 0
BBX 8 16 0 -3
BITMAP
00
00
00
C0
C0
C0
D0
F0
E0
C0
C0
C0
FE
00
00
00
ENDCHAR
STARTCHAR U+0142
ENCODING 322
SWIDTH 500 0
DWIDTH 8 0
BBX 8 16 0 -3
BITMAP
00
00
00
00
00
00
68
78
70
E0
60
60
7E
00
00
00
ENDCHAR
STARTCHAR U+0143
ENCODING 323
SWIDTH 500 0
DWIDTH 8 0
BBX 8 16 0 -3
BITMAP
18
30
00
C6
E6
E6
F6
F6
DE
DE
CE
CE
C6
00
00
00
ENDCHAR
STARTCHAR U+0144
ENCODING 324
SWIDTH 500 0
DWIDTH 8 0
BBX 8 16 0 -3
BITMAP
00
00
18
30
20
00
DC
E6
C6
C6
C6
C6
C6
00
00
00
ENDCHAR
STARTCHAR U+0145
ENCODING 325
SWIDTH 500 0
DWIDTH 8 0
BBX 8 16 0 -3
BITMAP
00
00
00
C6
E6
E6
F6
F6
DE
DE
CE
CE
C6
18
18
30
ENDCHAR
STARTCHAR U+0146
ENCODING 326
SWIDTH 500 0
DWIDTH 8 0
BBX 8 16 0 -3
BITMAP
00
00
00
00
00
00
DC
E6
C6
C6
C6
C6
C6
18
18
30
ENDCHAR
STARTCHAR U+0147
ENCODING 327
SWIDTH 500 0
DWIDTH 8 0
BBX 8 16 0 -3
BITMAP
6C
38
00
C6
E6
E6
F6
F6
DE
DE
CE
CE
C6
00
00
00
ENDCHAR
STARTCHAR U+0148
ENCODING 328
SWIDTH 500 0
DWIDTH 8 0
BBX 8 16 0 -3
BITMAP
00
00
6C
38
00
00
DC
E6
C6
C6
C6
C6
C6
00
00
00
ENDCHAR
STARTCHAR U+0149
ENCODING 329
SWIDTH 500 0
DWIDTH 8 0
BBX 8 16 0 -3
BITMAP
00
00
60
40
80
00
DC
E6
C6
C6
C6
C6
C6
00
00
00
ENDCHAR
STARTCHAR U+014A
ENCODING 330
SWIDTH 500 0
DWIDTH 8 0
BBX 8 16 0 -3
BITMAP
00
00
00
DC
E6
C6
C6
C6
C6
C6
C6
C6
C6
06
06
1C
ENDCHAR
STARTCHAR U+014B
ENCODING 331
SWIDTH 500 0
DWIDTH 8 0
BBX 8 16 0 -3
BITMAP
00
00
00
00
00
00
DC
E6
C6
C6
C6
C6
C6
06
06
1C
ENDCHAR
STARTCHAR U+014C
ENCODING 332
SWIDTH 500 0
DWIDTH 8 0
BBX 8 16 0 -3
BITMAP
7C
00
00
7C
C6
C6
C6
C6
C6
C6
C6
C6
7C
00
00
00
ENDCHAR
STARTCHAR U+014D
ENCODING 333
SWIDTH 500 0
DWIDTH 8 0
BBX 8 16 0 -3
BITMAP
00
00
00
7C
00
00
7C
C6
C6
C6
C6
C6
7C
00
00
00
ENDCHAR
STARTCHAR U+014E
ENCODING 334
SWIDTH 500 0
DWIDTH 8 0
BBX 8 16 0 -3
BITMAP
44
38
00
7C
C6
C6
C6
C6
C6
C6
C6
C6
7C
00
00
00
ENDCHAR
STARTCHAR U+014F
ENCODING 335
SWIDTH 500 0
DWIDTH 8 0
BBX 8 16 0 -3
BITMAP
00
00
44
38
00
00
7C
C6
C6
C6
C6
C6
7C
00
00
00
ENDCHAR
STARTCHAR U+0150
ENCODING 336
SWIDTH 500 0
DWIDTH 8 0
BBX 8 16 0 -3
BITMAP
66
CC
00
7C
C6
C6
C6
C6
C6
C6
C6
C6
7C
00
00
00
ENDCHAR
STARTCHAR U+0151
ENCODING 337
SWIDTH 500 0
DWIDTH 8 0
BBX 8 16 0 -3
BITMAP
00
00
66
CC
88
00
7C
C6
C6
C6
C6
C6
7C
00
00
00
ENDCHAR
STARTCHAR U+0152
ENCODING 338
SWIDTH 500 0
DWIDTH 8 0
BBX 8 16 0 -3
BITMAP
00
00
00
7F
CC
CC
CC
CF
CC
CC
CC
CC
7F
00
00
00
ENDCHAR
STARTCHAR U+0153
ENCODING 339
SWIDTH 500 0
DWIDTH 8 0
BBX 8 16 0 -3
BITMAP
00
00
00
00
00
00
7E
DB
DB
DF
D8
DB
7E
00
00
00
ENDCHAR
STARTCHAR U+0154
ENCODING 340
SWIDTH 500 0
DWIDTH 8 0
BBX 8 16 0 -3
BITMAP
18
30
00
FC
C6
C6
C6
FC
CC
CC
C6
C6
C6
00
00
00
ENDCHAR
STARTCHAR U+0155
ENCODING 341
SWIDTH 500 0
DWIDTH 8 0
BBX 8 16 0 -3
BITMAP
00
00
18
30
20
00
DC
E6
C0
C0
C0
C0
C0
00
00
00
ENDCHAR
STARTCHAR U+0156
ENCODING 342
SWIDTH 500 0
DWIDTH 8 0
BBX 8 16 0 -3
BITMAP
00
00
00
FC
C6
C6
C6
FC
CC
CC
C6
C6
C6
18
18
30
ENDCHAR
STARTCHAR U+0157
ENCODING 343
SWIDTH 500 0
DWIDTH 8 0
BBX 8 16 0 -3
BITMAP
00
00
00
00
00
00
DC
E6
C0
C0
C0
C0
C0
18
18
30
ENDCHAR
STARTCHAR U+0158
ENCODING 344
SWIDTH 500 0
DWIDTH 8 0
BBX 8 16 0 -3
BITMAP
6C
38
00
FC
C6
C6
C6
FC
CC
CC
C6
C6
C6
00
00
00
ENDCHAR
STARTCHAR U+0159
ENCODING 345
SWIDTH 500 0
DWIDTH 8 0
BBX 8 16 0 -3
BITMAP
00
00
6C
38
00
00
DC
E6
C0
C0
C0
C0
C0
00
00
00
ENDCHAR
STARTCHAR U+015A
ENCODING 346
SWIDTH 500 0
DWIDTH 8 0
BBX 8 16 0 -3
BITMAP
18
30
00
7C
C6
C0
C0
7C
06
06
06
C6
7C
00
00
00
ENDCHAR
STARTCHAR U+015B
ENCODING 347
SWIDTH 500 0
DWIDTH 8 0
BBX 8 16 0 -3
BITMAP
00
00
18
30
20
00
7C
C6
C0
7C
06
C6
7C
00
00
00
ENDCHAR
STARTCHAR U+015C
ENCODING 348
SWIDTH 500 0
DWIDTH 8 0
BBX 8 16 0 -3
BITMAP
38
6C
00
7C
C6
C0
C0
7C
06
06
06
C6
7C
00
00
00
ENDCHAR
STARTCHAR U+015D
ENCODING 349
SWIDTH 500 0
DWIDTH 8 0
BBX 8 16 0 -3
BITMAP
00
00
38
6C
00
00
7C
C6
C0
7C
06
C6
7C
00
00
00
ENDCHAR
STARTCHAR U+015E
ENCODING 350
SWIDTH 500 0
DWIDTH 8 0
BBX 8 16 0 -3
BITMAP
00
00
00
7C
C6
C0
C0
7C
06
06
06
C6
7C
18
18
30
ENDCHAR
STARTCHAR U+015F
ENCODING 351
SWIDTH 500 0
DWIDTH 8 0
BBX 8 16 0 -3
BITMAP
00
00
00
00
00
00
7C
C6
C0
7C
06
C6
7C
18
18
30
ENDCHAR
STARTCHAR U+0160
ENCODING 352
SWIDTH 500 0
DWIDTH 8 0
BBX 8 16 0 -3
BITMAP
6C
38
00
7C
C6
C0
C0
7C
06
06
06
C6
7C
00
00
00
ENDCHAR
STARTCHAR U+0161
ENCODING 353
SWIDTH 500 0
DWIDTH 8 0
BBX 8 16 0 -3
BITMAP
00
00
6C
38
00
00
7C
C6
C0
7C
06
C6
7C
00
00
00
ENDCHAR
STARTCHAR U+0162
ENCODING 354
SWIDTH 500 0
DWIDTH 8 0
BBX 8 16 0 -3
BITMAP
00
00
00
7E
18
18
18
18
18
18
18
18
18
08
18
30
ENDCHAR
STARTCHAR U+0163
ENCODING 355
SWIDTH 500 0
DWIDTH 8 0
BBX 8 16 0 -3
BITMAP
00
00
00
00
00
00
FE
30
30
30
30
30
1C
08
18
30
ENDCHAR
STARTCHAR U+0164
ENCODING 356
SWIDTH 500 0
DWIDTH 8 0
BBX 8 16 0 -3
BITMAP
2C
18
00
7E
18
18
18
18
18
18
18
18
18
00
00
00
ENDCHAR
STARTCHAR U+0165
ENCODING 357
SWIDTH 500 0
DWIDTH 8 0
BBX 8 16 0 -3
BITMAP
00
00
6C
38
00
00
FE
30
30
30
30
30
1C
00
00
00
ENDCHAR
STARTCHAR U+0168
ENCODING 360
SWIDTH 500 0
DWIDTH 8 0
BBX 8 16 0 -3
BITMAP
76
DC
00
C6
C6
C6
C6
C6
C6
C6
C6
C6
7C
00
00
00
ENDCHAR
STARTCHAR U+0169
ENCODING 361
SWIDTH 500 0
DWIDTH 8 0
BBX 8 16 0 -3
BITMAP
00
00
76
DC
00
00
C6
C6
C6
C6
C6
CE
76
00
00
00
ENDCHAR
STARTCHAR U+016A
ENCODING 362
SWIDTH 500 0
DWIDTH 8 0
BBX 8 16 0 -3
BITMAP
7C
00
00
C6
C6
C6
C6
C6
C6
C6
C6
C6
7C
00
00
00
ENDCHAR
STARTCHAR U+016B
ENCODING 363
SWIDTH 500 0
DWIDTH 8 0
BBX 8 16 0 -3
BITMAP
00
00
00
7C
00
00
C6
C6
C6
C6
C6
CE
76
00
00
00
ENDCHAR
STARTCHAR U+016C
ENCODING 364
SWIDTH 500 0
DWIDTH 8 0
BBX 8 16 0 -3
BITMAP
44
38
00
C6
C6
C6
C6
C6
C6
C6
C6
C6
7C
00
00
00
ENDCHAR
STARTCHAR U+016D
ENCODING 365
SWIDTH 500 0
DWIDTH 8 0
BBX 8 16 0 -3
BITMAP
00
00
44
38
00
00
C6
C6
C6
C6
C6
CE
76
00
00
00
ENDCHAR
STARTCHAR U+016E
ENCODING 366
SWIDTH 500 0
DWIDTH 8 0
BBX 8 16 0 -3
BITMAP
38
6C
38
C6
C6
C6
C6
C6
C6
C6
C6
C6
7C
00
00
00
ENDCHAR
STARTCHAR U+016F
ENCODING 367
SWIDTH 500 0
DWIDTH 8 0
BBX 8 16 0 -3
BITMAP
00
38
6C
38
00
00
C6
C6
C6
C6
C6
CE
76
00
00
00
ENDCHAR
STARTCHAR U+0170
ENCODING 368
SWIDTH 500 0
DWIDTH 8 0
BBX 8 16 0 -3
BITMAP
66
CC
00
C6
C6
C6
C6
C6
C6
C6
C6
C6
7C
00
00
00
ENDCHAR
STARTCHAR U+0171
ENCODING 369
SWIDTH 500 0
DWIDTH 8 0
BBX 8 16 0 -3
BITMAP
00
00
66
CC
88
00
C6
C6
C6
C6
C6
C6
7C
00
00
00
ENDCHAR
STARTCHAR U+0172
ENCODING 370
SWIDTH 500 0
DWIDTH 8 0
BBX 8 16 0 -3
BITMAP
00
00
00
C6
C6
C6
C6
C6
C6
C6
C6
C6
7C
04
0C
06
ENDCHAR
STARTCHAR U+0173
ENCODING 371
SWIDTH 500 0
DWIDTH 8 0
BBX 8 16 0 -3
BITMAP
00
00
00
00
00
00
C6
C6
C6
C6
C6
CE
76
0C
0C
06
ENDCHAR
STARTCHAR U+0174
ENCODING 372
SWIDTH 500 0
DWIDTH 8 0
BBX 8 16 0 -3
BITMAP
38
6C
00
C6
C6
C6
C6
D6
D6
FE
FE
EE
6C
00
00
00
ENDCHAR
STARTCHAR U+0175
ENCODING 373
SWIDTH 500 0
DWIDTH 8 0
BBX 8 16 0 -3
BITMAP
00
00
38
6C
00
00
C6
C6
C6
D6
D6
FE
6C
00
00
00
ENDCHAR
STARTCHAR U+0176
ENCODING 374
SWIDTH 500 0
DWIDTH 8 0
BBX 8 16 0 -3
BITMAP
38
6C
00
C6
C6
6C
6C
38
38
30
30
60
60
00
00
00
ENDCHAR
STARTCHAR U+0177
ENCODING 375
SWIDTH 500 0
DWIDTH 8 0
BBX 8 16 0 -3
BITMAP
00
00
38
6C
00
00
C6
C6
6C
6C
6C
38
38
30
60
60
ENDCHAR
STARTCHAR U+0178
ENCODING 376
SWIDTH 500 0
DWIDTH 8 0
BBX 8 16 0 -3
BITMAP
6C
6C
00
C6
C6
6C
6C
38
38
30
30
60
60
00
00
00
ENDCHAR
STARTCHAR U+0179
ENCODING 377
SWIDTH 500 0
DWIDTH 8 0
BBX 8 16 0 -3
BITMAP
18
30
00
FE
06
06
0C
18
30
60
C0
C0
FE
00
00
00
ENDCHAR
STARTCHAR U+017A
ENCODING 378
SWIDTH 500 0
DWIDTH 8 0
BBX 8 16 0 -3
BITMAP
00
00
18
30
20
00
FE
0C
18
30
60
C0
FE
00
00
00
ENDCHAR
STARTCHAR U+017B
ENCODING 379
SWIDTH 500 0
DWIDTH 8 0
BBX 8 16 0 -3
BITMAP
18
18
00
FE
06
06
0C
18
30
60
C0
C0
FE
00
00
00
ENDCHAR
STARTCHAR U+017C
ENCODING 380
SWIDTH 500 0
DWIDTH 8 0
BBX 8 16 0 -3
BITMAP
00
00
18
18
00
00
FE
0C
18
30
60
C0
FE
00
00
00
ENDCHAR
STARTCHAR U+017D
ENCODING 381
SWIDTH 500 0
DWIDTH 8 0
BBX 8 16 0 -3
BITMAP
6C
38
00
FE
06
06
0C
18
30
60
C0
C0
FE
00
00
00
ENDCHAR
STARTCHAR U+017E
ENCODING 382
SWIDTH 500 0
DWIDTH 8 0
BBX 8 16 0 -3
BITMAP
00
00
6C
38
00
00
FE
0C
18
30
60
C0
FE
00
00
00
ENDCHAR
STARTCHAR U+017F
ENCODING 383
SWIDTH 500 0
DWIDTH 8 0
BBX 8 16 0 -3
BITMAP
00
00
00
1C
36
30
F0
30
30
30
30
30
30
00
00
00
ENDCHAR
STARTCHAR U+0195
ENCODING 405
SWIDTH 500 0
DWIDTH 8 0
BBX 8 16 0 -3
BITMAP
00
00
00
C0
C0
C0
F2
DB
DB
DB
DB
DB
CE
00
00
00
ENDCHAR
STARTCHAR U+01A2
ENCODING 418
SWIDTH 500 0
DWIDTH 8 0
BBX 8 16 0 -3
BITMAP
00
00
00
7E
DB
DB
DB
DB
DB
DB
DB
DB
73
00
00
00
ENDCHAR
STARTCHAR U+01A3
ENCODING 419
SWIDTH 500 0
DWIDTH 8 0
BBX 8 16 0 -3
BITMAP
00
00
00
00
00
00
7C
DA
DA
DA
DA
DA
72
00
00
00
ENDCHAR
STARTCHAR U+01BF
ENCODING 447
SWIDTH 500 0
DWIDTH 8 0
BBX 8 16 0 -3
BITMAP
00
00
00
00
00
00
DC
E6
C6
C6
CC
D8
F0
E0
C0
C0
ENDCHAR
STARTCHAR U+01E2
ENCODING 482
SWIDTH 500 0
DWIDTH 8 0
BBX 8 16 0 -3
BITMAP
00
00
7E
00
3F
3C
3C
6C
6E
7C
CC
CC
CF
00
00
00
ENDCHAR
STARTCHAR U+01E3
ENCODING 483
SWIDTH 500 0
DWIDTH 8 0
BBX 8 16 0 -3
BITMAP
00
00
00
7E
00
00
76
1B
1B
7F
D8
DB
66
00
00
00
ENDCHAR
STARTCHAR U+01F6
ENCODING 502
SWIDTH 500 0
DWIDTH 8 0
BBX 8 16 0 -3
BITMAP
00
00
00
D8
D8
D8
DA
FB
DB
DB
DB
DB
CE
00
00
00
ENDCHAR
STARTCHAR U+01F7
ENCODING 503
SWIDTH 500 0
DWIDTH 8 0
BBX 8 16 0 -3
BITMAP
00
00
00
DC
E6
C6
C6
C6
CC
D8
F0
E0
C0
C0
C0
00
ENDCHAR
STARTCHAR U+0232
ENCODING 562
SWIDTH 500 0
DWIDTH 8 0
BBX 8 16 0 -3
BITMAP
7C
00
00
C6
C6
6C
6C
38
38
30
30
60
60
00
00
00
ENDCHAR
STARTCHAR U+0233
ENCODING 563
SWIDTH 500 0
DWIDTH 8 0
BBX 8 16 0 -3
BITMAP
00
00
00
7C
00
00
C6
C6
6C
6C
6C
38
38
30
60
60
ENDCHAR
STARTCHAR U+0241
ENCODING 577
SWIDTH 500 0
DWIDTH 8 0
BBX 8 16 0 -3
BITMAP
00
00
00
7C
C6
06
06
06
1C
30
30
30
30
00
00
00
ENDCHAR
STARTCHAR U+0242
ENCODING 578
SWIDTH 500 0
DWIDTH 8 0
BBX 8 16 0 -3
BITMAP
00
00
00
00
00
00
7C
C6
06
06
1C
30
30
00
00
00
ENDCHAR
STARTCHAR U+0250
ENCODING 592
SWIDTH 500 0
DWIDTH 8 0
BBX 8 16 0 -3
BITMAP
00
00
00
00
00
00
DC
E6
C6
FC
C0
C0
7C
00
00
00
ENDCHAR
STARTCHAR U+0251
ENCODING 593
SWIDTH 500 0
DWIDTH 8 0
BBX 8 16 0 -3
BITMAP
00
00
00
00
00
00
76
CE
C6
C6
C6
CE
76
00
00
00
ENDCHAR
STARTCHAR U+0252
ENCODING 594
SWIDTH 500 0
DWIDTH 8 0
BBX 8 16 0 -3
BITMAP
00
00
00
00
00
00
DC
E6
C6
C6
C6
E6
DC
00
00
00
ENDCHAR
STARTCHAR U+0254
ENCODING 596
SWIDTH 500 0
DWIDTH 8 0
BBX 8 16 0 -3
BITMAP
00
00
00
00
00
00
7C
C6
06
06
06
C6
7C
00
00
00
ENDCHAR
STARTCHAR U+0259
ENCODING 601
SWIDTH 500 0
DWIDTH 8 0
BBX 8 16 0 -3
BITMAP
00
00
00
00
00
00
7C
C6
06
FE
C6
C6
7C
00
00
00
ENDCHAR
STARTCHAR U+025B
ENCODING 603
SWIDTH 500 0
DWIDTH 8 0
BBX 8 16 0 -3
BITMAP
00
00
00
00
00
00
7C
C6
C0
78
C0
C6
7C
00
00
00
ENDCHAR
STARTCHAR U+025C
ENCODING 604
SWIDTH 500 0
DWIDTH 8 0
BBX 8 16 0 -3
BITMAP
00
00
00
00
00
00
7C
C6
06
3C
06
C6
7C
00
00
00
ENDCHAR
STARTCHAR U+025D
ENCODING 605
SWIDTH 500 0
DWIDTH 8 0
BBX 8 16 0 -3
BITMAP
00
00
00
00
00
00
70
D8
1E
32
18
D8
70
00
00
00
ENDCHAR
STARTCHAR U+0262
ENCODING 610
SWIDTH 500 0
DWIDTH 8 0
BBX 8 16 0 -3
BITMAP
00
00
00
00
00
00
7C
C6
C0
DE
C6
C6
7C
00
00
00
ENDCHAR
STARTCHAR U+026A
ENCODING 618
SWIDTH 500 0
DWIDTH 8 0
BBX 8 16 0 -3
BITMAP
00
00
00
00
00
00
7E
18
18
18
18
18
7E
00
00
00
ENDCHAR
STARTCHAR U+0272
ENCODING 626
SWIDTH 500 0
DWIDTH 8 0
BBX 8 16 0 -3
BITMAP
00
00
00
00
00
00
DC
E6
C6
C6
C6
C6
C6
C0
C0
80
ENDCHAR
STARTCHAR U+0274
ENCODING 628
SWIDTH 500 0
DWIDTH 8 0
BBX 8 16 0 -3
BITMAP
00
00
00
00
00
00
C6
E6
F6
FE
DE
CE
C6
00
00
00
ENDCHAR
STARTCHAR U+0278
ENCODING 632
SWIDTH 500 0
DWIDTH 8 0
BBX 8 16 0 -3
BITMAP
00
00
00
10
10
10
38
54
D6
D6
D6
54
38
10
10
10
ENDCHAR
STARTCHAR U+027B
ENCODING 635
SWIDTH 500 0
DWIDTH 8 0
BBX 8 16 0 -3
BITMAP
00
00
00
00
00
00
0C
0C
0C
0C
0C
DC
6C
0C
0C
06
ENDCHAR
STARTCHAR U+027E
ENCODING 638
SWIDTH 500 0
DWIDTH 8 0
BBX 8 16 0 -3
BITMAP
00
00
00
00
00
00
3C
66
60
60
60
60
F0
00
00
00
ENDCHAR
STARTCHAR U+0280
ENCODING 640
SWIDTH 500 0
DWIDTH 8 0
BBX 8 16 0 -3
BITMAP
00
00
00
00
00
00
FC
C6
C6
FC
CC
C6
C6
00
00
00
ENDCHAR
STARTCHAR U+0283
ENCODING 643
SWIDTH 500 0
DWIDTH 8 0
BBX 8 16 0 -3
BITMAP
00
00
00
0E
18
18
18
18
18
18
18
18
18
18
70
00
ENDCHAR
STARTCHAR U+028A
ENCODING 650
SWIDTH 500 0
DWIDTH 8 0
BBX 8 16 0 -3
BITMAP
00
00
00
00
00
00
EE
6C
C6
C6
C6
C6
7C
00
00
00
ENDCHAR
STARTCHAR U+028C
ENCODING 652
SWIDTH 500 0
DWIDTH 8 0
BBX 8 16 0 -3
BITMAP
00
00
00
00
00
00
38
38
6C
6C
6C
C6
C6
00
00
00
ENDCHAR
STARTCHAR U+028D
ENCODING 653
SWIDTH 500 0
DWIDTH 8 0
BBX 8 16 0 -3
BITMAP
00
00
00
00
00
00
28
28
7C
7C
D6
C6
C6
00
00
00
ENDCHAR
STARTCHAR U+028F
ENCODING 655
SWIDTH 500 0
DWIDTH 8 0
BBX 8 16 0 -3
BITMAP
00
00
00
00
00
00
C6
C6
6C
38
30
60
60
00
00
00
ENDCHAR
STARTCHAR U+0299
ENCODING 665
SWIDTH 500 0
DWIDTH 8 0
BBX 8 16 0 -3
BITMAP
00
00
00
00
00
00
FC
C6
C6
FC
C6
C6
FC
00
00
00
ENDCHAR
STARTCHAR U+029C
ENCODING 668
SWIDTH 500 0
DWIDTH 8 0
BBX 8 16 0 -3
BITMAP
00
00
00
00
00
00
C6
C6
C6
FE
C6
C6
C6
00
00
00
ENDCHAR
STARTCHAR U+029F
ENCODING 671
SWIDTH 500 0
DWIDTH 8 0
BBX 8 16 0 -3
BITMAP
00
00
00
00
00
00
C0
C0
C0
C0
C0
C0
FE
00
00
00
ENDCHAR
STARTCHAR U+02B0
ENCODING 688
SWIDTH 500 0
DWIDTH 8 0
BBX 8 16 0 -3
BITMAP
00
00
6C
6C
7C
6C
6C
6C
00
00
00
00
00
00
00
00
ENDCHAR
STARTCHAR U+02B2
ENCODING 690
SWIDTH 500 0
DWIDTH 8 0
BBX 8 16 0 -3
BITMAP
00
00
38
18
18
18
58
30
00
00
00
00
00
00
00
00
ENDCHAR
STARTCHAR U+02B3
ENCODING 691
SWIDTH 500 0
DWIDTH 8 0
BBX 8 16 0 -3
BITMAP
00
00
68
74
60
60
60
60
00
00
00
00
00
00
00
00
ENDCHAR
STARTCHAR U+02B7
ENCODING 695
SWIDTH 500 0
DWIDTH 8 0
BBX 8 16 0 -3
BITMAP
00
00
C6
C6
D6
D6
D6
6C
00
00
00
00
00
00
00
00
ENDCHAR
STARTCHAR U+02B8
ENCODING 696
SWIDTH 500 0
DWIDTH 8 0
BBX 8 16 0 -3
BITMAP
00
00
6C
6C
3C
0C
18
30
00
00
00
00
00
00
00
00
ENDCHAR
STARTCHAR U+02C8
ENCODING 712
SWIDTH 500 0
DWIDTH 8 0
BBX 8 16 0 -3
BITMAP
00
00
18
18
18
18
00
00
00
00
00
00
00
00
00
00
ENDCHAR
STARTCHAR U+02D0
ENCODING 720
SWIDTH 500 0
DWIDTH 8 0
BBX 8 16 0 -3
BITMAP
00
00
00
00
00
00
1C
08
00
00
00
08
1C
00
00
00
ENDCHAR
STARTCHAR U+02D8
ENCODING 728
SWIDTH 500 0
DWIDTH 8 0
BBX 8 16 0 -3
BITMAP
00
00
6C
6C
38
00
00
00
00
00
00
00
00
00
00
00
ENDCHAR
STARTCHAR U+02D9
ENCODING 729
SWIDTH 500 0
DWIDTH 8 0
BBX 8 16 0 -3
BITMAP
00
00
00
08
00
00
00
00
00
00
00
00
00
00
00
00
ENDCHAR
STARTCHAR U+02E1
ENCODING 737
SWIDTH 500 0
DWIDTH 8 0
BBX 8 16 0 -3
BITMAP
00
00
30
30
30
30
30
3C
00
00
00
00
00
00
00
00
ENDCHAR
STARTCHAR U+02E2
ENCODING 738
SWIDTH 500 0
DWIDTH 8 0
BBX 8 16 0 -3
BITMAP
00
00
38
6C
30
18
6C
38
00
00
00
00
00
00
00
00
ENDCHAR
STARTCHAR U+02E3
ENCODING 739
SWIDTH 500 0
DWIDTH 8 0
BBX 8 16 0 -3
BITMAP
00
00
6C
6C
38
38
6C
6C
00
00
00
00
00
00
00
00
ENDCHAR
STARTCHAR U+0380
ENCODING 896
SWIDTH 500 0
DWIDTH 8 0
BBX 8 16 0 -3
BITMAP
00
00
00
C0
C0
C0
C0
FE
C0
C0
C0
C0
C0
00
00
00
ENDCHAR
STARTCHAR U+0381
ENCODING 897
SWIDTH 500 0
DWIDTH 8 0
BBX 8 16 0 -3
BITMAP
00
00
00
00
00
00
C0
C0
C0
FE
C0
C0
C0
00
00
00
ENDCHAR
STARTCHAR U+0382
ENCODING 898
SWIDTH 500 0
DWIDTH 8 0
BBX 8 16 0 -3
BITMAP
00
00
00
FF
DB
DB
DB
18
18
18
18
18
18
00
00
00
ENDCHAR
STARTCHAR U+0383
ENCODING 899
SWIDTH 500 0
DWIDTH 8 0
BBX 8 16 0 -3
BITMAP
00
00
00
00
00
00
FE
B6
B6
30
30
30
1C
00
00
00
ENDCHAR
STARTCHAR U+0391
ENCODING 913
SWIDTH 500 0
DWIDTH 8 0
BBX 8 16 0 -3
BITMAP
00
00
00
38
38
38
6C
6C
7C
6C
C6
C6
C6
00
00
00
ENDCHAR
STARTCHAR U+0392
ENCODING 914
SWIDTH 500 0
DWIDTH 8 0
BBX 8 16 0 -3
BITMAP
00
00
00
FC
C6
C6
C6
FC
C6
C6
C6
C6
FC
00
00
00
ENDCHAR
STARTCHAR U+0393
ENCODING 915
SWIDTH 500 0
DWIDTH 8 0
BBX 8 16 0 -3
BITMAP
00
00
00
FE
C6
C0
C0
C0
C0
C0
C0
C0
C0
00
00
00
ENDCHAR
STARTCHAR U+0394
ENCODING 916
SWIDTH 500 0
DWIDTH 8 0
BBX 8 16 0 -3
BITMAP
00
00
00
38
38
38
6C
6C
6C
C6
C6
C6
FE
00
00
00
ENDCHAR
STARTCHAR U+0395
ENCODING 917
SWIDTH 500 0
DWIDTH 8 0
BBX 8 16 0 -3
BITMAP
00
00
00
FE
C0
C0
C0
FC
C0
C0
C0
C0
FE
00
00
00
ENDCHAR
STARTCHAR U+0396
ENCODING 918
SWIDTH 500 0
DWIDTH 8 0
BBX 8 16 0 -3
BITMAP
00
00
00
FE
06
06
0C
18
30
60
C0
C0
FE
00
00
00
ENDCHAR
STARTCHAR U+0397
ENCODING 919
SWIDTH 500 0
DWIDTH 8 0
BBX 8 16 0 -3
BITMAP
00
00
00
C6
C6
C6
C6
FE
C6
C6
C6
C6
C6
00
00
00
ENDCHAR
STARTCHAR U+0398
ENCODING 920
SWIDTH 500 0
DWIDTH 8 0
BBX 8 16 0 -3
BITMAP
00
00
00
7C
C6
C6
C6
FE
C6
C6
C6
C6
7C
00
00
00
ENDCHAR
STARTCHAR U+0399
ENCODING 921
SWIDTH 500 0
DWIDTH 8 0
BBX 8 16 0 -3
BITMAP
00
00
00
7E
18
18
18
18
18
18
18
18
7E
00
00
00
ENDCHAR
STARTCHAR U+039A
ENCODING 922
SWIDTH 500 0
DWIDTH 8 0
BBX 8 16 0 -3
BITMAP
00
00
00
C6
CC
CC
D8
F8
D8
CC
CC
C6
C6
00
00
00
ENDCHAR
STARTCHAR U+039B
ENCODING 923
SWIDTH 500 0
DWIDTH 8 0
BBX 8 16 0 -3
BITMAP
00
00
00
38
38
38
6C
6C
6C
C6
C6
C6
C6
00
00
00
ENDCHAR
STARTCHAR U+039C
ENCODING 924
SWIDTH 500 0
DWIDTH 8 0
BBX 8 16 0 -3
BITMAP
00
00
00
C6
EE
EE
FE
D6
D6
C6
C6
C6
C6
00
00
00
ENDCHAR
STARTCHAR U+039D
ENCODING 925
SWIDTH 500 0
DWIDTH 8 0
BBX 8 16 0 -3
BITMAP
00
00
00
C6
E6
E6
F6
F6
DE
DE
CE
CE
C6
00
00
00
ENDCHAR
STARTCHAR U+039E
ENCODING 926
SWIDTH 500 0
DWIDTH 8 0
BBX 8 16 0 -3
BITMAP
00
00
00
FE
C6
00
00
7C
00
00
00
C6
FE
00
00
00
ENDCHAR
STARTCHAR U+039F
ENCODING 927
SWIDTH 500 0
DWIDTH 8 0
BBX 8 16 0 -3
BITMAP
00
00
00
7C
C6
C6
C6
C6
C6
C6
C6
C6
7C
00
00
00
ENDCHAR
STARTCHAR U+03A0
ENCODING 928
SWIDTH 500 0
DWIDTH 8 0
BBX 8 16 0 -3
BITMAP
00
00
00
FE
C6
C6
C6
C6
C6
C6
C6
C6
C6
00
00
00
ENDCHAR
STARTCHAR U+03A1
ENCODING 929
SWIDTH 500 0
DWIDTH 8 0
BBX 8 16 0 -3
BITMAP
00
00
00
FC
C6
C6
C6
FC
C0
C0
C0
C0
C0
00
00
00
ENDCHAR
STARTCHAR U+03A3
ENCODING 931
SWIDTH 500 0
DWIDTH 8 0
BBX 8 16 0 -3
BITMAP
00
00
00
FE
60
30
18
0C
18
30
60
C0
FE
00
00
00
ENDCHAR
STARTCHAR U+03A4
ENCODING 932
SWIDTH 500 0
DWIDTH 8 0
BBX 8 16 0 -3
BITMAP
00
00
00
7E
18
18
18
18
18
18
18
18
18
00
00
00
ENDCHAR
STARTCHAR U+03A5
ENCODING 933
SWIDTH 500 0
DWIDTH 8 0
BBX 8 16 0 -3
BITMAP
00
00
00
66
66
66
3C
3C
18
18
18
18
18
00
00
00
ENDCHAR
STARTCHAR U+03A6
ENCODING 934
SWIDTH 500 0
DWIDTH 8 0
BBX 8 16 0 -3
BITMAP
00
00
00
10
7C
D6
D6
D6
D6
D6
D6
7C
10
00
00
00
ENDCHAR
STARTCHAR U+03A7
ENCODING 935
SWIDTH 500 0
DWIDTH 8 0
BBX 8 16 0 -3
BITMAP
00
00
00
C6
C6
6C
6C
38
38
6C
6C
C6
C6
00
00
00
ENDCHAR
STARTCHAR U+03A8
ENCODING 936
SWIDTH 500 0
DWIDTH 8 0
BBX 8 16 0 -3
BITMAP
00
00
00
92
D6
D6
D6
D6
D6
D6
D6
7C
10
00
00
00
ENDCHAR
STARTCHAR U+03A9
ENCODING 937
SWIDTH 500 0
DWIDTH 8 0
BBX 8 16 0 -3
BITMAP
00
00
00
7C
C6
C6
C6
C6
C6
C6
C6
6C
EE
00
00
00
ENDCHAR
STARTCHAR U+03B1
ENCODING 945
SWIDTH 500 0
DWIDTH 8 0
BBX 8 16 0 -3
BITMAP
00
00
00
00
00
00
76
CE
C6
C6
C6
CE
76
00
00
00
ENDCHAR
STARTCHAR U+03B2
ENCODING 946
SWIDTH 500 0
DWIDTH 8 0
BBX 8 16 0 -3
BITMAP
00
00
00
00
00
00
7C
C6
C6
FC
C6
C6
FC
C0
C0
C0
ENDCHAR
STARTCHAR U+03B3
ENCODING 947
SWIDTH 500 0
DWIDTH 8 0
BBX 8 16 0 -3
BITMAP
00
00
00
00
00
00
C6
66
6C
6C
6C
38
38
30
60
60
ENDCHAR
STARTCHAR U+03B4
ENCODING 948
SWIDTH 500 0
DWIDTH 8 0
BBX 8 16 0 -3
BITMAP
00
00
00
7C
C0
C0
78
DC
C6
C6
C6
C6
7C
00
00
00
ENDCHAR
STARTCHAR U+03B5
ENCODING 949
SWIDTH 500 0
DWIDTH 8 0
BBX 8 16 0 -3
BITMAP
00
00
00
00
00
00
7C
C6
C0
78
C0
C6
7C
00
00
00
ENDCHAR
STARTCHAR U+03B6
ENCODING 950
SWIDTH 500 0
DWIDTH 8 0
BBX 8 16 0 -3
BITMAP
00
00
00
FE
0C
18
30
60
C0
C0
C0
C0
7C
06
06
0C
ENDCHAR
STARTCHAR U+03B7
ENCODING 951
SWIDTH 500 0
DWIDTH 8 0
BBX 8 16 0 -3
BITMAP
00
00
00
00
00
00
DC
E6
C6
C6
C6
C6
C6
06
06
06
ENDCHAR
STARTCHAR U+03B8
ENCODING 952
SWIDTH 500 0
DWIDTH 8 0
BBX 8 16 0 -3
BITMAP
00
00
00
7C
C6
C6
C6
FE
C6
C6
C6
C6
7C
00
00
00
ENDCHAR
STARTCHAR U+03B9
ENCODING 953
SWIDTH 500 0
DWIDTH 8 0
BBX 8 16 0 -3
BITMAP
00
00
00
00
00
00
38
78
18
18
18
1E
1C
00
00
00
ENDCHAR
STARTCHAR U+03BA
ENCODING 954
SWIDTH 500 0
DWIDTH 8 0
BBX 8 16 0 -3
BITMAP
00
00
00
00
00
00
C6
CC
D8
F0
D8
CC
C6
00
00
00
ENDCHAR
STARTCHAR U+03BB
ENCODING 955
SWIDTH 500 0
DWIDTH 8 0
BBX 8 16 0 -3
BITMAP
00
00
00
60
30
30
18
38
3C
6C
66
C6
C6
00
00
00
ENDCHAR
STARTCHAR U+03BC
ENCODING 956
SWIDTH 500 0
DWIDTH 8 0
BBX 8 16 0 -3
BITMAP
00
00
00
00
00
00
C6
C6
C6
C6
C6
C6
FA
C0
C0
C0
ENDCHAR
STARTCHAR U+03BD
ENCODING 957
SWIDTH 500 0
DWIDTH 8 0
BBX 8 16 0 -3
BITMAP
00
00
00
00
00
00
C6
C6
66
66
66
34
38
00
00
00
ENDCHAR
STARTCHAR U+03BE
ENCODING 958
SWIDTH 500 0
DWIDTH 8 0
BBX 8 16 0 -3
BITMAP
00
00
00
FE
70
C0
C0
C0
78
C0
C0
C0
7C
06
06
0C
ENDCHAR
STARTCHAR U+03BF
ENCODING 959
SWIDTH 500 0
DWIDTH 8 0
BBX 8 16 0 -3
BITMAP
00
00
00
00
00
00
7C
C6
C6
C6
C6
C6
7C
00
00
00
ENDCHAR
STARTCHAR U+03C0
ENCODING 960
SWIDTH 500 0
DWIDTH 8 0
BBX 8 16 0 -3
BITMAP
00
00
00
00
00
00
FE
6C
6C
6C
6C
6C
66
00
00
00
ENDCHAR
STARTCHAR U+03C1
ENCODING 961
SWIDTH 500 0
DWIDTH 8 0
BBX 8 16 0 -3
BITMAP
00
00
00
00
00
00
7C
C6
C6
C6
C6
E6
DC
C0
C0
C0
ENDCHAR
STARTCHAR U+03C2
ENCODING 962
SWIDTH 500 0
DWIDTH 8 0
BBX 8 16 0 -3
BITMAP
00
00
00
00
00
00
7C
C6
C0
C0
C0
C0
7C
06
06
0C
ENDCHAR
STARTCHAR U+03C3
ENCODING 963
SWIDTH 500 0
DWIDTH 8 0
BBX 8 16 0 -3
BITMAP
00
00
00
00
00
00
7E
CC
C6
C6
C6
C6
7C
00
00
00
ENDCHAR
STARTCHAR U+03C4
ENCODING 964
SWIDTH 500 0
DWIDTH 8 0
BBX 8 16 0 -3
BITMAP
00
00
00
00
00
00
FE
30
30
30
30
30
1C
00
00
00
ENDCHAR
STARTCHAR U+03C5
ENCODING 965
SWIDTH 500 0
DWIDTH 8 0
BBX 8 16 0 -3
BITMAP
00
00
00
00
00
00
CC
C6
C6
C6
C6
CC
78
00
00
00
ENDCHAR
STARTCHAR U+03C6
ENCODING 966
SWIDTH 500 0
DWIDTH 8 0
BBX 8 16 0 -3
BITMAP
00
00
00
00
00
00
4C
D6
D6
D6
D6
D6
7C
10
10
10
ENDCHAR
STARTCHAR U+03C7
ENCODING 967
SWIDTH 500 0
DWIDTH 8 0
BBX 8 16 0 -3
BITMAP
00
00
00
00
00
00
C6
66
6C
3C
38
38
78
6C
CC
C6
ENDCHAR
STARTCHAR U+03C8
ENCODING 968
SWIDTH 500 0
DWIDTH 8 0
BBX 8 16 0 -3
BITMAP
00
00
00
00
00
00
82
D6
D6
D6
D6
D6
7C
10
10
10
ENDCHAR
STARTCHAR U+03C9
ENCODING 969
SWIDTH 500 0
DWIDTH 8 0
BBX 8 16 0 -3
BITMAP
00
00
00
00
00
00
44
C6
C6
D6
D6
D6
6C
00
00
00
ENDCHAR
STARTCHAR U+1D00
ENCODING 7424
SWIDTH 500 0
DWIDTH 8 0
BBX 8 16 0 -3
BITMAP
00
00
00
00
00
00
38
38
6C
7C
6C
C6
C6
00
00
00
ENDCHAR
STARTCHAR U+1D04
ENCODING 7428
SWIDTH 500 0
DWIDTH 8 0
BBX 8 16 0 -3
BITMAP
00
00
00
00
00
00
7C
C6
C0
C0
C0
C6
7C
00
00
00
ENDCHAR
STARTCHAR U+1D05
ENCODING 7429
SWIDTH 500 0
DWIDTH 8 0
BBX 8 16 0 -3
BITMAP
00
00
00
00
00
00
F8
CC
C6
C6
C6
CC
F8
00
00
00
ENDCHAR
STARTCHAR U+1D07
ENCODING 7431
SWIDTH 500 0
DWIDTH 8 0
BBX 8 16 0 -3
BITMAP
00
00
00
00
00
00
FE
C0
C0
FC
C0
C0
FE
00
00
00
ENDCHAR
STARTCHAR U+1D0A
ENCODING 7434
SWIDTH 500 0
DWIDTH 8 0
BBX 8 16 0 -3
BITMAP
00
00
00
00
00
00
3E
0C
0C
0C
0C
CC
78
00
00
00
ENDCHAR
STARTCHAR U+1D0B
ENCODING 7435
SWIDTH 500 0
DWIDTH 8 0
BBX 8 16 0 -3
BITMAP
00
00
00
00
00
00
C6
CC
D8
F8
D8
CC
C6
00
00
00
ENDCHAR
STARTCHAR U+1D0D
ENCODING 7437
SWIDTH 500 0
DWIDTH 8 0
BBX 8 16 0 -3
BITMAP
00
00
00
00
00
00
C6
EE
FE
FE
D6
C6
C6
00
00
00
ENDCHAR
STARTCHAR U+1D0F
ENCODING 7439
SWIDTH 500 0
DWIDTH 8 0
BBX 8 16 0 -3
BITMAP
00
00
00
00
00
00
7C
C6
C6
C6
C6
C6
7C
00
00
00
ENDCHAR
STARTCHAR U+1D18
ENCODING 7448
SWIDTH 500 0
DWIDTH 8 0
BBX 8 16 0 -3
BITMAP
00
00
00
00
00
00
FC
C6
C6
FC
C0
C0
C0
00
00
00
ENDCHAR
STARTCHAR U+1D1B
ENCODING 7451
SWIDTH 500 0
DWIDTH 8 0
BBX 8 16 0 -3
BITMAP
00
00
00
00
00
00
7E
18
18
18
18
18
18
00
00
00
ENDCHAR
STARTCHAR U+1D1C
ENCODING 7452
SWIDTH 500 0
DWIDTH 8 0
BBX 8 16 0 -3
BITMAP
00
00
00
00
00
00
C6
C6
C6
C6
C6
C6
7C
00
00
00
ENDCHAR
STARTCHAR U+1D20
ENCODING 7456
SWIDTH 500 0
DWIDTH 8 0
BBX 8 16 0 -3
BITMAP
00
00
00
00
00
00
C6
C6
C6
6C
6C
38
38
00
00
00
ENDCHAR
STARTCHAR U+1D21
ENCODING 7457
SWIDTH 500 0
DWIDTH 8 0
BBX 8 16 0 -3
BITMAP
00
00
00
00
00
00
C6
C6
D6
D6
FE
FE
6C
00
00
00
ENDCHAR
STARTCHAR U+1D22
ENCODING 7458
SWIDTH 500 0
DWIDTH 8 0
BBX 8 16 0 -3
BITMAP
00
00
00
00
00
00
FE
06
0C
18
30
60
FE
00
00
00
ENDCHAR
STARTCHAR U+1D43
ENCODING 7491
SWIDTH 500 0
DWIDTH 8 0
BBX 8 16 0 -3
BITMAP
00
00
38
0C
3C
6C
6C
34
00
00
00
00
00
00
00
00
ENDCHAR
STARTCHAR U+1D47
ENCODING 7495
SWIDTH 500 0
DWIDTH 8 0
BBX 8 16 0 -3
BITMAP
00
00
78
6C
78
6C
6C
78
00
00
00
00
00
00
00
00
ENDCHAR
STARTCHAR U+1D48
ENCODING 7496
SWIDTH 500 0
DWIDTH 8 0
BBX 8 16 0 -3
BITMAP
00
00
78
7C
6C
6C
7C
78
00
00
00
00
00
00
00
00
ENDCHAR
STARTCHAR U+1D49
ENCODING 7497
SWIDTH 500 0
DWIDTH 8 0
BBX 8 16 0 -3
BITMAP
00
00
38
6C
7C
60
6C
38
00
00
00
00
00
00
00
00
ENDCHAR
STARTCHAR U+1D4B
ENCODING 7499
SWIDTH 500 0
DWIDTH 8 0
BBX 8 16 0 -3
BITMAP
00
00
1C
30
18
30
30
1C
00
00
00
00
00
00
00
00
ENDCHAR
STARTCHAR U+1D4D
ENCODING 7501
SWIDTH 500 0
DWIDTH 8 0
BBX 8 16 0 -3
BITMAP
00
00
38
60
60
6C
64
3C
00
00
00
00
00
00
00
00
ENDCHAR
STARTCHAR U+1D4F
ENCODING 7503
SWIDTH 500 0
DWIDTH 8 0
BBX 8 16 0 -3
BITMAP
00
00
6C
78
70
78
6C
6C
00
00
00
00
00
00
00
00
ENDCHAR
STARTCHAR U+1D50
ENCODING 7504
SWIDTH 500 0
DWIDTH 8 0
BBX 8 16 0 -3
BITMAP
00
00
74
6A
6A
6A
6A
6A
00
00
00
00
00
00
00
00
ENDCHAR
STARTCHAR U+1D52
ENCODING 7506
SWIDTH 500 0
DWIDTH 8 0
BBX 8 16 0 -3
BITMAP
00
00
38
6C
6C
6C
6C
38
00
00
00
00
00
00
00
00
ENDCHAR
STARTCHAR U+1D56
ENCODING 7510
SWIDTH 500 0
DWIDTH 8 0
BBX 8 16 0 -3
BITMAP
00
00
78
6C
6C
78
60
60
00
00
00
00
00
00
00
00
ENDCHAR
STARTCHAR U+1D57
ENCODING 7511
SWIDTH 500 0
DWIDTH 8 0
BBX 8 16 0 -3
BITMAP
00
00
7C
30
30
30
30
18
00
00
00
00
00
00
00
00
ENDCHAR
STARTCHAR U+1D58
ENCODING 7512
SWIDTH 500 0
DWIDTH 8 0
BBX 8 16 0 -3
BITMAP
00
00
6C
6C
6C
6C
6C
3C
00
00
00
00
00
00
00
00
ENDCHAR
STARTCHAR U+1D5B
ENCODING 7515
SWIDTH 500 0
DWIDTH 8 0
BBX 8 16 0 -3
BITMAP
00
00
44
6C
6C
38
38
10
00
00
00
00
00
00
00
00
ENDCHAR
STARTCHAR U+1D62
ENCODING 7522
SWIDTH 500 0
DWIDTH 8 0
BBX 8 16 0 -3
BITMAP
00
00
00
00
00
00
00
00
00
38
18
18
18
18
1C
00
ENDCHAR
STARTCHAR U+1D63
ENCODING 7523
SWIDTH 500 0
DWIDTH 8 0
BBX 8 16 0 -3
BITMAP
00
00
00
00
00
00
00
00
00
58
74
60
60
60
60
00
ENDCHAR
STARTCHAR U+1D64
ENCODING 7524
SWIDTH 500 0
DWIDTH 8 0
BBX 8 16 0 -3
BITMAP
00
00
00
00
00
00
00
00
00
6C
6C
6C
6C
6C
3C
00
ENDCHAR
STARTCHAR U+1D65
ENCODING 7525
SWIDTH 500 0
DWIDTH 8 0
BBX 8 16 0 -3
BITMAP
00
00
00
00
00
00
00
00
00
44
6C
6C
38
38
10
00
ENDCHAR
STARTCHAR U+1D9C
ENCODING 7580
SWIDTH 500 0
DWIDTH 8 0
BBX 8 16 0 -3
BITMAP
00
00
38
6C
60
60
6C
38
00
00
00
00
00
00
00
00
ENDCHAR
STARTCHAR U+1DA0
ENCODING 7584
SWIDTH 500 0
DWIDTH 8 0
BBX 8 16 0 -3
BITMAP
00
00
38
30
78
30
30
30
00
00
00
00
00
00
00
00
ENDCHAR
STARTCHAR U+1DBB
ENCODING 7611
SWIDTH 500 0
DWIDTH 8 0
BBX 8 16 0 -3
BITMAP
00
00
7C
0C
18
30
60
7C
00
00
00
00
00
00
00
00
ENDCHAR
STARTCHAR U+1EBC
ENCODING 7868
SWIDTH 500 0
DWIDTH 8 0
BBX 8 16 0 -3
BITMAP
76
DC
00
FE
C0
C0
C0
FC
C0
C0
C0
C0
FE
00
00
00
ENDCHAR
STARTCHAR U+1EBD
ENCODING 7869
SWIDTH 500 0
DWIDTH 8 0
BBX 8 16 0 -3
BITMAP
00
00
76
DC
00
00
7C
C6
C6
FE
C0
C6
7C
00
00
00
ENDCHAR
STARTCHAR U+2013
ENCODING 8211
SWIDTH 500 0
DWIDTH 8 0
BBX 8 16 0 -3
BITMAP
00
00
00
00
00
00
00
00
00
3C
00
00
00
00
00
00
ENDCHAR
STARTCHAR U+2014
ENCODING 8212
SWIDTH 500 0
DWIDTH 8 0
BBX 8 16 0 -3
BITMAP
00
00
00
00
00
00
00
00
00
7E
00
00
00
00
00
00
ENDCHAR
STARTCHAR U+2018
ENCODING 8216
SWIDTH 500 0
DWIDTH 8 0
BBX 8 16 0 -3
BITMAP
00
00
08
10
18
18
00
00
00
00
00
00
00
00
00
00
ENDCHAR
STARTCHAR U+2019
ENCODING 8217
SWIDTH 500 0
DWIDTH 8 0
BBX 8 16 0 -3
BITMAP
00
00
18
18
08
10
00
00
00
00
00
00
00
00
00
00
ENDCHAR
STARTCHAR U+201C
ENCODING 8220
SWIDTH 500 0
DWIDTH 8 0
BBX 8 16 0 -3
BITMAP
00
00
12
24
36
36
00
00
00
00
00
00
00
00
00
00
ENDCHAR
STARTCHAR U+201D
ENCODING 8221
SWIDTH 500 0
DWIDTH 8 0
BBX 8 16 0 -3
BITMAP
00
00
6C
6C
24
48
00
00
00
00
00
00
00
00
00
00
ENDCHAR
STARTCHAR U+2022
ENCODING 8226
SWIDTH 500 0
DWIDTH 8 0
BBX 8 16 0 -3
BITMAP
00
00
00
00
00
00
00
18
3C
3C
18
00
00
00
00
00
ENDCHAR
STARTCHAR U+2024
ENCODING 8228
SWIDTH 500 0
DWIDTH 8 0
BBX 8 16 0 -3
BITMAP
00
00
00
00
00
00
00
00
00
00
00
00
10
00
00
00
ENDCHAR
STARTCHAR U+2026
ENCODING 8230
SWIDTH 500 0
DWIDTH 8 0
BBX 8 16 0 -3
BITMAP
00
00
00
00
00
00
00
00
00
00
00
DB
DB
00
00
00
ENDCHAR
STARTCHAR U+203D
ENCODING 8253
SWIDTH 500 0
DWIDTH 8 0
BBX 8 16 0 -3
BITMAP
00
00
00
7C
C6
36
3C
38
30
30
00
30
30
00
00
00
ENDCHAR
STARTCHAR U+2054
ENCODING 8276
SWIDTH 500 0
DWIDTH 8 0
BBX 8 16 0 -3
BITMAP
00
00
00
00
00
00
00
00
00
00
3C
42
81
00
00
00
ENDCHAR
STARTCHAR U+2070
ENCODING 8304
SWIDTH 500 0
DWIDTH 8 0
BBX 8 16 0 -3
BITMAP
00
00
38
6C
7C
7C
6C
38
00
00
00
00
00
00
00
00
ENDCHAR
STARTCHAR U+2071
ENCODING 8305
SWIDTH 500 0
DWIDTH 8 0
BBX 8 16 0 -3
BITMAP
00
00
38
18
18
18
18
1C
00
00
00
00
00
00
00
00
ENDCHAR
STARTCHAR U+2074
ENCODING 8308
SWIDTH 500 0
DWIDTH 8 0
BBX 8 16 0 -3
BITMAP
00
00
18
38
78
7C
18
18
00
00
00
00
00
00
00
00
ENDCHAR
STARTCHAR U+2075
ENCODING 8309
SWIDTH 500 0
DWIDTH 8 0
BBX 8 16 0 -3
BITMAP
00
00
7C
60
78
0C
6C
38
00
00
00
00
00
00
00
00
ENDCHAR
STARTCHAR U+2076
ENCODING 8310
SWIDTH 500 0
DWIDTH 8 0
BBX 8 16 0 -3
BITMAP
00
00
38
60
78
6C
6C
38
00
00
00
00
00
00
00
00
ENDCHAR
STARTCHAR U+2077
ENCODING 8311
SWIDTH 500 0
DWIDTH 8 0
BBX 8 16 0 -3
BITMAP
00
00
7C
6C
18
18
30
30
00
00
00
00
00
00
00
00
ENDCHAR
STARTCHAR U+2078
ENCODING 8312
SWIDTH 500 0
DWIDTH 8 0
BBX 8 16 0 -3
BITMAP
00
00
38
6C
38
6C
6C
38
00
00
00
00
00
00
00
00
ENDCHAR
STARTCHAR U+2079
ENCODING 8313
SWIDTH 500 0
DWIDTH 8 0
BBX 8 16 0 -3
BITMAP
00
00
38
6C
6C
3C
0C
38
00
00
00
00
00
00
00
00
ENDCHAR
STARTCHAR U+207A
ENCODING 8314
SWIDTH 500 0
DWIDTH 8 0
BBX 8 16 0 -3
BITMAP
00
00
18
18
7E
18
18
00
00
00
00
00
00
00
00
00
ENDCHAR
STARTCHAR U+207B
ENCODING 8315
SWIDTH 500 0
DWIDTH 8 0
BBX 8 16 0 -3
BITMAP
00
00
00
00
7E
00
00
00
00
00
00
00
00
00
00
00
ENDCHAR
STARTCHAR U+207C
ENCODING 8316
SWIDTH 500 0
DWIDTH 8 0
BBX 8 16 0 -3
BITMAP
00
00
00
7E
00
7E
00
00
00
00
00
00
00
00
00
00
ENDCHAR
STARTCHAR U+207D
ENCODING 8317
SWIDTH 500 0
DWIDTH 8 0
BBX 8 16 0 -3
BITMAP
00
00
1C
38
30
30
38
1C
00
00
00
00
00
00
00
00
ENDCHAR
STARTCHAR U+207E
ENCODING 8318
SWIDTH 500 0
DWIDTH 8 0
BBX 8 16 0 -3
BITMAP
00
00
38
1C
0C
0C
1C
38
00
00
00
00
00
00
00
00
ENDCHAR
STARTCHAR U+207F
ENCODING 8319
SWIDTH 500 0
DWIDTH 8 0
BBX 8 16 0 -3
BITMAP
00
00
78
7C
6C
6C
6C
00
00
00
00
00
00
00
00
00
ENDCHAR
STARTCHAR U+2080
ENCODING 8320
SWIDTH 500 0
DWIDTH 8 0
BBX 8 16 0 -3
BITMAP
00
00
00
00
00
00
00
00
00
38
6C
7C
7C
6C
38
00
ENDCHAR
STARTCHAR U+2081
ENCODING 8321
SWIDTH 500 0
DWIDTH 8 0
BBX 8 16 0 -3
BITMAP
00
00
00
00
00
00
00
00
00
18
38
18
18
18
3C
00
ENDCHAR
STARTCHAR U+2082
ENCODING 8322
SWIDTH 500 0
DWIDTH 8 0
BBX 8 16 0 -3
BITMAP
00
00
00
00
00
00
00
00
00
38
6C
18
30
60
7C
00
ENDCHAR
STARTCHAR U+2083
ENCODING 8323
SWIDTH 500 0
DWIDTH 8 0
BBX 8 16 0 -3
BITMAP
00
00
00
00
00
00
00
00
00
7C
18
38
0C
4C
38
00
ENDCHAR
STARTCHAR U+2084
ENCODING 8324
SWIDTH 500 0
DWIDTH 8 0
BBX 8 16 0 -3
BITMAP
00
00
00
00
00
00
00
00
00
18
38
78
7C
18
18
00
ENDCHAR
STARTCHAR U+2085
ENCODING 8325
SWIDTH 500 0
DWIDTH 8 0
BBX 8 16 0 -3
BITMAP
00
00
00
00
00
00
00
00
00
7C
60
78
0C
6C
38
00
ENDCHAR
STARTCHAR U+2086
ENCODING 8326
SWIDTH 500 0
DWIDTH 8 0
BBX 8 16 0 -3
BITMAP
00
00
00
00
00
00
00
00
00
38
60
78
6C
6C
38
00
ENDCHAR
STARTCHAR U+2087
ENCODING 8327
SWIDTH 500 0
DWIDTH 8 0
BBX 8 16 0 -3
BITMAP
00
00
00
00
00
00
00
00
00
7C
6C
18
18
30
30
00
ENDCHAR
STARTCHAR U+2088
ENCODING 8328
SWIDTH 500 0
DWIDTH 8 0
BBX 8 16 0 -3
BITMAP
00
00
00
00
00
00
00
00
00
38
6C
38
6C
6C
38
00
ENDCHAR
STARTCHAR U+2089
ENCODING 8329
SWIDTH 500 0
DWIDTH 8 0
BBX 8 16 0 -3
BITMAP
00
00
00
00
00
00
00
00
00
38
6C
6C
3C
0C
38
00
ENDCHAR
STARTCHAR U+208A
ENCODING 8330
SWIDTH 500 0
DWIDTH 8 0
BBX 8 16 0 -3
BITMAP
00
00
00
00
00
00
00
00
00
00
18
18
7E
18
18
00
ENDCHAR
STARTCHAR U+208B
ENCODING 8331
SWIDTH 500 0
DWIDTH 8 0
BBX 8 16 0 -3
BITMAP
00
00
00
00
00
00
00
00
00
00
00
00
7E
00
00
00
ENDCHAR
STARTCHAR U+208C
ENCODING 8332
SWIDTH 500 0
DWIDTH 8 0
BBX 8 16 0 -3
BITMAP
00
00
00
00
00
00
00
00
00
00
00
7E
00
7E
00
00
ENDCHAR
STARTCHAR U+208D
ENCODING 8333
SWIDTH 500 0
DWIDTH 8 0
BBX 8 16 0 -3
BITMAP
00
00
00
00
00
00
00
00
00
1C
38
30
30
38
1C
00
ENDCHAR
STARTCHAR U+208E
ENCODING 8334
SWIDTH 500 0
DWIDTH 8 0
BBX 8 16 0 -3
BITMAP
00
00
00
00
00
00
00
00
00
38
1C
0C
0C
1C
38
00
ENDCHAR
STARTCHAR U+2090
ENCODING 8336
SWIDTH 500 0
DWIDTH 8 0
BBX 8 16 0 -3
BITMAP
00
00
00
00
00
00
00
00
00
38
0C
3C
6C
6C
34
00
ENDCHAR
STARTCHAR U+2091
ENCODING 8337
SWIDTH 500 0
DWIDTH 8 0
BBX 8 16 0 -3
BITMAP
00
00
00
00
00
00
00
00
00
38
6C
7C
60
6C
38
00
ENDCHAR
STARTCHAR U+2092
ENCODING 8338
SWIDTH 500 0
DWIDTH 8 0
BBX 8 16 0 -3
BITMAP
00
00
00
00
00
00
00
00
00
38
6C
6C
6C
6C
38
00
ENDCHAR
STARTCHAR U+2093
ENCODING 8339
SWIDTH 500 0
DWIDTH 8 0
BBX 8 16 0 -3
BITMAP
00
00
00
00
00
00
00
00
00
6C
6C
38
38
6C
6C
00
ENDCHAR
STARTCHAR U+2095
ENCODING 8341
SWIDTH 500 0
DWIDTH 8 0
BBX 8 16 0 -3
BITMAP
00
00
00
00
00
00
00
00
00
6C
6C
7C
6C
6C
6C
00
ENDCHAR
STARTCHAR U+2096
ENCODING 8342
SWIDTH 500 0
DWIDTH 8 0
BBX 8 16 0 -3
BITMAP
00
00
00
00
00
00
00
00
00
6C
78
70
78
6C
6C
00
ENDCHAR
STARTCHAR U+2097
ENCODING 8343
SWIDTH 500 0
DWIDTH 8 0
BBX 8 16 0 -3
BITMAP
00
00
00
00
00
00
00
00
00
00
30
30
30
30
3C
00
ENDCHAR
STARTCHAR U+2098
ENCODING 8344
SWIDTH 500 0
DWIDTH 8 0
BBX 8 16 0 -3
BITMAP
00
00
00
00
00
00
00
00
00
74
6A
6A
6A
6A
6A
00
ENDCHAR
STARTCHAR U+2099
ENCODING 8345
SWIDTH 500 0
DWIDTH 8 0
BBX 8 16 0 -3
BITMAP
00
00
00
00
00
00
00
00
00
00
78
7C
6C
6C
6C
00
ENDCHAR
STARTCHAR U+209A
ENCODING 8346
SWIDTH 500 0
DWIDTH 8 0
BBX 8 16 0 -3
BITMAP
00
00
00
00
00
00
00
00
00
78
6C
6C
78
60
60
00
ENDCHAR
STARTCHAR U+209B
ENCODING 8347
SWIDTH 500 0
DWIDTH 8 0
BBX 8 16 0 -3
BITMAP
00
00
00
00
00
00
00
00
00
3C
60
38
0C
6C
38
00
ENDCHAR
STARTCHAR U+209C
ENCODING 8348
SWIDTH 500 0
DWIDTH 8 0
BBX 8 16 0 -3
BITMAP
00
00
00
00
00
00
00
00
00
7C
30
30
30
30
18
00
ENDCHAR
STARTCHAR U+20AC
ENCODING 8364
SWIDTH 500 0
DWIDTH 8 0
BBX 8 16 0 -3
BITMAP
00
00
00
00
3C
62
60
FC
60
FC
60
62
3C
00
00
00
ENDCHAR
STARTCHAR U+2102
ENCODING 8450
SWIDTH 500 0
DWIDTH 8 0
BBX 8 16 0 -3
BITMAP
00
00
00
7C
D2
D0
D0
D0
D0
D0
D0
D2
7C
00
00
00
ENDCHAR
STARTCHAR U+210D
ENCODING 8461
SWIDTH 500 0
DWIDTH 8 0
BBX 8 16 0 -3
BITMAP
00
00
00
F1
D1
D1
D1
DF
D1
D1
D1
D1
F1
00
00
00
ENDCHAR
STARTCHAR U+2115
ENCODING 8469
SWIDTH 500 0
DWIDTH 8 0
BBX 8 16 0 -3
BITMAP
00
00
00
C6
C6
E6
D6
CE
E6
D6
CE
C6
C6
00
00
00
ENDCHAR
STARTCHAR U+2118
ENCODING 8472
SWIDTH 500 0
DWIDTH 8 0
BBX 8 16 0 -3
BITMAP
00
00
00
00
00
30
60
6C
76
66
66
76
6C
60
E0
40
ENDCHAR
STARTCHAR U+2119
ENCODING 8473
SWIDTH 500 0
DWIDTH 8 0
BBX 8 16 0 -3
BITMAP
00
00
00
FC
D2
D2
D2
D2
DC
D0
D0
D0
F0
00
00
00
ENDCHAR
STARTCHAR U+211A
ENCODING 8474
SWIDTH 500 0
DWIDTH 8 0
BBX 8 16 0 -3
BITMAP
00
00
00
7C
D2
D2
D2
D2
D2
D2
EA
D4
7A
00
00
00
ENDCHAR
STARTCHAR U+211D
ENCODING 8477
SWIDTH 500 0
DWIDTH 8 0
BBX 8 16 0 -3
BITMAP
00
00
00
FC
D2
D2
D2
D2
DC
D4
D2
D2
F2
00
00
00
ENDCHAR
STARTCHAR U+2122
ENCODING 8482
SWIDTH 500 0
DWIDTH 8 0
BBX 8 16 0 -3
BITMAP
00
00
00
EA
4E
4A
4A
00
00
00
00
00
00
00
00
00
ENDCHAR
STARTCHAR U+2124
ENCODING 8484
SWIDTH 500 0
DWIDTH 8 0
BBX 8 16 0 -3
BITMAP
00
00
00
FE
1A
1A
34
34
68
68
D0
D0
FE
00
00
00
ENDCHAR
STARTCHAR U+2145
ENCODING 8517
SWIDTH 500 0
DWIDTH 8 0
BBX 8 16 0 -3
BITMAP
00
00
00
F8
D4
D2
D2
D2
D2
D2
D2
D4
F8
00
00
00
ENDCHAR
STARTCHAR U+2190
ENCODING 8592
SWIDTH 500 0
DWIDTH 8 0
BBX 8 16 0 -3
BITMAP
00
00
00
00
00
00
00
20
60
FE
60
20
00
00
00
00
ENDCHAR
STARTCHAR U+2191
ENCODING 8593
SWIDTH 500 0
DWIDTH 8 0
BBX 8 16 0 -3
BITMAP
00
00
00
00
00
00
10
38
7C
10
10
10
10
00
00
00
ENDCHAR
STARTCHAR U+2192
ENCODING 8594
SWIDTH 500 0
DWIDTH 8 0
BBX 8 16 0 -3
BITMAP
00
00
00
00
00
00
00
08
0C
FE
0C
08
00
00
00
00
ENDCHAR
STARTCHAR U+2193
ENCODING 8595
SWIDTH 500 0
DWIDTH 8 0
BBX 8 16 0 -3
BITMAP
00
00
00
00
00
00
10
10
10
10
7C
38
10
00
00
00
ENDCHAR
STARTCHAR U+2194
ENCODING 8596
SWIDTH 500 0
DWIDTH 8 0
BBX 8 16 0 -3
BITMAP
00
00
00
00
00
00
00
24
66
FF
66
24
00
00
00
00
ENDCHAR
STARTCHAR U+21A4
ENCODING 8612
SWIDTH 500 0
DWIDTH 8 0
BBX 8 16 0 -3
BITMAP
00
00
00
00
00
00
00
22
62
FE
62
22
00
00
00
00
ENDCHAR
STARTCHAR U+21A6
ENCODING 8614
SWIDTH 500 0
DWIDTH 8 0
BBX 8 16 0 -3
BITMAP
00
00
00
00
00
00
00
88
8C
FE
8C
88
00
00
00
00
ENDCHAR
STARTCHAR U+21D0
ENCODING 8656
SWIDTH 500 0
DWIDTH 8 0
BBX 8 16 0 -3
BITMAP
00
00
00
00
00
00
10
30
7F
C0
7F
30
10
00
00
00
ENDCHAR
STARTCHAR U+21D2
ENCODING 8658
SWIDTH 500 0
DWIDTH 8 0
BBX 8 16 0 -3
BITMAP
00
00
00
00
00
00
08
0C
FE
03
FE
0C
08
00
00
00
ENDCHAR
STARTCHAR U+2200
ENCODING 8704
SWIDTH 500 0
DWIDTH 8 0
BBX 8 16 0 -3
BITMAP
00
00
00
C6
C6
C6
6C
7C
6C
6C
38
38
38
00
00
00
ENDCHAR
STARTCHAR U+2202
ENCODING 8706
SWIDTH 500 0
DWIDTH 8 0
BBX 8 16 0 -3
BITMAP
00
00
00
1C
26
03
03
1B
37
63
63
36
1C
00
00
00
ENDCHAR
STARTCHAR U+2203
ENCODING 8707
SWIDTH 500 0
DWIDTH 8 0
BBX 8 16 0 -3
BITMAP
00
00
00
FE
06
06
06
7E
06
06
06
06
FE
00
00
00
ENDCHAR
STARTCHAR U+2204
ENCODING 8708
SWIDTH 500 0
DWIDTH 8 0
BBX 8 16 0 -3
BITMAP
00
00
04
FE
0E
0E
16
7E
16
16
26
26
FE
40
00
00
ENDCHAR
STARTCHAR U+2205
ENCODING 8709
SWIDTH 500 0
DWIDTH 8 0
BBX 8 16 0 -3
BITMAP
00
00
00
00
00
3D
42
C7
CB
D3
E3
42
BC
00
00
00
ENDCHAR
STARTCHAR U+2208
ENCODING 8712
SWIDTH 500 0
DWIDTH 8 0
BBX 8 16 0 -3
BITMAP
00
00
00
00
00
00
3E
60
60
7E
60
60
3E
00
00
00
ENDCHAR
STARTCHAR U+2209
ENCODING 8713
SWIDTH 500 0
DWIDTH 8 0
BBX 8 16 0 -3
BITMAP
00
00
00
00
00
02
3E
64
68
7E
70
60
3E
40
00
00
ENDCHAR
STARTCHAR U+220A
ENCODING 8714
SWIDTH 500 0
DWIDTH 8 0
BBX 8 16 0 -3
BITMAP
00
00
00
00
00
00
3E
60
60
7E
60
60
3E
00
00
00
ENDCHAR
STARTCHAR U+220B
ENCODING 8715
SWIDTH 500 0
DWIDTH 8 0
BBX 8 16 0 -3
BITMAP
00
00
00
00
00
00
7C
06
06
7E
06
06
7C
00
00
00
ENDCHAR
STARTCHAR U+220C
ENCODING 8716
SWIDTH 500 0
DWIDTH 8 0
BBX 8 16 0 -3
BITMAP
00
00
00
00
00
40
7C
26
16
7E
0E
06
7C
02
00
00
ENDCHAR
STARTCHAR U+220D
ENCODING 8717
SWIDTH 500 0
DWIDTH 8 0
BBX 8 16 0 -3
BITMAP
00
00
00
00
00
00
7C
06
06
7E
06
06
7C
00
00
00
ENDCHAR
STARTCHAR U+220E
ENCODING 8718
SWIDTH 500 0
DWIDTH 8 0
BBX 8 16 0 -3
BITMAP
00
00
00
00
00
00
7E
66
66
66
66
66
7E
00
00
00
ENDCHAR
STARTCHAR U+220F
ENCODING 8719
SWIDTH 500 0
DWIDTH 8 0
BBX 8 16 0 -3
BITMAP
00
00
FE
C6
C6
C6
C6
C6
C6
C6
C6
C6
C6
C6
00
00
ENDCHAR
STARTCHAR U+2210
ENCODING 8720
SWIDTH 500 0
DWIDTH 8 0
BBX 8 16 0 -3
BITMAP
00
00
C6
C6
C6
C6
C6
C6
C6
C6
C6
C6
C6
FE
00
00
ENDCHAR
STARTCHAR U+2211
ENCODING 8721
SWIDTH 500 0
DWIDTH 8 0
BBX 8 16 0 -3
BITMAP
00
00
FE
C2
60
30
18
0C
18
30
60
C0
C2
FE
00
00
ENDCHAR
STARTCHAR U+2212
ENCODING 8722
SWIDTH 500 0
DWIDTH 8 0
BBX 8 16 0 -3
BITMAP
00
00
00
00
00
00
00
00
00
7E
00
00
00
00
00
00
ENDCHAR
STARTCHAR U+2213
ENCODING 8723
SWIDTH 500 0
DWIDTH 8 0
BBX 8 16 0 -3
BITMAP
00
00
00
00
00
00
7E
00
18
18
7E
18
18
00
00
00
ENDCHAR
STARTCHAR U+2215
ENCODING 8725
SWIDTH 500 0
DWIDTH 8 0
BBX 8 16 0 -3
BITMAP
00
00
06
06
0C
0C
18
18
30
30
60
60
C0
C0
00
00
ENDCHAR
STARTCHAR U+2216
ENCODING 8726
SWIDTH 500 0
DWIDTH 8 0
BBX 8 16 0 -3
BITMAP
00
00
C0
C0
60
60
30
30
18
18
0C
0C
06
06
00
00
ENDCHAR
STARTCHAR U+2217
ENCODING 8727
SWIDTH 500 0
DWIDTH 8 0
BBX 8 16 0 -3
BITMAP
00
00
00
00
00
00
24
18
7E
18
24
00
00
00
00
00
ENDCHAR
STARTCHAR U+2218
ENCODING 8728
SWIDTH 500 0
DWIDTH 8 0
BBX 8 16 0 -3
BITMAP
00
00
00
00
00
00
1C
22
22
22
1C
00
00
00
00
00
ENDCHAR
STARTCHAR U+2219
ENCODING 8729
SWIDTH 500 0
DWIDTH 8 0
BBX 8 16 0 -3
BITMAP
00
00
00
00
00
00
1C
3E
3E
3E
1C
00
00
00
00
00
ENDCHAR
STARTCHAR U+221A
ENCODING 8730
SWIDTH 500 0
DWIDTH 8 0
BBX 8 16 0 -3
BITMAP
00
00
00
01
01
01
02
02
E2
24
14
14
08
00
00
00
ENDCHAR
STARTCHAR U+221B
ENCODING 8731
SWIDTH 500 0
DWIDTH 8 0
BBX 8 16 0 -3
BITMAP
00
60
90
21
11
91
62
02
E2
24
14
14
08
00
00
00
ENDCHAR
STARTCHAR U+221C
ENCODING 8732
SWIDTH 500 0
DWIDTH 8 0
BBX 8 16 0 -3
BITMAP
00
20
60
A1
F1
21
22
02
E2
24
14
14
08
00
00
00
ENDCHAR
STARTCHAR U+221D
ENCODING 8733
SWIDTH 500 0
DWIDTH 8 0
BBX 8 16 0 -3
BITMAP
00
00
00
00
00
00
6E
B9
98
98
98
DD
76
00
00
00
ENDCHAR
STARTCHAR U+221E
ENCODING 8734
SWIDTH 500 0
DWIDTH 8 0
BBX 8 16 0 -3
BITMAP
00
00
00
00
00
00
6E
BB
99
99
99
DD
76
00
00
00
ENDCHAR
STARTCHAR U+2227
ENCODING 8743
SWIDTH 500 0
DWIDTH 8 0
BBX 8 16 0 -3
BITMAP
00
00
00
00
00
00
38
38
6C
6C
C6
C6
00
00
00
00
ENDCHAR
STARTCHAR U+2228
ENCODING 8744
SWIDTH 500 0
DWIDTH 8 0
BBX 8 16 0 -3
BITMAP
00
00
00
00
00
00
C6
C6
6C
6C
38
38
00
00
00
00
ENDCHAR
STARTCHAR U+2229
ENCODING 8745
SWIDTH 500 0
DWIDTH 8 0
BBX 8 16 0 -3
BITMAP
00
00
00
00
00
00
38
6C
C6
C6
C6
C6
00
00
00
00
ENDCHAR
STARTCHAR U+222A
ENCODING 8746
SWIDTH 500 0
DWIDTH 8 0
BBX 8 16 0 -3
BITMAP
00
00
00
00
00
00
C6
C6
C6
C6
6C
38
00
00
00
00
ENDCHAR
STARTCHAR U+222B
ENCODING 8747
SWIDTH 500 0
DWIDTH 8 0
BBX 8 16 0 -3
BITMAP
00
00
0C
1A
18
18
18
18
18
18
18
18
18
18
58
30
ENDCHAR
STARTCHAR U+2234
ENCODING 8756
SWIDTH 500 0
DWIDTH 8 0
BBX 8 16 0 -3
BITMAP
00
00
00
00
00
00
00
18
18
00
00
66
66
00
00
00
ENDCHAR
STARTCHAR U+2235
ENCODING 8757
SWIDTH 500 0
DWIDTH 8 0
BBX 8 16 0 -3
BITMAP
00
00
00
00
00
00
00
66
66
00
00
18
18
00
00
00
ENDCHAR
STARTCHAR U+2248
ENCODING 8776
SWIDTH 500 0
DWIDTH 8 0
BBX 8 16 0 -3
BITMAP
00
00
00
00
00
00
60
F2
9E
6C
F2
9E
0C
00
00
00
ENDCHAR
STARTCHAR U+2254
ENCODING 8788
SWIDTH 500 0
DWIDTH 8 0
BBX 8 16 0 -3
BITMAP
00
00
00
00
00
00
C0
DE
00
00
DE
C0
00
00
00
00
ENDCHAR
STARTCHAR U+2255
ENCODING 8789
SWIDTH 500 0
DWIDTH 8 0
BBX 8 16 0 -3
BITMAP
00
00
00
00
00
00
06
F6
00
00
F6
06
00
00
00
00
ENDCHAR
STARTCHAR U+2260
ENCODING 8800
SWIDTH 500 0
DWIDTH 8 0
BBX 8 16 0 -3
BITMAP
00
00
00
00
00
00
0C
FE
18
30
FE
60
00
00
00
00
ENDCHAR
STARTCHAR U+2261
ENCODING 8801
SWIDTH 500 0
DWIDTH 8 0
BBX 8 16 0 -3
BITMAP
00
00
00
00
00
00
00
FE
00
FE
00
FE
00
00
00
00
ENDCHAR
STARTCHAR U+2262
ENCODING 8802
SWIDTH 500 0
DWIDTH 8 0
BBX 8 16 0 -3
BITMAP
00
00
00
00
00
00
0C
FE
18
FE
30
FE
60
00
00
00
ENDCHAR
STARTCHAR U+2264
ENCODING 8804
SWIDTH 500 0
DWIDTH 8 0
BBX 8 16 0 -3
BITMAP
00
00
00
00
00
00
06
1E
78
E0
78
1E
06
00
FE
00
ENDCHAR
STARTCHAR U+2265
ENCODING 8805
SWIDTH 500 0
DWIDTH 8 0
BBX 8 16 0 -3
BITMAP
00
00
00
00
00
00
60
78
1E
07
1E
78
60
00
7F
00
ENDCHAR
STARTCHAR U+2282
ENCODING 8834
SWIDTH 500 0
DWIDTH 8 0
BBX 8 16 0 -3
BITMAP
00
00
00
00
00
00
00
3E
60
C0
60
3E
00
00
00
00
ENDCHAR
STARTCHAR U+2283
ENCODING 8835
SWIDTH 500 0
DWIDTH 8 0
BBX 8 16 0 -3
BITMAP
00
00
00
00
00
00
00
F8
0C
06
0C
F8
00
00
00
00
ENDCHAR
STARTCHAR U+2284
ENCODING 8836
SWIDTH 500 0
DWIDTH 8 0
BBX 8 16 0 -3
BITMAP
00
00
00
00
00
00
02
3E
64
C8
70
3E
20
00
00
00
ENDCHAR
STARTCHAR U+2285
ENCODING 8837
SWIDTH 500 0
DWIDTH 8 0
BBX 8 16 0 -3
BITMAP
00
00
00
00
00
00
80
F8
4C
26
1C
F8
08
00
00
00
ENDCHAR
STARTCHAR U+2286
ENCODING 8838
SWIDTH 500 0
DWIDTH 8 0
BBX 8 16 0 -3
BITMAP
00
00
00
00
00
00
00
3E
60
C0
60
3E
00
FE
00
00
ENDCHAR
STARTCHAR U+2287
ENCODING 8839
SWIDTH 500 0
DWIDTH 8 0
BBX 8 16 0 -3
BITMAP
00
00
00
00
00
00
00
F8
0C
06
0C
F8
00
FE
00
00
ENDCHAR
STARTCHAR U+2288
ENCODING 8840
SWIDTH 500 0
DWIDTH 8 0
BBX 8 16 0 -3
BITMAP
00
00
00
00
00
00
02
3E
64
C8
70
3E
20
FE
40
00
ENDCHAR
STARTCHAR U+2289
ENCODING 8841
SWIDTH 500 0
DWIDTH 8 0
BBX 8 16 0 -3
BITMAP
00
00
00
00
00
00
80
F8
4C
26
1C
F8
08
FE
04
00
ENDCHAR
STARTCHAR U+228A
ENCODING 8842
SWIDTH 500 0
DWIDTH 8 0
BBX 8 16 0 -3
BITMAP
00
00
00
00
00
00
00
3E
60
C0
60
3E
10
FE
20
00
ENDCHAR
STARTCHAR U+228B
ENCODING 8843
SWIDTH 500 0
DWIDTH 8 0
BBX 8 16 0 -3
BITMAP
00
00
00
00
00
00
00
F8
0C
06
0C
F8
10
FE
08
00
ENDCHAR
STARTCHAR U+2295
ENCODING 8853
SWIDTH 500 0
DWIDTH 8 0
BBX 8 16 0 -3
BITMAP
00
00
00
00
00
00
38
54
92
FE
92
54
38
00
00
00
ENDCHAR
STARTCHAR U+2296
ENCODING 8854
SWIDTH 500 0
DWIDTH 8 0
BBX 8 16 0 -3
BITMAP
00
00
00
00
00
00
38
44
82
FE
82
44
38
00
00
00
ENDCHAR
STARTCHAR U+2297
ENCODING 8855
SWIDTH 500 0
DWIDTH 8 0
BBX 8 16 0 -3
BITMAP
00
00
00
00
00
00
38
44
AA
92
AA
44
38
00
00
00
ENDCHAR
STARTCHAR U+2298
ENCODING 8856
SWIDTH 500 0
DWIDTH 8 0
BBX 8 16 0 -3
BITMAP
00
00
00
00
00
00
38
44
8A
92
A2
44
38
00
00
00
ENDCHAR
STARTCHAR U+2299
ENCODING 8857
SWIDTH 500 0
DWIDTH 8 0
BBX 8 16 0 -3
BITMAP
00
00
00
00
00
00
38
44
82
92
82
44
38
00
00
00
ENDCHAR
STARTCHAR U+22A3
ENCODING 8867
SWIDTH 500 0
DWIDTH 8 0
BBX 8 16 0 -3
BITMAP
00
00
00
00
00
00
06
06
06
7E
06
06
06
00
00
00
ENDCHAR
STARTCHAR U+22A4
ENCODING 8868
SWIDTH 500 0
DWIDTH 8 0
BBX 8 16 0 -3
BITMAP
00
00
00
00
00
00
7E
18
18
18
18
18
18
00
00
00
ENDCHAR
STARTCHAR U+22A5
ENCODING 8869
SWIDTH 500 0
DWIDTH 8 0
BBX 8 16 0 -3
BITMAP
00
00
00
00
00
00
18
18
18
18
18
18
FF
00
00
00
ENDCHAR
STARTCHAR U+22A6
ENCODING 8870
SWIDTH 500 0
DWIDTH 8 0
BBX 8 16 0 -3
BITMAP
00
00
00
00
00
00
60
60
60
7E
60
60
60
00
00
00
ENDCHAR
STARTCHAR U+22A7
ENCODING 8871
SWIDTH 500 0
DWIDTH 8 0
BBX 8 16 0 -3
BITMAP
00
00
00
00
00
00
60
60
7E
60
7E
60
60
00
00
00
ENDCHAR
STARTCHAR U+22A8
ENCODING 8872
SWIDTH 500 0
DWIDTH 8 0
BBX 8 16 0 -3
BITMAP
00
00
00
00
00
00
C0
C0
FF
C0
FF
C0
C0
00
00
00
ENDCHAR
STARTCHAR U+22A9
ENCODING 8873
SWIDTH 500 0
DWIDTH 8 0
BBX 8 16 0 -3
BITMAP
00
00
00
00
00
00
D8
D8
DF
D8
DF
D8
D8
00
00
00
ENDCHAR
STARTCHAR U+22C0
ENCODING 8896
SWIDTH 500 0
DWIDTH 8 0
BBX 8 16 0 -3
BITMAP
00
00
C6
C6
C6
C6
6C
6C
6C
6C
38
38
38
38
00
00
ENDCHAR
STARTCHAR U+22C1
ENCODING 8897
SWIDTH 500 0
DWIDTH 8 0
BBX 8 16 0 -3
BITMAP
00
00
38
38
38
38
6C
6C
6C
6C
C6
C6
C6
C6
00
00
ENDCHAR
STARTCHAR U+22C2
ENCODING 8898
SWIDTH 500 0
DWIDTH 8 0
BBX 8 16 0 -3
BITMAP
00
00
38
44
C6
C6
C6
C6
C6
C6
C6
C6
C6
C6
00
00
ENDCHAR
STARTCHAR U+22C3
ENCODING 8899
SWIDTH 500 0
DWIDTH 8 0
BBX 8 16 0 -3
BITMAP
00
00
C6
C6
C6
C6
C6
C6
C6
C6
C6
C6
44
38
00
00
ENDCHAR
STARTCHAR U+22C4
ENCODING 8900
SWIDTH 500 0
DWIDTH 8 0
BBX 8 16 0 -3
BITMAP
00
00
00
00
00
00
10
38
6C
C6
6C
38
10
00
00
00
ENDCHAR
STARTCHAR U+22EE
ENCODING 8942
SWIDTH 500 0
DWIDTH 8 0
BBX 8 16 0 -3
BITMAP
00
00
00
00
18
18
00
00
18
18
00
00
18
18
00
00
ENDCHAR
STARTCHAR U+22EF
ENCODING 8943
SWIDTH 500 0
DWIDTH 8 0
BBX 8 16 0 -3
BITMAP
00
00
00
00
00
00
00
00
DB
DB
00
00
00
00
00
00
ENDCHAR
STARTCHAR U+22F0
ENCODING 8944
SWIDTH 500 0
DWIDTH 8 0
BBX 8 16 0 -3
BITMAP
00
00
00
00
06
06
00
00
18
18
00
00
60
60
00
00
ENDCHAR
STARTCHAR U+22F1
ENCODING 8945
SWIDTH 500 0
DWIDTH 8 0
BBX 8 16 0 -3
BITMAP
00
00
00
00
60
60
00
00
18
18
00
00
06
06
00
00
ENDCHAR
STARTCHAR U+2302
ENCODING 8962
SWIDTH 500 0
DWIDTH 8 0
BBX 8 16 0 -3
BITMAP
00
00
00
00
18
3C
66
C3
C3
C3
C3
C3
FF
00
00
00
ENDCHAR
STARTCHAR U+2308
ENCODING 8968
SWIDTH 500 0
DWIDTH 8 0
BBX 8 16 0 -3
BITMAP
00
00
1E
18
18
18
18
18
18
18
18
18
18
18
00
00
ENDCHAR
STARTCHAR U+2309
ENCODING 8969
SWIDTH 500 0
DWIDTH 8 0
BBX 8 16 0 -3
BITMAP
00
00
78
18
18
18
18
18
18
18
18
18
18
18
00
00
ENDCHAR
STARTCHAR U+230A
ENCODING 8970
SWIDTH 500 0
DWIDTH 8 0
BBX 8 16 0 -3
BITMAP
00
00
18
18
18
18
18
18
18
18
18
18
18
1E
00
00
ENDCHAR
STARTCHAR U+230B
ENCODING 8971
SWIDTH 500 0
DWIDTH 8 0
BBX 8 16 0 -3
BITMAP
00
00
18
18
18
18
18
18
18
18
18
18
18
78
00
00
ENDCHAR
STARTCHAR U+2318
ENCODING 8984
SWIDTH 500 0
DWIDTH 8 0
BBX 8 16 0 -3
BITMAP
00
00
00
00
00
42
A5
7E
24
24
7E
A5
42
00
00
00
ENDCHAR
STARTCHAR U+2320
ENCODING 8992
SWIDTH 500 0
DWIDTH 8 0
BBX 8 16 0 -3
BITMAP
00
00
0C
1E
18
18
18
18
18
18
18
18
18
18
18
18
ENDCHAR
STARTCHAR U+2321
ENCODING 8993
SWIDTH 500 0
DWIDTH 8 0
BBX 8 16 0 -3
BITMAP
18
18
18
18
18
18
18
18
18
18
18
18
18
78
30
00
ENDCHAR
STARTCHAR U+2324
ENCODING 8996
SWIDTH 500 0
DWIDTH 8 0
BBX 8 16 0 -3
BITMAP
00
00
00
00
00
00
DB
24
42
00
00
00
00
00
00
00
ENDCHAR
STARTCHAR U+2325
ENCODING 8997
SWIDTH 500 0
DWIDTH 8 0
BBX 8 16 0 -3
BITMAP
00
00
00
00
00
00
00
EF
30
18
0F
00
00
00
00
00
ENDCHAR
STARTCHAR U+2326
ENCODING 8998
SWIDTH 500 0
DWIDTH 8 0
BBX 8 16 0 -3
BITMAP
00
00
00
00
00
00
00
FC
AA
91
AA
FC
00
00
00
00
ENDCHAR
STARTCHAR U+2327
ENCODING 8999
SWIDTH 500 0
DWIDTH 8 0
BBX 8 16 0 -3
BITMAP
00
00
00
00
00
00
00
FF
A5
99
99
A5
FF
00
00
00
ENDCHAR
STARTCHAR U+2328
ENCODING 9000
SWIDTH 500 0
DWIDTH 8 0
BBX 8 16 0 -3
BITMAP
00
00
00
00
00
00
00
FF
AB
D5
AB
D5
FF
00
00
00
ENDCHAR
STARTCHAR U+2329
ENCODING 9001
SWIDTH 500 0
DWIDTH 8 0
BBX 8 16 0 -3
BITMAP
00
06
06
0C
0C
18
18
30
30
18
18
0C
0C
06
06
00
ENDCHAR
STARTCHAR U+232A
ENCODING 9002
SWIDTH 500 0
DWIDTH 8 0
BBX 8 16 0 -3
BITMAP
00
60
60
30
30
18
18
0C
0C
18
18
30
30
60
60
00
ENDCHAR
STARTCHAR U+232B
ENCODING 9003
SWIDTH 500 0
DWIDTH 8 0
BBX 8 16 0 -3
BITMAP
00
00
00
00
00
00
00
3F
55
89
55
3F
00
00
00
00
ENDCHAR
STARTCHAR U+232C
ENCODING 9004
SWIDTH 500 0
DWIDTH 8 0
BBX 8 16 0 -3
BITMAP
00
00
00
18
24
4A
85
A1
A1
85
4A
24
18
00
00
00
ENDCHAR
STARTCHAR U+2380
ENCODING 9088
SWIDTH 500 0
DWIDTH 8 0
BBX 8 16 0 -3
BITMAP
00
00
00
00
00
00
00
18
04
1C
24
2C
95
42
24
18
ENDCHAR
STARTCHAR U+2381
ENCODING 9089
SWIDTH 500 0
DWIDTH 8 0
BBX 8 16 0 -3
BITMAP
00
00
00
00
00
00
00
60
10
70
90
B0
57
00
FF
00
ENDCHAR
STARTCHAR U+2382
ENCODING 9090
SWIDTH 500 0
DWIDTH 8 0
BBX 8 16 0 -3
BITMAP
00
00
00
00
00
00
00
66
11
77
99
BB
55
00
E7
00
ENDCHAR
STARTCHAR U+2383
ENCODING 9091
SWIDTH 500 0
DWIDTH 8 0
BBX 8 16 0 -3
BITMAP
00
00
00
00
00
00
00
18
85
1C
A5
2C
95
00
00
00
ENDCHAR
STARTCHAR U+2384
ENCODING 9092
SWIDTH 500 0
DWIDTH 8 0
BBX 8 16 0 -3
BITMAP
00
00
00
00
00
00
00
FF
89
91
91
89
FF
00
00
00
ENDCHAR
STARTCHAR U+2387
ENCODING 9095
SWIDTH 500 0
DWIDTH 8 0
BBX 8 16 0 -3
BITMAP
00
00
00
00
00
00
02
0F
1A
30
EF
00
00
00
00
00
ENDCHAR
STARTCHAR U+2388
ENCODING 9096
SWIDTH 500 0
DWIDTH 8 0
BBX 8 16 0 -3
BITMAP
00
00
00
00
08
5D
2A
5D
FF
5D
2A
5D
08
00
00
00
ENDCHAR
STARTCHAR U+239B
ENCODING 9115
SWIDTH 500 0
DWIDTH 8 0
BBX 8 16 0 -3
BITMAP
00
00
0E
18
30
30
60
60
60
60
60
60
60
60
60
60
ENDCHAR
STARTCHAR U+239C
ENCODING 9116
SWIDTH 500 0
DWIDTH 8 0
BBX 8 16 0 -3
BITMAP
60
60
60
60
60
60
60
60
60
60
60
60
60
60
60
60
ENDCHAR
STARTCHAR U+239D
ENCODING 9117
SWIDTH 500 0
DWIDTH 8 0
BBX 8 16 0 -3
BITMAP
60
60
60
60
60
60
60
60
60
60
30
30
18
0E
00
00
ENDCHAR
STARTCHAR U+239E
ENCODING 9118
SWIDTH 500 0
DWIDTH 8 0
BBX 8 16 0 -3
BITMAP
00
00
70
18
0C
0C
06
06
06
06
06
06
06
06
06
06
ENDCHAR
STARTCHAR U+239F
ENCODING 9119
SWIDTH 500 0
DWIDTH 8 0
BBX 8 16 0 -3
BITMAP
06
06
06
06
06
06
06
06
06
06
06
06
06
06
06
06
ENDCHAR
STARTCHAR U+23A0
ENCODING 9120
SWIDTH 500 0
DWIDTH 8 0
BBX 8 16 0 -3
BITMAP
06
06
06
06
06
06
06
06
06
06
0C
0C
18
70
00
00
ENDCHAR
STARTCHAR U+23A1
ENCODING 9121
SWIDTH 500 0
DWIDTH 8 0
BBX 8 16 0 -3
BITMAP
00
00
3E
30
30
30
30
30
30
30
30
30
30
30
30
30
ENDCHAR
STARTCHAR U+23A2
ENCODING 9122
SWIDTH 500 0
DWIDTH 8 0
BBX 8 16 0 -3
BITMAP
30
30
30
30
30
30
30
30
30
30
30
30
30
30
30
30
ENDCHAR
STARTCHAR U+23A3
ENCODING 9123
SWIDTH 500 0
DWIDTH 8 0
BBX 8 16 0 -3
BITMAP
30
30
30
30
30
30
30
30
30
30
30
30
30
3E
00
00
ENDCHAR
STARTCHAR U+23A4
ENCODING 9124
SWIDTH 500 0
DWIDTH 8 0
BBX 8 16 0 -3
BITMAP
00
00
7C
0C
0C
0C
0C
0C
0C
0C
0C
0C
0C
0C
0C
0C
ENDCHAR
STARTCHAR U+23A5
ENCODING 9125
SWIDTH 500 0
DWIDTH 8 0
BBX 8 16 0 -3
BITMAP
0C
0C
0C
0C
0C
0C
0C
0C
0C
0C
0C
0C
0C
0C
0C
0C
ENDCHAR
STARTCHAR U+23A6
ENCODING 9126
SWIDTH 500 0
DWIDTH 8 0
BBX 8 16 0 -3
BITMAP
0C
0C
0C
0C
0C
0C
0C
0C
0C
0C
0C
0C
0C
7C
00
00
ENDCHAR
STARTCHAR U+23A7
ENCODING 9127
SWIDTH 500 0
DWIDTH 8 0
BBX 8 16 0 -3
BITMAP
00
00
0E
18
18
18
18
18
18
18
18
18
18
18
18
18
ENDCHAR
STARTCHAR U+23A8
ENCODING 9128
SWIDTH 500 0
DWIDTH 8 0
BBX 8 16 0 -3
BITMAP
18
18
18
18
18
18
18
70
70
18
18
18
18
18
18
18
ENDCHAR
STARTCHAR U+23A9
ENCODING 9129
SWIDTH 500 0
DWIDTH 8 0
BBX 8 16 0 -3
BITMAP
18
18
18
18
18
18
18
18
18
18
18
18
18
0E
00
00
ENDCHAR
STARTCHAR U+23AA
ENCODING 9130
SWIDTH 500 0
DWIDTH 8 0
BBX 8 16 0 -3
BITMAP
18
18
18
18
18
18
18
18
18
18
18
18
18
18
18
18
ENDCHAR
STARTCHAR U+23AB
ENCODING 9131
SWIDTH 500 0
DWIDTH 8 0
BBX 8 16 0 -3
BITMAP
00
00
70
18
18
18
18
18
18
18
18
18
18
18
18
18
ENDCHAR
STARTCHAR U+23AC
ENCODING 9132
SWIDTH 500 0
DWIDTH 8 0
BBX 8 16 0 -3
BITMAP
18
18
18
18
18
18
18
0E
0E
18
18
18
18
18
18
18
ENDCHAR
STARTCHAR U+23AD
ENCODING 9133
SWIDTH 500 0
DWIDTH 8 0
BBX 8 16 0 -3
BITMAP
18
18
18
18
18
18
18
18
18
18
18
18
18
70
00
00
ENDCHAR
STARTCHAR U+23AE
ENCODING 9134
SWIDTH 500 0
DWIDTH 8 0
BBX 8 16 0 -3
BITMAP
18
18
18
18
18
18
18
18
18
18
18
18
18
18
18
18
ENDCHAR
STARTCHAR U+23B0
ENCODING 9136
SWIDTH 500 0
DWIDTH 8 0
BBX 8 16 0 -3
BITMAP
00
00
0E
18
18
18
18
18
18
18
18
18
18
18
18
18
ENDCHAR
STARTCHAR U+23B1
ENCODING 9137
SWIDTH 500 0
DWIDTH 8 0
BBX 8 16 0 -3
BITMAP
00
00
70
18
18
18
18
18
18
18
18
18
18
18
18
18
ENDCHAR
STARTCHAR U+23B2
ENCODING 9138
SWIDTH 500 0
DWIDTH 8 0
BBX 8 16 0 -3
BITMAP
00
00
00
FE
C2
C0
60
60
60
30
30
30
18
18
18
0C
ENDCHAR
STARTCHAR U+23B3
ENCODING 9139
SWIDTH 500 0
DWIDTH 8 0
BBX 8 16 0 -3
BITMAP
0C
0C
18
18
18
30
30
30
60
60
60
C0
C2
FE
00
00
ENDCHAR
STARTCHAR U+23E3
ENCODING 9187
SWIDTH 500 0
DWIDTH 8 0
BBX 8 16 0 -3
BITMAP
00
00
00
18
24
42
99
A5
A5
99
42
24
18
00
00
00
ENDCHAR
STARTCHAR U+2400
ENCODING 9216
SWIDTH 500 0
DWIDTH 8 0
BBX 8 16 0 -3
BITMAP
00
00
C8
E8
D8
C8
64
64
64
64
38
18
18
18
18
1F
ENDCHAR
STARTCHAR U+240A
ENCODING 9226
SWIDTH 500 0
DWIDTH 8 0
BBX 8 16 0 -3
BITMAP
00
00
60
60
60
60
60
78
00
1E
18
1E
18
18
18
00
ENDCHAR
STARTCHAR U+2421
ENCODING 9249
SWIDTH 500 0
DWIDTH 8 0
BBX 8 16 0 -3
BITMAP
00
E0
D0
D0
D0
D0
E0
3C
30
38
30
3C
0C
0C
0C
0C
ENDCHAR
STARTCHAR U+2422
ENCODING 9250
SWIDTH 500 0
DWIDTH 8 0
BBX 8 16 0 -3
BITMAP
00
00
00
34
38
70
B6
3B
33
33
33
3B
36
00
00
00
ENDCHAR
STARTCHAR U+2423
ENCODING 9251
SWIDTH 500 0
DWIDTH 8 0
BBX 8 16 0 -3
BITMAP
00
00
00
00
00
00
00
00
00
00
00
C6
C6
C6
FE
00
ENDCHAR
STARTCHAR U+2424
ENCODING 9252
SWIDTH 500 0
DWIDTH 8 0
BBX 8 16 0 -3
BITMAP
00
00
66
76
76
6E
6E
66
66
30
30
30
30
30
30
3E
ENDCHAR
STARTCHAR U+2500
ENCODING 9472
SWIDTH 500 0
DWIDTH 8 0
BBX 8 16 0 -3
BITMAP
00
00
00
00
00
00
00
00
FF
00
00
00
00
00
00
00
ENDCHAR
STARTCHAR U+2501
ENCODING 9473
SWIDTH 500 0
DWIDTH 8 0
BBX 8 16 0 -3
BITMAP
00
00
00
00
00
00
00
FF
FF
00
00
00
00
00
00
00
ENDCHAR
STARTCHAR U+2502
ENCODING 9474
SWIDTH 500 0
DWIDTH 8 0
BBX 8 16 0 -3
BITMAP
08
08
08
08
08
08
08
08
08
08
08
08
08
08
08
08
ENDCHAR
STARTCHAR U+2503
ENCODING 9475
SWIDTH 500 0
DWIDTH 8 0
BBX 8 16 0 -3
BITMAP
18
18
18
18
18
18
18
18
18
18
18
18
18
18
18
18
ENDCHAR
STARTCHAR U+2504
ENCODING 9476
SWIDTH 500 0
DWIDTH 8 0
BBX 8 16 0 -3
BITMAP
00
00
00
00
00
00
00
00
77
00
00
00
00
00
00
00
ENDCHAR
STARTCHAR U+2505
ENCODING 9477
SWIDTH 500 0
DWIDTH 8 0
BBX 8 16 0 -3
BITMAP
00
00
00
00
00
00
00
77
77
00
00
00
00
00
00
00
ENDCHAR
STARTCHAR U+2506
ENCODING 9478
SWIDTH 500 0
DWIDTH 8 0
BBX 8 16 0 -3
BITMAP
00
08
08
08
00
08
08
08
00
08
08
08
00
08
08
08
ENDCHAR
STARTCHAR U+2507
ENCODING 9479
SWIDTH 500 0
DWIDTH 8 0
BBX 8 16 0 -3
BITMAP
00
18
18
18
00
18
18
18
00
18
18
18
00
18
18
18
ENDCHAR
STARTCHAR U+2508
ENCODING 9480
SWIDTH 500 0
DWIDTH 8 0
BBX 8 16 0 -3
BITMAP
00
00
00
00
00
00
00
00
55
00
00
00
00
00
00
00
ENDCHAR
STARTCHAR U+2509
ENCODING 9481
SWIDTH 500 0
DWIDTH 8 0
BBX 8 16 0 -3
BITMAP
00
00
00
00
00
00
00
55
55
00
00
00
00
00
00
00
ENDCHAR
STARTCHAR U+250A
ENCODING 9482
SWIDTH 500 0
DWIDTH 8 0
BBX 8 16 0 -3
BITMAP
00
08
00
08
00
08
00
08
00
08
00
08
00
08
00
08
ENDCHAR
STARTCHAR U+250B
ENCODING 9483
SWIDTH 500 0
DWIDTH 8 0
BBX 8 16 0 -3
BITMAP
00
18
00
18
00
18
00
18
00
18
00
18
00
18
00
18
ENDCHAR
STARTCHAR U+250C
ENCODING 9484
SWIDTH 500 0
DWIDTH 8 0
BBX 8 16 0 -3
BITMAP
00
00
00
00
00
00
00
00
0F
08
08
08
08
08
08
08
ENDCHAR
STARTCHAR U+250D
ENCODING 9485
SWIDTH 500 0
DWIDTH 8 0
BBX 8 16 0 -3
BITMAP
00
00
00
00
00
00
00
0F
0F
08
08
08
08
08
08
08
ENDCHAR
STARTCHAR U+250E
ENCODING 9486
SWIDTH 500 0
DWIDTH 8 0
BBX 8 16 0 -3
BITMAP
00
00
00
00
00
00
00
00
1F
18
18
18
18
18
18
18
ENDCHAR
STARTCHAR U+250F
ENCODING 9487
SWIDTH 500 0
DWIDTH 8 0
BBX 8 16 0 -3
BITMAP
00
00
00
00
00
00
00
1F
1F
18
18
18
18
18
18
18
ENDCHAR
STARTCHAR U+2510
ENCODING 9488
SWIDTH 500 0
DWIDTH 8 0
BBX 8 16 0 -3
BITMAP
00
00
00
00
00
00
00
00
F8
08
08
08
08
08
08
08
ENDCHAR
STARTCHAR U+2511
ENCODING 9489
SWIDTH 500 0
DWIDTH 8 0
BBX 8 16 0 -3
BITMAP
00
00
00
00
00
00
00
F8
F8
08
08
08
08
08
08
08
ENDCHAR
STARTCHAR U+2512
ENCODING 9490
SWIDTH 500 0
DWIDTH 8 0
BBX 8 16 0 -3
BITMAP
00
00
00
00
00
00
00
00
F8
18
18
18
18
18
18
18
ENDCHAR
STARTCHAR U+2513
ENCODING 9491
SWIDTH 500 0
DWIDTH 8 0
BBX 8 16 0 -3
BITMAP
00
00
00
00
00
00
00
F8
F8
18
18
18
18
18
18
18
ENDCHAR
STARTCHAR U+2514
ENCODING 9492
SWIDTH 500 0
DWIDTH 8 0
BBX 8 16 0 -3
BITMAP
08
08
08
08
08
08
08
08
0F
00
00
00
00
00
00
00
ENDCHAR
STARTCHAR U+2515
ENCODING 9493
SWIDTH 500 0
DWIDTH 8 0
BBX 8 16 0 -3
BITMAP
08
08
08
08
08
08
08
0F
0F
00
00
00
00
00
00
00
ENDCHAR
STARTCHAR U+2516
ENCODING 9494
SWIDTH 500 0
DWIDTH 8 0
BBX 8 16 0 -3
BITMAP
18
18
18
18
18
18
18
18
1F
00
00
00
00
00
00
00
ENDCHAR
STARTCHAR U+2517
ENCODING 9495
SWIDTH 500 0
DWIDTH 8 0
BBX 8 16 0 -3
BITMAP
18
18
18
18
18
18
18
1F
1F
00
00
00
00
00
00
00
ENDCHAR
STARTCHAR U+2518
ENCODING 9496
SWIDTH 500 0
DWIDTH 8 0
BBX 8 16 0 -3
BITMAP
08
08
08
08
08
08
08
08
F8
00
00
00
00
00
00
00
ENDCHAR
STARTCHAR U+2519
ENCODING 9497
SWIDTH 500 0
DWIDTH 8 0
BBX 8 16 0 -3
BITMAP
08
08
08
08
08
08
08
F8
F8
00
00
00
00
00
00
00
ENDCHAR
STARTCHAR U+251A
ENCODING 9498
SWIDTH 500 0
DWIDTH 8 0
BBX 8 16 0 -3
BITMAP
18
18
18
18
18
18
18
18
F8
00
00
00
00
00
00
00
ENDCHAR
STARTCHAR U+251B
ENCODING 9499
SWIDTH 500 0
DWIDTH 8 0
BBX 8 16 0 -3
BITMAP
18
18
18
18
18
18
18
F8
F8
00
00
00
00
00
00
00
ENDCHAR
STARTCHAR U+251C
ENCODING 9500
SWIDTH 500 0
DWIDTH 8 0
BBX 8 16 0 -3
BITMAP
08
08
08
08
08
08
08
08
0F
08
08
08
08
08
08
08
ENDCHAR
STARTCHAR U+251D
ENCODING 9501
SWIDTH 500 0
DWIDTH 8 0
BBX 8 16 0 -3
BITMAP
08
08
08
08
08
08
08
0F
0F
08
08
08
08
08
08
08
ENDCHAR
STARTCHAR U+251E
ENCODING 9502
SWIDTH 500 0
DWIDTH 8 0
BBX 8 16 0 -3
BITMAP
18
18
18
18
18
18
18
18
1F
08
08
08
08
08
08
08
ENDCHAR
STARTCHAR U+251F
ENCODING 9503
SWIDTH 500 0
DWIDTH 8 0
BBX 8 16 0 -3
BITMAP
08
08
08
08
08
08
08
08
1F
18
18
18
18
18
18
18
ENDCHAR
STARTCHAR U+2520
ENCODING 9504
SWIDTH 500 0
DWIDTH 8 0
BBX 8 16 0 -3
BITMAP
18
18
18
18
18
18
18
18
1F
18
18
18
18
18
18
18
ENDCHAR
STARTCHAR U+2521
ENCODING 9505
SWIDTH 500 0
DWIDTH 8 0
BBX 8 16 0 -3
BITMAP
18
18
18
18
18
18
18
1F
1F
08
08
08
08
08
08
08
ENDCHAR
STARTCHAR U+2522
ENCODING 9506
SWIDTH 500 0
DWIDTH 8 0
BBX 8 16 0 -3
BITMAP
08
08
08
08
08
08
08
1F
1F
18
18
18
18
18
18
18
ENDCHAR
STARTCHAR U+2523
ENCODING 9507
SWIDTH 500 0
DWIDTH 8 0
BBX 8 16 0 -3
BITMAP
18
18
18
18
18
18
18
1F
1F
18
18
18
18
18
18
18
ENDCHAR
STARTCHAR U+2524
ENCODING 9508
SWIDTH 500 0
DWIDTH 8 0
BBX 8 16 0 -3
BITMAP
08
08
08
08
08
08
08
08
F8
08
08
08
08
08
08
08
ENDCHAR
STARTCHAR U+2525
ENCODING 9509
SWIDTH 500 0
DWIDTH 8 0
BBX 8 16 0 -3
BITMAP
08
08
08
08
08
08
08
F8
F8
08
08
08
08
08
08
08
ENDCHAR
STARTCHAR U+2526
ENCODING 9510
SWIDTH 500 0
DWIDTH 8 0
BBX 8 16 0 -3
BITMAP
18
18
18
18
18
18
18
18
F8
08
08
08
08
08
08
08
ENDCHAR
STARTCHAR U+2527
ENCODING 9511
SWIDTH 500 0
DWIDTH 8 0
BBX 8 16 0 -3
BITMAP
08
08
08
08
08
08
08
08
F8
18
18
18
18
18
18
18
ENDCHAR
STARTCHAR U+2528
ENCODING 9512
SWIDTH 500 0
DWIDTH 8 0
BBX 8 16 0 -3
BITMAP
18
18
18
18
18
18
18
18
F8
18
18
18
18
18
18
18
ENDCHAR
STARTCHAR U+2529
ENCODING 9513
SWIDTH 500 0
DWIDTH 8 0
BBX 8 16 0 -3
BITMAP
18
18
18
18
18
18
18
F8
F8
08
08
08
08
08
08
08
ENDCHAR
STARTCHAR U+252A
ENCODING 9514
SWIDTH 500 0
DWIDTH 8 0
BBX 8 16 0 -3
BITMAP
08
08
08
08
08
08
08
F8
F8
18
18
18
18
18
18
18
ENDCHAR
STARTCHAR U+252B
ENCODING 9515
SWIDTH 500 0
DWIDTH 8 0
BBX 8 16 0 -3
BITMAP
18
18
18
18
18
18
18
F8
F8
18
18
18
18
18
18
18
ENDCHAR
STARTCHAR U+252C
ENCODING 9516
SWIDTH 500 0
DWIDTH 8 0
BBX 8 16 0 -3
BITMAP
00
00
00
00
00
00
00
00
FF
08
08
08
08
08
08
08
ENDCHAR
STARTCHAR U+252D
ENCODING 9517
SWIDTH 500 0
DWIDTH 8 0
BBX 8 16 0 -3
BITMAP
00
00
00
00
00
00
00
F8
FF
08
08
08
08
08
08
08
ENDCHAR
STARTCHAR U+252E
ENCODING 9518
SWIDTH 500 0
DWIDTH 8 0
BBX 8 16 0 -3
BITMAP
00
00
00
00
00
00
00
0F
FF
08
08
08
08
08
08
08
ENDCHAR
STARTCHAR U+252F
ENCODING 9519
SWIDTH 500 0
DWIDTH 8 0
BBX 8 16 0 -3
BITMAP
00
00
00
00
00
00
00
FF
FF
08
08
08
08
08
08
08
ENDCHAR
STARTCHAR U+2530
ENCODING 9520
SWIDTH 500 0
DWIDTH 8 0
BBX 8 16 0 -3
BITMAP
00
00
00
00
00
00
00
00
FF
18
18
18
18
18
18
18
ENDCHAR
STARTCHAR U+2531
ENCODING 9521
SWIDTH 500 0
DWIDTH 8 0
BBX 8 16 0 -3
BITMAP
00
00
00
00
00
00
00
F8
FF
18
18
18
18
18
18
18
ENDCHAR
STARTCHAR U+2532
ENCODING 9522
SWIDTH 500 0
DWIDTH 8 0
BBX 8 16 0 -3
BITMAP
00
00
00
00
00
00
00
1F
FF
18
18
18
18
18
18
18
ENDCHAR
STARTCHAR U+2533
ENCODING 9523
SWIDTH 500 0
DWIDTH 8 0
BBX 8 16 0 -3
BITMAP
00
00
00
00
00
00
00
FF
FF
18
18
18
18
18
18
18
ENDCHAR
STARTCHAR U+2534
ENCODING 9524
SWIDTH 500 0
DWIDTH 8 0
BBX 8 16 0 -3
BITMAP
08
08
08
08
08
08
08
08
FF
00
00
00
00
00
00
00
ENDCHAR
STARTCHAR U+2535
ENCODING 9525
SWIDTH 500 0
DWIDTH 8 0
BBX 8 16 0 -3
BITMAP
08
08
08
08
08
08
08
F8
FF
00
00
00
00
00
00
00
ENDCHAR
STARTCHAR U+2536
ENCODING 9526
SWIDTH 500 0
DWIDTH 8 0
BBX 8 16 0 -3
BITMAP
08
08
08
08
08
08
08
0F
FF
00
00
00
00
00
00
00
ENDCHAR
STARTCHAR U+2537
ENCODING 9527
SWIDTH 500 0
DWIDTH 8 0
BBX 8 16 0 -3
BITMAP
08
08
08
08
08
08
08
FF
FF
00
00
00
00
00
00
00
ENDCHAR
STARTCHAR U+2538
ENCODING 9528
SWIDTH 500 0
DWIDTH 8 0
BBX 8 16 0 -3
BITMAP
18
18
18
18
18
18
18
18
FF
00
00
00
00
00
00
00
ENDCHAR
STARTCHAR U+2539
ENCODING 9529
SWIDTH 500 0
DWIDTH 8 0
BBX 8 16 0 -3
BITMAP
18
18
18
18
18
18
18
F8
FF
00
00
00
00
00
00
00
ENDCHAR
STARTCHAR U+253A
ENCODING 9530
SWIDTH 500 0
DWIDTH 8 0
BBX 8 16 0 -3
BITMAP
18
18
18
18
18
18
18
1F
FF
00
00
00
00
00
00
00
ENDCHAR
STARTCHAR U+253B
ENCODING 9531
SWIDTH 500 0
DWIDTH 8 0
BBX 8 16 0 -3
BITMAP
18
18
18
18
18
18
18
FF
FF
00
00
00
00
00
00
00
ENDCHAR
STARTCHAR U+253C
ENCODING 9532
SWIDTH 500 0
DWIDTH 8 0
BBX 8 16 0 -3
BITMAP
08
08
08
08
08
08
08
08
FF
08
08
08
08
08
08
08
ENDCHAR
STARTCHAR U+253D
ENCODING 9533
SWIDTH 500 0
DWIDTH 8 0
BBX 8 16 0 -3
BITMAP
08
08
08
08
08
08
08
F8
FF
08
08
08
08
08
08
08
ENDCHAR
STARTCHAR U+253E
ENCODING 9534
SWIDTH 500 0
DWIDTH 8 0
BBX 8 16 0 -3
BITMAP
08
08
08
08
08
08
08
0F
FF
08
08
08
08
08
08
08
ENDCHAR
STARTCHAR U+253F
ENCODING 9535
SWIDTH 500 0
DWIDTH 8 0
BBX 8 16 0 -3
BITMAP
08
08
08
08
08
08
08
FF
FF
08
08
08
08
08
08
08
ENDCHAR
STARTCHAR U+2540
ENCODING 9536
SWIDTH 500 0
DWIDTH 8 0
BBX 8 16 0 -3
BITMAP
18
18
18
18
18
18
18
18
FF
08
08
08
08
08
08
08
ENDCHAR
STARTCHAR U+2541
ENCODING 9537
SWIDTH 500 0
DWIDTH 8 0
BBX 8 16 0 -3
BITMAP
08
08
08
08
08
08
08
08
FF
18
18
18
18
18
18
18
ENDCHAR
STARTCHAR U+2542
ENCODING 9538
SWIDTH 500 0
DWIDTH 8 0
BBX 8 16 0 -3
BITMAP
18
18
18
18
18
18
18
18
FF
18
18
18
18
18
18
18
ENDCHAR
STARTCHAR U+2543
ENCODING 9539
SWIDTH 500 0
DWIDTH 8 0
BBX 8 16 0 -3
BITMAP
18
18
18
18
18
18
18
F8
FF
08
08
08
08
08
08
08
ENDCHAR
STARTCHAR U+2544
ENCODING 9540
SWIDTH 500 0
DWIDTH 8 0
BBX 8 16 0 -3
BITMAP
18
18
18
18
18
18
18
1F
FF
08
08
08
08
08
08
08
ENDCHAR
STARTCHAR U+2545
ENCODING 9541
SWIDTH 500 0
DWIDTH 8 0
BBX 8 16 0 -3
BITMAP
08
08
08
08
08
08
08
F8
FF
18
18
18
18
18
18
18
ENDCHAR
STARTCHAR U+2546
ENCODING 9542
SWIDTH 500 0
DWIDTH 8 0
BBX 8 16 0 -3
BITMAP
08
08
08
08
08
08
08
0F
FF
18
18
18
18
18
18
18
ENDCHAR
STARTCHAR U+2547
ENCODING 9543
SWIDTH 500 0
DWIDTH 8 0
BBX 8 16 0 -3
BITMAP
18
18
18
18
18
18
18
FF
FF
08
08
08
08
08
08
08
ENDCHAR
STARTCHAR U+2548
ENCODING 9544
SWIDTH 500 0
DWIDTH 8 0
BBX 8 16 0 -3
BITMAP
08
08
08
08
08
08
08
FF
FF
18
18
18
18
18
18
18
ENDCHAR
STARTCHAR U+2549
ENCODING 9545
SWIDTH 500 0
DWIDTH 8 0
BBX 8 16 0 -3
BITMAP
18
18
18
18
18
18
18
F8
FF
18
18
18
18
18
18
18
ENDCHAR
STARTCHAR U+254A
ENCODING 9546
SWIDTH 500 0
DWIDTH 8 0
BBX 8 16 0 -3
BITMAP
18
18
18
18
18
18
18
1F
FF
18
18
18
18
18
18
18
ENDCHAR
STARTCHAR U+254B
ENCODING 9547
SWIDTH 500 0
DWIDTH 8 0
BBX 8 16 0 -3
BITMAP
18
18
18
18
18
18
18
FF
FF
18
18
18
18
18
18
18
ENDCHAR
STARTCHAR U+254C
ENCODING 9548
SWIDTH 500 0
DWIDTH 8 0
BBX 8 16 0 -3
BITMAP
00
00
00
00
00
00
00
00
77
00
00
00
00
00
00
00
ENDCHAR
STARTCHAR U+254D
ENCODING 9549
SWIDTH 500 0
DWIDTH 8 0
BBX 8 16 0 -3
BITMAP
00
00
00
00
00
00
00
77
77
00
00
00
00
00
00
00
ENDCHAR
STARTCHAR U+254E
ENCODING 9550
SWIDTH 500 0
DWIDTH 8 0
BBX 8 16 0 -3
BITMAP
00
00
08
08
08
08
08
08
00
00
08
08
08
08
08
08
ENDCHAR
STARTCHAR U+254F
ENCODING 9551
SWIDTH 500 0
DWIDTH 8 0
BBX 8 16 0 -3
BITMAP
00
00
18
18
18
18
18
18
00
00
18
18
18
18
18
18
ENDCHAR
STARTCHAR U+2550
ENCODING 9552
SWIDTH 500 0
DWIDTH 8 0
BBX 8 16 0 -3
BITMAP
00
00
00
00
00
00
00
FF
00
FF
00
00
00
00
00
00
ENDCHAR
STARTCHAR U+2551
ENCODING 9553
SWIDTH 500 0
DWIDTH 8 0
BBX 8 16 0 -3
BITMAP
14
14
14
14
14
14
14
14
14
14
14
14
14
14
14
14
ENDCHAR
STARTCHAR U+2552
ENCODING 9554
SWIDTH 500 0
DWIDTH 8 0
BBX 8 16 0 -3
BITMAP
00
00
00
00
00
00
00
0F
08
0F
08
08
08
08
08
08
ENDCHAR
STARTCHAR U+2553
ENCODING 9555
SWIDTH 500 0
DWIDTH 8 0
BBX 8 16 0 -3
BITMAP
00
00
00
00
00
00
00
00
1F
14
14
14
14
14
14
14
ENDCHAR
STARTCHAR U+2554
ENCODING 9556
SWIDTH 500 0
DWIDTH 8 0
BBX 8 16 0 -3
BITMAP
00
00
00
00
00
00
00
1F
10
17
14
14
14
14
14
14
ENDCHAR
STARTCHAR U+2555
ENCODING 9557
SWIDTH 500 0
DWIDTH 8 0
BBX 8 16 0 -3
BITMAP
00
00
00
00
00
00
00
F8
08
F8
08
08
08
08
08
08
ENDCHAR
STARTCHAR U+2556
ENCODING 9558
SWIDTH 500 0
DWIDTH 8 0
BBX 8 16 0 -3
BITMAP
00
00
00
00
00
00
00
00
FC
14
14
14
14
14
14
14
ENDCHAR
STARTCHAR U+2557
ENCODING 9559
SWIDTH 500 0
DWIDTH 8 0
BBX 8 16 0 -3
BITMAP
00
00
00
00
00
00
00
FC
04
F4
14
14
14
14
14
14
ENDCHAR
STARTCHAR U+2558
ENCODING 9560
SWIDTH 500 0
DWIDTH 8 0
BBX 8 16 0 -3
BITMAP
08
08
08
08
08
08
08
0F
08
0F
00
00
00
00
00
00
ENDCHAR
STARTCHAR U+2559
ENCODING 9561
SWIDTH 500 0
DWIDTH 8 0
BBX 8 16 0 -3
BITMAP
14
14
14
14
14
14
14
14
1F
00
00
00
00
00
00
00
ENDCHAR
STARTCHAR U+255A
ENCODING 9562
SWIDTH 500 0
DWIDTH 8 0
BBX 8 16 0 -3
BITMAP
14
14
14
14
14
14
14
17
10
1F
00
00
00
00
00
00
ENDCHAR
STARTCHAR U+255B
ENCODING 9563
SWIDTH 500 0
DWIDTH 8 0
BBX 8 16 0 -3
BITMAP
08
08
08
08
08
08
08
F8
08
F8
00
00
00
00
00
00
ENDCHAR
STARTCHAR U+255C
ENCODING 9564
SWIDTH 500 0
DWIDTH 8 0
BBX 8 16 0 -3
BITMAP
14
14
14
14
14
14
14
14
FC
00
00
00
00
00
00
00
ENDCHAR
STARTCHAR U+255D
ENCODING 9565
SWIDTH 500 0
DWIDTH 8 0
BBX 8 16 0 -3
BITMAP
14
14
14
14
14
14
14
F4
04
FC
00
00
00
00
00
00
ENDCHAR
STARTCHAR U+255E
ENCODING 9566
SWIDTH 500 0
DWIDTH 8 0
BBX 8 16 0 -3
BITMAP
08
08
08
08
08
08
08
0F
08
0F
08
08
08
08
08
08
ENDCHAR
STARTCHAR U+255F
ENCODING 9567
SWIDTH 500 0
DWIDTH 8 0
BBX 8 16 0 -3
BITMAP
14
14
14
14
14
14
14
14
17
14
14
14
14
14
14
14
ENDCHAR
STARTCHAR U+2560
ENCODING 9568
SWIDTH 500 0
DWIDTH 8 0
BBX 8 16 0 -3
BITMAP
14
14
14
14
14
14
14
17
10
17
14
14
14
14
14
14
ENDCHAR
STARTCHAR U+2561
ENCODING 9569
SWIDTH 500 0
DWIDTH 8 0
BBX 8 16 0 -3
BITMAP
08
08
08
08
08
08
08
F8
08
F8
08
08
08
08
08
08
ENDCHAR
STARTCHAR U+2562
ENCODING 9570
SWIDTH 500 0
DWIDTH 8 0
BBX 8 16 0 -3
BITMAP
14
14
14
14
14
14
14
14
F4
14
14
14
14
14
14
14
ENDCHAR
STARTCHAR U+2563
ENCODING 9571
SWIDTH 500 0
DWIDTH 8 0
BBX 8 16 0 -3
BITMAP
14
14
14
14
14
14
14
F4
04
F4
14
14
14
14
14
14
ENDCHAR
STARTCHAR U+2564
ENCODING 9572
SWIDTH 500 0
DWIDTH 8 0
BBX 8 16 0 -3
BITMAP
00
00
00
00
00
00
00
FF
00
FF
08
08
08
08
08
08
ENDCHAR
STARTCHAR U+2565
ENCODING 9573
SWIDTH 500 0
DWIDTH 8 0
BBX 8 16 0 -3
BITMAP
00
00
00
00
00
00
00
00
FF
14
14
14
14
14
14
14
ENDCHAR
STARTCHAR U+2566
ENCODING 9574
SWIDTH 500 0
DWIDTH 8 0
BBX 8 16 0 -3
BITMAP
00
00
00
00
00
00
00
FF
00
F7
14
14
14
14
14
14
ENDCHAR
STARTCHAR U+2567
ENCODING 9575
SWIDTH 500 0
DWIDTH 8 0
BBX 8 16 0 -3
BITMAP
08
08
08
08
08
08
08
FF
00
FF
00
00
00
00
00
00
ENDCHAR
STARTCHAR U+2568
ENCODING 9576
SWIDTH 500 0
DWIDTH 8 0
BBX 8 16 0 -3
BITMAP
14
14
14
14
14
14
14
14
FF
00
00
00
00
00
00
00
ENDCHAR
STARTCHAR U+2569
ENCODING 9577
SWIDTH 500 0
DWIDTH 8 0
BBX 8 16 0 -3
BITMAP
14
14
14
14
14
14
14
F7
00
FF
00
00
00
00
00
00
ENDCHAR
STARTCHAR U+256A
ENCODING 9578
SWIDTH 500 0
DWIDTH 8 0
BBX 8 16 0 -3
BITMAP
08
08
08
08
08
08
08
FF
08
FF
08
08
08
08
08
08
ENDCHAR
STARTCHAR U+256B
ENCODING 9579
SWIDTH 500 0
DWIDTH 8 0
BBX 8 16 0 -3
BITMAP
14
14
14
14
14
14
14
14
FF
14
14
14
14
14
14
14
ENDCHAR
STARTCHAR U+256C
ENCODING 9580
SWIDTH 500 0
DWIDTH 8 0
BBX 8 16 0 -3
BITMAP
14
14
14
14
14
14
14
F7
00
F7
14
14
14
14
14
14
ENDCHAR
STARTCHAR U+256D
ENCODING 9581
SWIDTH 500 0
DWIDTH 8 0
BBX 8 16 0 -3
BITMAP
00
00
00
00
00
00
00
00
01
02
04
04
08
08
08
08
ENDCHAR
STARTCHAR U+256E
ENCODING 9582
SWIDTH 500 0
DWIDTH 8 0
BBX 8 16 0 -3
BITMAP
00
00
00
00
00
00
00
00
C0
20
10
10
08
08
08
08
ENDCHAR
STARTCHAR U+256F
ENCODING 9583
SWIDTH 500 0
DWIDTH 8 0
BBX 8 16 0 -3
BITMAP
08
08
08
08
08
10
10
20
C0
00
00
00
00
00
00
00
ENDCHAR
STARTCHAR U+2570
ENCODING 9584
SWIDTH 500 0
DWIDTH 8 0
BBX 8 16 0 -3
BITMAP
08
08
08
08
08
04
04
02
01
00
00
00
00
00
00
00
ENDCHAR
STARTCHAR U+2571
ENCODING 9585
SWIDTH 500 0
DWIDTH 8 0
BBX 8 16 0 -3
BITMAP
01
01
02
02
04
04
08
08
10
10
20
20
40
40
80
80
ENDCHAR
STARTCHAR U+2572
ENCODING 9586
SWIDTH 500 0
DWIDTH 8 0
BBX 8 16 0 -3
BITMAP
80
80
40
40
20
20
10
10
08
08
04
04
02
02
01
01
ENDCHAR
STARTCHAR U+2573
ENCODING 9587
SWIDTH 500 0
DWIDTH 8 0
BBX 8 16 0 -3
BITMAP
81
81
42
42
24
24
18
18
18
18
24
24
42
42
81
81
ENDCHAR
STARTCHAR U+2574
ENCODING 9588
SWIDTH 500 0
DWIDTH 8 0
BBX 8 16 0 -3
BITMAP
00
00
00
00
00
00
00
00
F8
00
00
00
00
00
00
00
ENDCHAR
STARTCHAR U+2575
ENCODING 9589
SWIDTH 500 0
DWIDTH 8 0
BBX 8 16 0 -3
BITMAP
08
08
08
08
08
08
08
08
08
00
00
00
00
00
00
00
ENDCHAR
STARTCHAR U+2576
ENCODING 9590
SWIDTH 500 0
DWIDTH 8 0
BBX 8 16 0 -3
BITMAP
00
00
00
00
00
00
00
00
0F
00
00
00
00
00
00
00
ENDCHAR
STARTCHAR U+2577
ENCODING 9591
SWIDTH 500 0
DWIDTH 8 0
BBX 8 16 0 -3
BITMAP
00
00
00
00
00
00
00
00
08
08
08
08
08
08
08
08
ENDCHAR
STARTCHAR U+2578
ENCODING 9592
SWIDTH 500 0
DWIDTH 8 0
BBX 8 16 0 -3
BITMAP
00
00
00
00
00
00
00
F0
F0
00
00
00
00
00
00
00
ENDCHAR
STARTCHAR U+2579
ENCODING 9593
SWIDTH 500 0
DWIDTH 8 0
BBX 8 16 0 -3
BITMAP
18
18
18
18
18
18
18
18
00
00
00
00
00
00
00
00
ENDCHAR
STARTCHAR U+257A
ENCODING 9594
SWIDTH 500 0
DWIDTH 8 0
BBX 8 16 0 -3
BITMAP
00
00
00
00
00
00
00
0F
0F
00
00
00
00
00
00
00
ENDCHAR
STARTCHAR U+257B
ENCODING 9595
SWIDTH 500 0
DWIDTH 8 0
BBX 8 16 0 -3
BITMAP
00
00
00
00
00
00
00
00
18
18
18
18
18
18
18
18
ENDCHAR
STARTCHAR U+257C
ENCODING 9596
SWIDTH 500 0
DWIDTH 8 0
BBX 8 16 0 -3
BITMAP
00
00
00
00
00
00
00
0F
FF
00
00
00
00
00
00
00
ENDCHAR
STARTCHAR U+257D
ENCODING 9597
SWIDTH 500 0
DWIDTH 8 0
BBX 8 16 0 -3
BITMAP
08
08
08
08
08
08
08
18
18
18
18
18
18
18
18
18
ENDCHAR
STARTCHAR U+257E
ENCODING 9598
SWIDTH 500 0
DWIDTH 8 0
BBX 8 16 0 -3
BITMAP
00
00
00
00
00
00
00
F0
FF
00
00
00
00
00
00
00
ENDCHAR
STARTCHAR U+257F
ENCODING 9599
SWIDTH 500 0
DWIDTH 8 0
BBX 8 16 0 -3
BITMAP
18
18
18
18
18
18
18
18
18
08
08
08
08
08
08
08
ENDCHAR
STARTCHAR U+2580
ENCODING 9600
SWIDTH 500 0
DWIDTH 8 0
BBX 8 16 0 -3
BITMAP
FF
FF
FF
FF
FF
FF
FF
FF
00
00
00
00
00
00
00
00
ENDCHAR
STARTCHAR U+2581
ENCODING 9601
SWIDTH 500 0
DWIDTH 8 0
BBX 8 16 0 -3
BITMAP
00
00
00
00
00
00
00
00
00
00
00
00
00
00
FF
FF
ENDCHAR
STARTCHAR U+2582
ENCODING 9602
SWIDTH 500 0
DWIDTH 8 0
BBX 8 16 0 -3
BITMAP
00
00
00
00
00
00
00
00
00
00
00
00
FF
FF
FF
FF
ENDCHAR
STARTCHAR U+2583
ENCODING 9603
SWIDTH 500 0
DWIDTH 8 0
BBX 8 16 0 -3
BITMAP
00
00
00
00
00
00
00
00
00
00
FF
FF
FF
FF
FF
FF
ENDCHAR
STARTCHAR U+2584
ENCODING 9604
SWIDTH 500 0
DWIDTH 8 0
BBX 8 16 0 -3
BITMAP
00
00
00
00
00
00
00
00
FF
FF
FF
FF
FF
FF
FF
FF
ENDCHAR
STARTCHAR U+2585
ENCODING 9605
SWIDTH 500 0
DWIDTH 8 0
BBX 8 16 0 -3
BITMAP
00
00
00
00
00
00
FF
FF
FF
FF
FF
FF
FF
FF
FF
FF
ENDCHAR
STARTCHAR U+2586
ENCODING 9606
SWIDTH 500 0
DWIDTH 8 0
BBX 8 16 0 -3
BITMAP
00
00
00
00
FF
FF
FF
FF
FF
FF
FF
FF
FF
FF
FF
FF
ENDCHAR
STARTCHAR U+2587
ENCODING 9607
SWIDTH 500 0
DWIDTH 8 0
BBX 8 16 0 -3
BITMAP
00
00
FF
FF
FF
FF
FF
FF
FF
FF
FF
FF
FF
FF
FF
FF
ENDCHAR
STARTCHAR U+2588
ENCODING 9608
SWIDTH 500 0
DWIDTH 8 0
BBX 8 16 0 -3
BITMAP
FF
FF
FF
FF
FF
FF
FF
FF
FF
FF
FF
FF
FF
FF
FF
FF
ENDCHAR
STARTCHAR U+2589
ENCODING 9609
SWIDTH 500 0
DWIDTH 8 0
BBX 8 16 0 -3
BITMAP
FE
FE
FE
FE
FE
FE
FE
FE
FE
FE
FE
FE
FE
FE
FE
FE
ENDCHAR
STARTCHAR U+258A
ENCODING 9610
SWIDTH 500 0
DWIDTH 8 0
BBX 8 16 0 -3
BITMAP
FC
FC
FC
FC
FC
FC
FC
FC
FC
FC
FC
FC
FC
FC
FC
FC
ENDCHAR
STARTCHAR U+258B
ENCODING 9611
SWIDTH 500 0
DWIDTH 8 0
BBX 8 16 0 -3
BITMAP
F8
F8
F8
F8
F8
F8
F8
F8
F8
F8
F8
F8
F8
F8
F8
F8
ENDCHAR
STARTCHAR U+258C
ENCODING 9612
SWIDTH 500 0
DWIDTH 8 0
BBX 8 16 0 -3
BITMAP
F0
F0
F0
F0
F0
F0
F0
F0
F0
F0
F0
F0
F0
F0
F0
F0
ENDCHAR
STARTCHAR U+258D
ENCODING 9613
SWIDTH 500 0
DWIDTH 8 0
BBX 8 16 0 -3
BITMAP
E0
E0
E0
E0
E0
E0
E0
E0
E0
E0
E0
E0
E0
E0
E0
E0
ENDCHAR
STARTCHAR U+258E
ENCODING 9614
SWIDTH 500 0
DWIDTH 8 0
BBX 8 16 0 -3
BITMAP
C0
C0
C0
C0
C0
C0
C0
C0
C0
C0
C0
C0
C0
C0
C0
C0
ENDCHAR
STARTCHAR U+258F
ENCODING 9615
SWIDTH 500 0
DWIDTH 8 0
BBX 8 16 0 -3
BITMAP
80
80
80
80
80
80
80
80
80
80
80
80
80
80
80
80
ENDCHAR
STARTCHAR U+2590
ENCODING 9616
SWIDTH 500 0
DWIDTH 8 0
BBX 8 16 0 -3
BITMAP
0F
0F
0F
0F
0F
0F
0F
0F
0F
0F
0F
0F
0F
0F
0F
0F
ENDCHAR
STARTCHAR U+2591
ENCODING 9617
SWIDTH 500 0
DWIDTH 8 0
BBX 8 16 0 -3
BITMAP
88
88
22
22
88
88
22
22
88
88
22
22
88
88
22
22
ENDCHAR
STARTCHAR U+2592
ENCODING 9618
SWIDTH 500 0
DWIDTH 8 0
BBX 8 16 0 -3
BITMAP
CC
CC
33
33
CC
CC
33
33
CC
CC
33
33
CC
CC
33
33
ENDCHAR
STARTCHAR U+2593
ENCODING 9619
SWIDTH 500 0
DWIDTH 8 0
BBX 8 16 0 -3
BITMAP
77
77
DD
DD
77
77
DD
DD
77
77
DD
DD
77
77
DD
DD
ENDCHAR
STARTCHAR U+2594
ENCODING 9620
SWIDTH 500 0
DWIDTH 8 0
BBX 8 16 0 -3
BITMAP
FF
FF
00
00
00
00
00
00
00
00
00
00
00
00
00
00
ENDCHAR
STARTCHAR U+2595
ENCODING 9621
SWIDTH 500 0
DWIDTH 8 0
BBX 8 16 0 -3
BITMAP
01
01
01
01
01
01
01
01
01
01
01
01
01
01
01
01
ENDCHAR
STARTCHAR U+2596
ENCODING 9622
SWIDTH 500 0
DWIDTH 8 0
BBX 8 16 0 -3
BITMAP
00
00
00
00
00
00
00
00
F0
F0
F0
F0
F0
F0
F0
F0
ENDCHAR
STARTCHAR U+2597
ENCODING 9623
SWIDTH 500 0
DWIDTH 8 0
BBX 8 16 0 -3
BITMAP
00
00
00
00
00
00
00
00
0F
0F
0F
0F
0F
0F
0F
0F
ENDCHAR
STARTCHAR U+2598
ENCODING 9624
SWIDTH 500 0
DWIDTH 8 0
BBX 8 16 0 -3
BITMAP
F0
F0
F0
F0
F0
F0
F0
F0
00
00
00
00
00
00
00
00
ENDCHAR
STARTCHAR U+2599
ENCODING 9625
SWIDTH 500 0
DWIDTH 8 0
BBX 8 16 0 -3
BITMAP
F0
F0
F0
F0
F0
F0
F0
F0
FF
FF
FF
FF
FF
FF
FF
FF
ENDCHAR
STARTCHAR U+259A
ENCODING 9626
SWIDTH 500 0
DWIDTH 8 0
BBX 8 16 0 -3
BITMAP
F0
F0
F0
F0
F0
F0
F0
F0
0F
0F
0F
0F
0F
0F
0F
0F
ENDCHAR
STARTCHAR U+259B
ENCODING 9627
SWIDTH 500 0
DWIDTH 8 0
BBX 8 16 0 -3
BITMAP
FF
FF
FF
FF
FF
FF
FF
FF
F0
F0
F0
F0
F0
F0
F0
F0
ENDCHAR
STARTCHAR U+259C
ENCODING 9628
SWIDTH 500 0
DWIDTH 8 0
BBX 8 16 0 -3
BITMAP
FF
FF
FF
FF
FF
FF
FF
FF
0F
0F
0F
0F
0F
0F
0F
0F
ENDCHAR
STARTCHAR U+259D
ENCODING 9629
SWIDTH 500 0
DWIDTH 8 0
BBX 8 16 0 -3
BITMAP
0F
0F
0F
0F
0F
0F
0F
0F
00
00
00
00
00
00
00
00
ENDCHAR
STARTCHAR U+259E
ENCODING 9630
SWIDTH 500 0
DWIDTH 8 0
BBX 8 16 0 -3
BITMAP
0F
0F
0F
0F
0F
0F
0F
0F
F0
F0
F0
F0
F0
F0
F0
F0
ENDCHAR
STARTCHAR U+259F
ENCODING 9631
SWIDTH 500 0
DWIDTH 8 0
BBX 8 16 0 -3
BITMAP
0F
0F
0F
0F
0F
0F
0F
0F
FF
FF
FF
FF
FF
FF
FF
FF
ENDCHAR
STARTCHAR U+25A0
ENCODING 9632
SWIDTH 500 0
DWIDTH 8 0
BBX 8 16 0 -3
BITMAP
00
00
00
00
00
FF
FF
FF
FF
FF
FF
FF
FF
00
00
00
ENDCHAR
STARTCHAR U+25A1
ENCODING 9633
SWIDTH 500 0
DWIDTH 8 0
BBX 8 16 0 -3
BITMAP
00
00
00
00
00
FF
81
81
81
81
81
81
FF
00
00
00
ENDCHAR
STARTCHAR U+25CB
ENCODING 9675
SWIDTH 500 0
DWIDTH 8 0
BBX 8 16 0 -3
BITMAP
00
00
00
00
3C
42
81
81
81
81
42
3C
00
00
00
00
ENDCHAR
STARTCHAR U+25DC
ENCODING 9692
SWIDTH 500 0
DWIDTH 8 0
BBX 8 16 0 -3
BITMAP
00
00
00
00
30
40
80
80
00
00
00
00
00
00
00
00
ENDCHAR
STARTCHAR U+25DD
ENCODING 9693
SWIDTH 500 0
DWIDTH 8 0
BBX 8 16 0 -3
BITMAP
00
00
00
00
0C
02
01
01
00
00
00
00
00
00
00
00
ENDCHAR
STARTCHAR U+25DE
ENCODING 9694
SWIDTH 500 0
DWIDTH 8 0
BBX 8 16 0 -3
BITMAP
00
00
00
00
00
00
00
00
80
80
40
30
00
00
00
00
ENDCHAR
STARTCHAR U+25DF
ENCODING 9695
SWIDTH 500 0
DWIDTH 8 0
BBX 8 16 0 -3
BITMAP
00
00
00
00
00
00
00
00
01
01
02
0C
00
00
00
00
ENDCHAR
STARTCHAR U+25E0
ENCODING 9696
SWIDTH 500 0
DWIDTH 8 0
BBX 8 16 0 -3
BITMAP
00
00
00
00
3C
42
81
81
00
00
00
00
00
00
00
00
ENDCHAR
STARTCHAR U+25E1
ENCODING 9697
SWIDTH 500 0
DWIDTH 8 0
BBX 8 16 0 -3
BITMAP
00
00
00
00
00
00
00
00
81
81
42
3C
00
00
00
00
ENDCHAR
STARTCHAR U+25F0
ENCODING 9712
SWIDTH 500 0
DWIDTH 8 0
BBX 8 16 0 -3
BITMAP
00
00
00
00
00
FF
89
89
89
F9
81
81
FF
00
00
00
ENDCHAR
STARTCHAR U+25F1
ENCODING 9713
SWIDTH 500 0
DWIDTH 8 0
BBX 8 16 0 -3
BITMAP
00
00
00
00
00
FF
81
81
F9
89
89
89
FF
00
00
00
ENDCHAR
STARTCHAR U+25F2
ENCODING 9714
SWIDTH 500 0
DWIDTH 8 0
BBX 8 16 0 -3
BITMAP
00
00
00
00
00
FF
81
81
9F
91
91
91
FF
00
00
00
ENDCHAR
STARTCHAR U+25F3
ENCODING 9715
SWIDTH 500 0
DWIDTH 8 0
BBX 8 16 0 -3
BITMAP
00
00
00
00
00
FF
91
91
91
9F
81
81
FF
00
00
00
ENDCHAR
STARTCHAR U+25F4
ENCODING 9716
SWIDTH 500 0
DWIDTH 8 0
BBX 8 16 0 -3
BITMAP
00
00
00
00
3C
4A
89
89
F9
81
42
3C
00
00
00
00
ENDCHAR
STARTCHAR U+25F5
ENCODING 9717
SWIDTH 500 0
DWIDTH 8 0
BBX 8 16 0 -3
BITMAP
00
00
00
00
3C
42
81
F9
89
89
4A
3C
00
00
00
00
ENDCHAR
STARTCHAR U+25F6
ENCODING 9718
SWIDTH 500 0
DWIDTH 8 0
BBX 8 16 0 -3
BITMAP
00
00
00
00
3C
42
81
9F
91
91
52
3C
00
00
00
00
ENDCHAR
STARTCHAR U+25F7
ENCODING 9719
SWIDTH 500 0
DWIDTH 8 0
BBX 8 16 0 -3
BITMAP
00
00
00
00
3C
52
91
91
9F
81
42
3C
00
00
00
00
ENDCHAR
STARTCHAR U+2620
ENCODING 9760
SWIDTH 500 0
DWIDTH 8 0
BBX 8 16 0 -3
BITMAP
00
00
00
00
00
FF
81
81
81
81
81
81
FF
00
00
00
ENDCHAR
STARTCHAR U+2621
ENCODING 9761
SWIDTH 500 0
DWIDTH 8 0
BBX 8 16 0 -3
BITMAP
00
00
00
00
00
FF
81
83
87
ED
B9
91
FF
00
00
00
ENDCHAR
STARTCHAR U+2622
ENCODING 9762
SWIDTH 500 0
DWIDTH 8 0
BBX 8 16 0 -3
BITMAP
00
00
00
00
00
FF
C3
A5
99
99
A5
C3
FF
00
00
00
ENDCHAR
STARTCHAR U+2639
ENCODING 9785
SWIDTH 500 0
DWIDTH 8 0
BBX 8 16 0 -3
BITMAP
00
00
00
7E
81
A5
A5
81
99
BD
A5
81
7E
00
00
00
ENDCHAR
STARTCHAR U+263A
ENCODING 9786
SWIDTH 500 0
DWIDTH 8 0
BBX 8 16 0 -3
BITMAP
00
00
00
7E
81
A5
A5
81
A5
BD
99
81
7E
00
00
00
ENDCHAR
STARTCHAR U+2660
ENCODING 9824
SWIDTH 500 0
DWIDTH 8 0
BBX 8 16 0 -3
BITMAP
00
00
00
00
00
10
38
7C
FE
FE
54
10
38
00
00
00
ENDCHAR
STARTCHAR U+2661
ENCODING 9825
SWIDTH 500 0
DWIDTH 8 0
BBX 8 16 0 -3
BITMAP
00
00
00
00
00
6C
FE
D6
C6
C6
6C
38
10
00
00
00
ENDCHAR
STARTCHAR U+2662
ENCODING 9826
SWIDTH 500 0
DWIDTH 8 0
BBX 8 16 0 -3
BITMAP
00
00
00
00
00
10
38
6C
C6
C6
6C
38
10
00
00
00
ENDCHAR
STARTCHAR U+2663
ENCODING 9827
SWIDTH 500 0
DWIDTH 8 0
BBX 8 16 0 -3
BITMAP
00
00
00
00
00
38
38
FE
FE
FE
D6
10
7C
00
00
00
ENDCHAR
STARTCHAR U+2664
ENCODING 9828
SWIDTH 500 0
DWIDTH 8 0
BBX 8 16 0 -3
BITMAP
00
00
00
00
00
10
38
6C
C6
FE
54
10
38
00
00
00
ENDCHAR
STARTCHAR U+2665
ENCODING 9829
SWIDTH 500 0
DWIDTH 8 0
BBX 8 16 0 -3
BITMAP
00
00
00
00
00
6C
FE
FE
FE
FE
7C
38
10
00
00
00
ENDCHAR
STARTCHAR U+2666
ENCODING 9830
SWIDTH 500 0
DWIDTH 8 0
BBX 8 16 0 -3
BITMAP
00
00
00
00
00
10
38
7C
FE
FE
7C
38
10
00
00
00
ENDCHAR
STARTCHAR U+2667
ENCODING 9831
SWIDTH 500 0
DWIDTH 8 0
BBX 8 16 0 -3
BITMAP
00
00
00
00
00
38
28
EE
92
BA
D6
10
7C
00
00
00
ENDCHAR
STARTCHAR U+2669
ENCODING 9833
SWIDTH 500 0
DWIDTH 8 0
BBX 8 16 0 -3
BITMAP
00
00
00
08
08
08
08
08
08
38
78
78
30
00
00
00
ENDCHAR
STARTCHAR U+266A
ENCODING 9834
SWIDTH 500 0
DWIDTH 8 0
BBX 8 16 0 -3
BITMAP
00
00
00
10
18
1C
16
12
12
70
F0
F0
60
00
00
00
ENDCHAR
STARTCHAR U+266B
ENCODING 9835
SWIDTH 500 0
DWIDTH 8 0
BBX 8 16 0 -3
BITMAP
00
00
00
18
1C
16
13
71
F1
F7
6F
0F
06
00
00
00
ENDCHAR
STARTCHAR U+2713
ENCODING 10003
SWIDTH 500 0
DWIDTH 8 0
BBX 8 16 0 -3
BITMAP
00
00
00
00
00
01
03
07
8E
DC
F8
70
20
00
00
00
ENDCHAR
STARTCHAR U+2714
ENCODING 10004
SWIDTH 500 0
DWIDTH 8 0
BBX 8 16 0 -3
BITMAP
00
00
00
00
00
01
03
07
8E
DC
F8
70
20
00
00
00
ENDCHAR
STARTCHAR U+2715
ENCODING 10005
SWIDTH 500 0
DWIDTH 8 0
BBX 8 16 0 -3
BITMAP
00
00
00
00
00
C3
E7
7E
3C
3C
7E
E7
C3
00
00
00
ENDCHAR
STARTCHAR U+2716
ENCODING 10006
SWIDTH 500 0
DWIDTH 8 0
BBX 8 16 0 -3
BITMAP
00
00
00
00
00
C3
E7
7E
3C
3C
7E
E7
C3
00
00
00
ENDCHAR
STARTCHAR U+276C
ENCODING 10092
SWIDTH 500 0
DWIDTH 8 0
BBX 8 16 0 -3
BITMAP
00
00
00
04
08
10
20
40
40
20
10
08
04
00
00
00
ENDCHAR
STARTCHAR U+276D
ENCODING 10093
SWIDTH 500 0
DWIDTH 8 0
BBX 8 16 0 -3
BITMAP
00
00
00
20
10
08
04
02
02
04
08
10
20
00
00
00
ENDCHAR
STARTCHAR U+276E
ENCODING 10094
SWIDTH 500 0
DWIDTH 8 0
BBX 8 16 0 -3
BITMAP
00
00
00
06
0C
18
30
60
60
30
18
0C
06
00
00
00
ENDCHAR
STARTCHAR U+276F
ENCODING 10095
SWIDTH 500 0
DWIDTH 8 0
BBX 8 16 0 -3
BITMAP
00
00
00
60
30
18
0C
06
06
0C
18
30
60
00
00
00
ENDCHAR
STARTCHAR U+27E8
ENCODING 10216
SWIDTH 500 0
DWIDTH 8 0
BBX 8 16 0 -3
BITMAP
00
06
06
0C
0C
18
18
30
30
18
18
0C
0C
06
06
00
ENDCHAR
STARTCHAR U+27E9
ENCODING 10217
SWIDTH 500 0
DWIDTH 8 0
BBX 8 16 0 -3
BITMAP
00
60
60
30
30
18
18
0C
0C
18
18
30
30
60
60
00
ENDCHAR
STARTCHAR U+2800
ENCODING 10240
SWIDTH 500 0
DWIDTH 8 0
BBX 8 16 0 -3
BITMAP
00
00
00
00
00
00
00
00
00
00
00
00
00
00
00
00
ENDCHAR
STARTCHAR U+2801
ENCODING 10241
SWIDTH 500 0
DWIDTH 8 0
BBX 8 16 0 -3
BITMAP
00
60
60
00
00
00
00
00
00
00
00
00
00
00
00
00
ENDCHAR
STARTCHAR U+2802
ENCODING 10242
SWIDTH 500 0
DWIDTH 8 0
BBX 8 16 0 -3
BITMAP
00
00
00
00
00
60
60
00
00
00
00
00
00
00
00
00
ENDCHAR
STARTCHAR U+2803
ENCODING 10243
SWIDTH 500 0
DWIDTH 8 0
BBX 8 16 0 -3
BITMAP
00
60
60
00
00
60
60
00
00
00
00
00
00
00
00
00
ENDCHAR
STARTCHAR U+2804
ENCODING 10244
SWIDTH 500 0
DWIDTH 8 0
BBX 8 16 0 -3
BITMAP
00
00
00
00
00
00
00
00
00
60
60
00
00
00
00
00
ENDCHAR
STARTCHAR U+2805
ENCODING 10245
SWIDTH 500 0
DWIDTH 8 0
BBX 8 16 0 -3
BITMAP
00
60
60
00
00
00
00
00
00
60
60
00
00
00
00
00
ENDCHAR
STARTCHAR U+2806
ENCODING 10246
SWIDTH 500 0
DWIDTH 8 0
BBX 8 16 0 -3
BITMAP
00
00
00
00
00
60
60
00
00
60
60
00
00
00
00
00
ENDCHAR
STARTCHAR U+2807
ENCODING 10247
SWIDTH 500 0
DWIDTH 8 0
BBX 8 16 0 -3
BITMAP
00
60
60
00
00
60
60
00
00
60
60
00
00
00
00
00
ENDCHAR
STARTCHAR U+2808
ENCODING 10248
SWIDTH 500 0
DWIDTH 8 0
BBX 8 16 0 -3
BITMAP
00
06
06
00
00
00
00
00
00
00
00
00
00
00
00
00
ENDCHAR
STARTCHAR U+2809
ENCODING 10249
SWIDTH 500 0
DWIDTH 8 0
BBX 8 16 0 -3
BITMAP
00
66
66
00
00
00
00
00
00
00
00
00
00
00
00
00
ENDCHAR
STARTCHAR U+280A
ENCODING 10250
SWIDTH 500 0
DWIDTH 8 0
BBX 8 16 0 -3
BITMAP
00
06
06
00
00
60
60
00
00
00
00
00
00
00
00
00
ENDCHAR
STARTCHAR U+280B
ENCODING 10251
SWIDTH 500 0
DWIDTH 8 0
BBX 8 16 0 -3
BITMAP
00
66
66
00
00
60
60
00
00
00
00
00
00
00
00
00
ENDCHAR
STARTCHAR U+280C
ENCODING 10252
SWIDTH 500 0
DWIDTH 8 0
BBX 8 16 0 -3
BITMAP
00
06
06
00
00
00
00
00
00
60
60
00
00
00
00
00
ENDCHAR
STARTCHAR U+280D
ENCODING 10253
SWIDTH 500 0
DWIDTH 8 0
BBX 8 16 0 -3
BITMAP
00
66
66
00
00
00
00
00
00
60
60
00
00
00
00
00
ENDCHAR
STARTCHAR U+280E
ENCODING 10254
SWIDTH 500 0
DWIDTH 8 0
BBX 8 16 0 -3
BITMAP
00
06
06
00
00
60
60
00
00
60
60
00
00
00
00
00
ENDCHAR
STARTCHAR U+280F
ENCODING 10255
SWIDTH 500 0
DWIDTH 8 0
BBX 8 16 0 -3
BITMAP
00
66
66
00
00
60
60
00
00
60
60
00
00
00
00
00
ENDCHAR
STARTCHAR U+2810
ENCODING 10256
SWIDTH 500 0
DWIDTH 8 0
BBX 8 16 0 -3
BITMAP
00
00
00
00
00
06
06
00
00
00
00
00
00
00
00
00
ENDCHAR
STARTCHAR U+2811
ENCODING 10257
SWIDTH 500 0
DWIDTH 8 0
BBX 8 16 0 -3
BITMAP
00
60
60
00
00
06
06
00
00
00
00
00
00
00
00
00
ENDCHAR
STARTCHAR U+2812
ENCODING 10258
SWIDTH 500 0
DWIDTH 8 0
BBX 8 16 0 -3
BITMAP
00
00
00
00
00
66
66
00
00
00
00
00
00
00
00
00
ENDCHAR
STARTCHAR U+2813
ENCODING 10259
SWIDTH 500 0
DWIDTH 8 0
BBX 8 16 0 -3
BITMAP
00
60
60
00
00
66
66
00
00
00
00
00
00
00
00
00
ENDCHAR
STARTCHAR U+2814
ENCODING 10260
SWIDTH 500 0
DWIDTH 8 0
BBX 8 16 0 -3
BITMAP
00
00
00
00
00
06
06
00
00
60
60
00
00
00
00
00
ENDCHAR
STARTCHAR U+2815
ENCODING 10261
SWIDTH 500 0
DWIDTH 8 0
BBX 8 16 0 -3
BITMAP
00
60
60
00
00
06
06
00
00
60
60
00
00
00
00
00
ENDCHAR
STARTCHAR U+2816
ENCODING 10262
SWIDTH 500 0
DWIDTH 8 0
BBX 8 16 0 -3
BITMAP
00
00
00
00
00
66
66
00
00
60
60
00
00
00
00
00
ENDCHAR
STARTCHAR U+2817
ENCODING 10263
SWIDTH 500 0
DWIDTH 8 0
BBX 8 16 0 -3
BITMAP
00
60
60
00
00
66
66
00
00
60
60
00
00
00
00
00
ENDCHAR
STARTCHAR U+2818
ENCODING 10264
SWIDTH 500 0
DWIDTH 8 0
BBX 8 16 0 -3
BITMAP
00
06
06
00
00
06
06
00
00
00
00
00
00
00
00
00
ENDCHAR
STARTCHAR U+2819
ENCODING 10265
SWIDTH 500 0
DWIDTH 8 0
BBX 8 16 0 -3
BITMAP
00
66
66
00
00
06
06
00
00
00
00
00
00
00
00
00
ENDCHAR
STARTCHAR U+281A
ENCODING 10266
SWIDTH 500 0
DWIDTH 8 0
BBX 8 16 0 -3
BITMAP
00
06
06
00
00
66
66
00
00
00
00
00
00
00
00
00
ENDCHAR
STARTCHAR U+281B
ENCODING 10267
SWIDTH 500 0
DWIDTH 8 0
BBX 8 16 0 -3
BITMAP
00
66
66
00
00
66
66
00
00
00
00
00
00
00
00
00
ENDCHAR
STARTCHAR U+281C
ENCODING 10268
SWIDTH 500 0
DWIDTH 8 0
BBX 8 16 0 -3
BITMAP
00
06
06
00
00
06
06
00
00
60
60
00
00
00
00
00
ENDCHAR
STARTCHAR U+281D
ENCODING 10269
SWIDTH 500 0
DWIDTH 8 0
BBX 8 16 0 -3
BITMAP
00
66
66
00
00
06
06
00
00
60
60
00
00
00
00
00
ENDCHAR
STARTCHAR U+281E
ENCODING 10270
SWIDTH 500 0
DWIDTH 8 0
BBX 8 16 0 -3
BITMAP
00
06
06
00
00
66
66
00
00
60
60
00
00
00
00
00
ENDCHAR
STARTCHAR U+281F
ENCODING 10271
SWIDTH 500 0
DWIDTH 8 0
BBX 8 16 0 -3
BITMAP
00
66
66
00
00
66
66
00
00
60
60
00
00
00
00
00
ENDCHAR
STARTCHAR U+2820
ENCODING 10272
SWIDTH 500 0
DWIDTH 8 0
BBX 8 16 0 -3
BITMAP
00
00
00
00
00
00
00
00
00
06
06
00
00
00
00
00
ENDCHAR
STARTCHAR U+2821
ENCODING 10273
SWIDTH 500 0
DWIDTH 8 0
BBX 8 16 0 -3
BITMAP
00
60
60
00
00
00
00
00
00
06
06
00
00
00
00
00
ENDCHAR
STARTCHAR U+2822
ENCODING 10274
SWIDTH 500 0
DWIDTH 8 0
BBX 8 16 0 -3
BITMAP
00
00
00
00
00
60
60
00
00
06
06
00
00
00
00
00
ENDCHAR
STARTCHAR U+2823
ENCODING 10275
SWIDTH 500 0
DWIDTH 8 0
BBX 8 16 0 -3
BITMAP
00
60
60
00
00
60
60
00
00
06
06
00
00
00
00
00
ENDCHAR
STARTCHAR U+2824
ENCODING 10276
SWIDTH 500 0
DWIDTH 8 0
BBX 8 16 0 -3
BITMAP
00
00
00
00
00
00
00
00
00
66
66
00
00
00
00
00
ENDCHAR
STARTCHAR U+2825
ENCODING 10277
SWIDTH 500 0
DWIDTH 8 0
BBX 8 16 0 -3
BITMAP
00
60
60
00
00
00
00
00
00
66
66
00
00
00
00
00
ENDCHAR
STARTCHAR U+2826
ENCODING 10278
SWIDTH 500 0
DWIDTH 8 0
BBX 8 16 0 -3
BITMAP
00
00
00
00
00
60
60
00
00
66
66
00
00
00
00
00
ENDCHAR
STARTCHAR U+2827
ENCODING 10279
SWIDTH 500 0
DWIDTH 8 0
BBX 8 16 0 -3
BITMAP
00
60
60
00
00
60
60
00
00
66
66
00
00
00
00
00
ENDCHAR
STARTCHAR U+2828
ENCODING 10280
SWIDTH 500 0
DWIDTH 8 0
BBX 8 16 0 -3
BITMAP
00
06
06
00
00
00
00
00
00
06
06
00
00
00
00
00
ENDCHAR
STARTCHAR U+2829
ENCODING 10281
SWIDTH 500 0
DWIDTH 8 0
BBX 8 16 0 -3
BITMAP
00
66
66
00
00
00
00
00
00
06
06
00
00
00
00
00
ENDCHAR
STARTCHAR U+282A
ENCODING 10282
SWIDTH 500 0
DWIDTH 8 0
BBX 8 16 0 -3
BITMAP
00
06
06
00
00
60
60
00
00
06
06
00
00
00
00
00
ENDCHAR
STARTCHAR U+282B
ENCODING 10283
SWIDTH 500 0
DWIDTH 8 0
BBX 8 16 0 -3
BITMAP
00
66
66
00
00
60
60
00
00
06
06
00
00
00
00
00
ENDCHAR
STARTCHAR U+282C
ENCODING 10284
SWIDTH 500 0
DWIDTH 8 0
BBX 8 16 0 -3
BITMAP
00
06
06
00
00
00
00
00
00
66
66
00
00
00
00
00
ENDCHAR
STARTCHAR U+282D
ENCODING 10285
SWIDTH 500 0
DWIDTH 8 0
BBX 8 16 0 -3
BITMAP
00
66
66
00
00
00
00
00
00
66
66
00
00
00
00
00
ENDCHAR
STARTCHAR U+282E
ENCODING 10286
SWIDTH 500 0
DWIDTH 8 0
BBX 8 16 0 -3
BITMAP
00
06
06
00
00
60
60
00
00
66
66
00
00
00
00
00
ENDCHAR
STARTCHAR U+282F
ENCODING 10287
SWIDTH 500 0
DWIDTH 8 0
BBX 8 16 0 -3
BITMAP
00
66
66
00
00
60
60
00
00
66
66
00
00
00
00
00
ENDCHAR
STARTCHAR U+2830
ENCODING 10288
SWIDTH 500 0
DWIDTH 8 0
BBX 8 16 0 -3
BITMAP
00
00
00
00
00
06
06
00
00
06
06
00
00
00
00
00
ENDCHAR
STARTCHAR U+2831
ENCODING 10289
SWIDTH 500 0
DWIDTH 8 0
BBX 8 16 0 -3
BITMAP
00
60
60
00
00
06
06
00
00
06
06
00
00
00
00
00
ENDCHAR
STARTCHAR U+2832
ENCODING 10290
SWIDTH 500 0
DWIDTH 8 0
BBX 8 16 0 -3
BITMAP
00
00
00
00
00
66
66
00
00
06
06
00
00
00
00
00
ENDCHAR
STARTCHAR U+2833
ENCODING 10291
SWIDTH 500 0
DWIDTH 8 0
BBX 8 16 0 -3
BITMAP
00
60
60
00
00
66
66
00
00
06
06
00
00
00
00
00
ENDCHAR
STARTCHAR U+2834
ENCODING 10292
SWIDTH 500 0
DWIDTH 8 0
BBX 8 16 0 -3
BITMAP
00
00
00
00
00
06
06
00
00
66
66
00
00
00
00
00
ENDCHAR
STARTCHAR U+2835
ENCODING 10293
SWIDTH 500 0
DWIDTH 8 0
BBX 8 16 0 -3
BITMAP
00
60
60
00
00
06
06
00
00
66
66
00
00
00
00
00
ENDCHAR
STARTCHAR U+2836
ENCODING 10294
SWIDTH 500 0
DWIDTH 8 0
BBX 8 16 0 -3
BITMAP
00
00
00
00
00
66
66
00
00
66
66
00
00
00
00
00
ENDCHAR
STARTCHAR U+2837
ENCODING 10295
SWIDTH 500 0
DWIDTH 8 0
BBX 8 16 0 -3
BITMAP
00
60
60
00
00
66
66
00
00
66
66
00
00
00
00
00
ENDCHAR
STARTCHAR U+2838
ENCODING 10296
SWIDTH 500 0
DWIDTH 8 0
BBX 8 16 0 -3
BITMAP
00
06
06
00
00
06
06
00
00
06
06
00
00
00
00
00
ENDCHAR
STARTCHAR U+2839
ENCODING 10297
SWIDTH 500 0
DWIDTH 8 0
BBX 8 16 0 -3
BITMAP
00
66
66
00
00
06
06
00
00
06
06
00
00
00
00
00
ENDCHAR
STARTCHAR U+283A
ENCODING 10298
SWIDTH 500 0
DWIDTH 8 0
BBX 8 16 0 -3
BITMAP
00
06
06
00
00
66
66
00
00
06
06
00
00
00
00
00
ENDCHAR
STARTCHAR U+283B
ENCODING 10299
SWIDTH 500 0
DWIDTH 8 0
BBX 8 16 0 -3
BITMAP
00
66
66
00
00
66
66
00
00
06
06
00
00
00
00
00
ENDCHAR
STARTCHAR U+283C
ENCODING 10300
SWIDTH 500 0
DWIDTH 8 0
BBX 8 16 0 -3
BITMAP
00
06
06
00
00
06
06
00
00
66
66
00
00
00
00
00
ENDCHAR
STARTCHAR U+283D
ENCODING 10301
SWIDTH 500 0
DWIDTH 8 0
BBX 8 16 0 -3
BITMAP
00
66
66
00
00
06
06
00
00
66
66
00
00
00
00
00
ENDCHAR
STARTCHAR U+283E
ENCODING 10302
SWIDTH 500 0
DWIDTH 8 0
BBX 8 16 0 -3
BITMAP
00
06
06
00
00
66
66
00
00
66
66
00
00
00
00
00
ENDCHAR
STARTCHAR U+283F
ENCODING 10303
SWIDTH 500 0
DWIDTH 8 0
BBX 8 16 0 -3
BITMAP
00
66
66
00
00
66
66
00
00
66
66
00
00
00
00
00
ENDCHAR
STARTCHAR U+2840
ENCODING 10304
SWIDTH 500 0
DWIDTH 8 0
BBX 8 16 0 -3
BITMAP
00
00
00
00
00
00
00
00
00
00
00
00
00
60
60
00
ENDCHAR
STARTCHAR U+2841
ENCODING 10305
SWIDTH 500 0
DWIDTH 8 0
BBX 8 16 0 -3
BITMAP
00
60
60
00
00
00
00
00
00
00
00
00
00
60
60
00
ENDCHAR
STARTCHAR U+2842
ENCODING 10306
SWIDTH 500 0
DWIDTH 8 0
BBX 8 16 0 -3
BITMAP
00
00
00
00
00
60
60
00
00
00
00
00
00
60
60
00
ENDCHAR
STARTCHAR U+2843
ENCODING 10307
SWIDTH 500 0
DWIDTH 8 0
BBX 8 16 0 -3
BITMAP
00
60
60
00
00
60
60
00
00
00
00
00
00
60
60
00
ENDCHAR
STARTCHAR U+2844
ENCODING 10308
SWIDTH 500 0
DWIDTH 8 0
BBX 8 16 0 -3
BITMAP
00
00
00
00
00
00
00
00
00
60
60
00
00
60
60
00
ENDCHAR
STARTCHAR U+2845
ENCODING 10309
SWIDTH 500 0
DWIDTH 8 0
BBX 8 16 0 -3
BITMAP
00
60
60
00
00
00
00
00
00
60
60
00
00
60
60
00
ENDCHAR
STARTCHAR U+2846
ENCODING 10310
SWIDTH 500 0
DWIDTH 8 0
BBX 8 16 0 -3
BITMAP
00
00
00
00
00
60
60
00
00
60
60
00
00
60
60
00
ENDCHAR
STARTCHAR U+2847
ENCODING 10311
SWIDTH 500 0
DWIDTH 8 0
BBX 8 16 0 -3
BITMAP
00
60
60
00
00
60
60
00
00
60
60
00
00
60
60
00
ENDCHAR
STARTCHAR U+2848
ENCODING 10312
SWIDTH 500 0
DWIDTH 8 0
BBX 8 16 0 -3
BITMAP
00
06
06
00
00
00
00
00
00
00
00
00
00
60
60
00
ENDCHAR
STARTCHAR U+2849
ENCODING 10313
SWIDTH 500 0
DWIDTH 8 0
BBX 8 16 0 -3
BITMAP
00
66
66
00
00
00
00
00
00
00
00
00
00
60
60
00
ENDCHAR
STARTCHAR U+284A
ENCODING 10314
SWIDTH 500 0
DWIDTH 8 0
BBX 8 16 0 -3
BITMAP
00
06
06
00
00
60
60
00
00
00
00
00
00
60
60
00
ENDCHAR
STARTCHAR U+284B
ENCODING 10315
SWIDTH 500 0
DWIDTH 8 0
BBX 8 16 0 -3
BITMAP
00
66
66
00
00
60
60
00
00
00
00
00
00
60
60
00
ENDCHAR
STARTCHAR U+284C
ENCODING 10316
SWIDTH 500 0
DWIDTH 8 0
BBX 8 16 0 -3
BITMAP
00
06
06
00
00
00
00
00
00
60
60
00
00
60
60
00
ENDCHAR
STARTCHAR U+284D
ENCODING 10317
SWIDTH 500 0
DWIDTH 8 0
BBX 8 16 0 -3
BITMAP
00
66
66
00
00
00
00
00
00
60
60
00
00
60
60
00
ENDCHAR
STARTCHAR U+284E
ENCODING 10318
SWIDTH 500 0
DWIDTH 8 0
BBX 8 16 0 -3
BITMAP
00
06
06
00
00
60
60
00
00
60
60
00
00
60
60
00
ENDCHAR
STARTCHAR U+284F
ENCODING 10319
SWIDTH 500 0
DWIDTH 8 0
BBX 8 16 0 -3
BITMAP
00
66
66
00
00
60
60
00
00
60
60
00
00
60
60
00
ENDCHAR
STARTCHAR U+2850
ENCODING 10320
SWIDTH 500 0
DWIDTH 8 0
BBX 8 16 0 -3
BITMAP
00
00
00
00
00
06
06
00
00
00
00
00
00
60
60
00
ENDCHAR
STARTCHAR U+2851
ENCODING 10321
SWIDTH 500 0
DWIDTH 8 0
BBX 8 16 0 -3
BITMAP
00
60
60
00
00
06
06
00
00
00
00
00
00
60
60
00
ENDCHAR
STARTCHAR U+2852
ENCODING 10322
SWIDTH 500 0
DWIDTH 8 0
BBX 8 16 0 -3
BITMAP
00
00
00
00
00
66
66
00
00
00
00
00
00
60
60
00
ENDCHAR
STARTCHAR U+2853
ENCODING 10323
SWIDTH 500 0
DWIDTH 8 0
BBX 8 16 0 -3
BITMAP
00
60
60
00
00
66
66
00
00
00
00
00
00
60
60
00
ENDCHAR
STARTCHAR U+2854
ENCODING 10324
SWIDTH 500 0
DWIDTH 8 0
BBX 8 16 0 -3
BITMAP
00
00
00
00
00
06
06
00
00
60
60
00
00
60
60
00
ENDCHAR
STARTCHAR U+2855
ENCODING 10325
SWIDTH 500 0
DWIDTH 8 0
BBX 8 16 0 -3
BITMAP
00
60
60
00
00
06
06
00
00
60
60
00
00
60
60
00
ENDCHAR
STARTCHAR U+2856
ENCODING 10326
SWIDTH 500 0
DWIDTH 8 0
BBX 8 16 0 -3
BITMAP
00
00
00
00
00
66
66
00
00
60
60
00
00
60
60
00
ENDCHAR
STARTCHAR U+2857
ENCODING 10327
SWIDTH 500 0
DWIDTH 8 0
BBX 8 16 0 -3
BITMAP
00
60
60
00
00
66
66
00
00
60
60
00
00
60
60
00
ENDCHAR
STARTCHAR U+2858
ENCODING 10328
SWIDTH 500 0
DWIDTH 8 0
BBX 8 16 0 -3
BITMAP
00
06
06
00
00
06
06
00
00
00
00
00
00
60
60
00
ENDCHAR
STARTCHAR U+2859
ENCODING 10329
SWIDTH 500 0
DWIDTH 8 0
BBX 8 16 0 -3
BITMAP
00
66
66
00
00
06
06
00
00
00
00
00
00
60
60
00
ENDCHAR
STARTCHAR U+285A
ENCODING 10330
SWIDTH 500 0
DWIDTH 8 0
BBX 8 16 0 -3
BITMAP
00
06
06
00
00
66
66
00
00
00
00
00
00
60
60
00
ENDCHAR
STARTCHAR U+285B
ENCODING 10331
SWIDTH 500 0
DWIDTH 8 0
BBX 8 16 0 -3
BITMAP
00
66
66
00
00
66
66
00
00
00
00
00
00
60
60
00
ENDCHAR
STARTCHAR U+285C
ENCODING 10332
SWIDTH 500 0
DWIDTH 8 0
BBX 8 16 0 -3
BITMAP
00
06
06
00
00
06
06
00
00
60
60
00
00
60
60
00
ENDCHAR
STARTCHAR U+285D
ENCODING 10333
SWIDTH 500 0
DWIDTH 8 0
BBX 8 16 0 -3
BITMAP
00
66
66
00
00
06
06
00
00
60
60
00
00
60
60
00
ENDCHAR
STARTCHAR U+285E
ENCODING 10334
SWIDTH 500 0
DWIDTH 8 0
BBX 8 16 0 -3
BITMAP
00
06
06
00
00
66
66
00
00
60
60
00
00
60
60
00
ENDCHAR
STARTCHAR U+285F
ENCODING 10335
SWIDTH 500 0
DWIDTH 8 0
BBX 8 16 0 -3
BITMAP
00
66
66
00
00
66
66
00
00
60
60
00
00
60
60
00
ENDCHAR
STARTCHAR U+2860
ENCODING 10336
SWIDTH 500 0
DWIDTH 8 0
BBX 8 16 0 -3
BITMAP
00
00
00
00
00
00
00
00
00
06
06
00
00
60
60
00
ENDCHAR
STARTCHAR U+2861
ENCODING 10337
SWIDTH 500 0
DWIDTH 8 0
BBX 8 16 0 -3
BITMAP
00
60
60
00
00
00
00
00
00
06
06
00
00
60
60
00
ENDCHAR
STARTCHAR U+2862
ENCODING 10338
SWIDTH 500 0
DWIDTH 8 0
BBX 8 16 0 -3
BITMAP
00
00
00
00
00
60
60
00
00
06
06
00
00
60
60
00
ENDCHAR
STARTCHAR U+2863
ENCODING 10339
SWIDTH 500 0
DWIDTH 8 0
BBX 8 16 0 -3
BITMAP
00
60
60
00
00
60
60
00
00
06
06
00
00
60
60
00
ENDCHAR
STARTCHAR U+2864
ENCODING 10340
SWIDTH 500 0
DWIDTH 8 0
BBX 8 16 0 -3
BITMAP
00
00
00
00
00
00
00
00
00
66
66
00
00
60
60
00
ENDCHAR
STARTCHAR U+2865
ENCODING 10341
SWIDTH 500 0
DWIDTH 8 0
BBX 8 16 0 -3
BITMAP
00
60
60
00
00
00
00
00
00
66
66
00
00
60
60
00
ENDCHAR
STARTCHAR U+2866
ENCODING 10342
SWIDTH 500 0
DWIDTH 8 0
BBX 8 16 0 -3
BITMAP
00
00
00
00
00
60
60
00
00
66
66
00
00
60
60
00
ENDCHAR
STARTCHAR U+2867
ENCODING 10343
SWIDTH 500 0
DWIDTH 8 0
BBX 8 16 0 -3
BITMAP
00
60
60
00
00
60
60
00
00
66
66
00
00
60
60
00
ENDCHAR
STARTCHAR U+2868
ENCODING 10344
SWIDTH 500 0
DWIDTH 8 0
BBX 8 16 0 -3
BITMAP
00
06
06
00
00
00
00
00
00
06
06
00
00
60
60
00
ENDCHAR
STARTCHAR U+2869
ENCODING 10345
SWIDTH 500 0
DWIDTH 8 0
BBX 8 16 0 -3
BITMAP
00
66
66
00
00
00
00
00
00
06
06
00
00
60
60
00
ENDCHAR
STARTCHAR U+286A
ENCODING 10346
SWIDTH 500 0
DWIDTH 8 0
BBX 8 16 0 -3
BITMAP
00
06
06
00
00
60
60
00
00
06
06
00
00
60
60
00
ENDCHAR
STARTCHAR U+286B
ENCODING 10347
SWIDTH 500 0
DWIDTH 8 0
BBX 8 16 0 -3
BITMAP
00
66
66
00
00
60
60
00
00
06
06
00
00
60
60
00
ENDCHAR
STARTCHAR U+286C
ENCODING 10348
SWIDTH 500 0
DWIDTH 8 0
BBX 8 16 0 -3
BITMAP
00
06
06
00
00
00
00
00
00
66
66
00
00
60
60
00
ENDCHAR
STARTCHAR U+286D
ENCODING 10349
SWIDTH 500 0
DWIDTH 8 0
BBX 8 16 0 -3
BITMAP
00
66
66
00
00
00
00
00
00
66
66
00
00
60
60
00
ENDCHAR
STARTCHAR U+286E
ENCODING 10350
SWIDTH 500 0
DWIDTH 8 0
BBX 8 16 0 -3
BITMAP
00
06
06
00
00
60
60
00
00
66
66
00
00
60
60
00
ENDCHAR
STARTCHAR U+286F
ENCODING 10351
SWIDTH 500 0
DWIDTH 8 0
BBX 8 16 0 -3
BITMAP
00
66
66
00
00
60
60
00
00
66
66
00
00
60
60
00
ENDCHAR
STARTCHAR U+2870
ENCODING 10352
SWIDTH 500 0
DWIDTH 8 0
BBX 8 16 0 -3
BITMAP
00
00
00
00
00
06
06
00
00
06
06
00
00
60
60
00
ENDCHAR
STARTCHAR U+2871
ENCODING 10353
SWIDTH 500 0
DWIDTH 8 0
BBX 8 16 0 -3
BITMAP
00
60
60
00
00
06
06
00
00
06
06
00
00
60
60
00
ENDCHAR
STARTCHAR U+2872
ENCODING 10354
SWIDTH 500 0
DWIDTH 8 0
BBX 8 16 0 -3
BITMAP
00
00
00
00
00
66
66
00
00
06
06
00
00
60
60
00
ENDCHAR
STARTCHAR U+2873
ENCODING 10355
SWIDTH 500 0
DWIDTH 8 0
BBX 8 16 0 -3
BITMAP
00
60
60
00
00
66
66
00
00
06
06
00
00
60
60
00
ENDCHAR
STARTCHAR U+2874
ENCODING 10356
SWIDTH 500 0
DWIDTH 8 0
BBX 8 16 0 -3
BITMAP
00
00
00
00
00
06
06
00
00
66
66
00
00
60
60
00
ENDCHAR
STARTCHAR U+2875
ENCODING 10357
SWIDTH 500 0
DWIDTH 8 0
BBX 8 16 0 -3
BITMAP
00
60
60
00
00
06
06
00
00
66
66
00
00
60
60
00
ENDCHAR
STARTCHAR U+2876
ENCODING 10358
SWIDTH 500 0
DWIDTH 8 0
BBX 8 16 0 -3
BITMAP
00
00
00
00
00
66
66
00
00
66
66
00
00
60
60
00
ENDCHAR
STARTCHAR U+2877
ENCODING 10359
SWIDTH 500 0
DWIDTH 8 0
BBX 8 16 0 -3
BITMAP
00
60
60
00
00
66
66
00
00
66
66
00
00
60
60
00
ENDCHAR
STARTCHAR U+2878
ENCODING 10360
SWIDTH 500 0
DWIDTH 8 0
BBX 8 16 0 -3
BITMAP
00
06
06
00
00
06
06
00
00
06
06
00
00
60
60
00
ENDCHAR
STARTCHAR U+2879
ENCODING 10361
SWIDTH 500 0
DWIDTH 8 0
BBX 8 16 0 -3
BITMAP
00
66
66
00
00
06
06
00
00
06
06
00
00
60
60
00
ENDCHAR
STARTCHAR U+287A
ENCODING 10362
SWIDTH 500 0
DWIDTH 8 0
BBX 8 16 0 -3
BITMAP
00
06
06
00
00
66
66
00
00
06
06
00
00
60
60
00
ENDCHAR
STARTCHAR U+287B
ENCODING 10363
SWIDTH 500 0
DWIDTH 8 0
BBX 8 16 0 -3
BITMAP
00
66
66
00
00
66
66
00
00
06
06
00
00
60
60
00
ENDCHAR
STARTCHAR U+287C
ENCODING 10364
SWIDTH 500 0
DWIDTH 8 0
BBX 8 16 0 -3
BITMAP
00
06
06
00
00
06
06
00
00
66
66
00
00
60
60
00
ENDCHAR
STARTCHAR U+287D
ENCODING 10365
SWIDTH 500 0
DWIDTH 8 0
BBX 8 16 0 -3
BITMAP
00
66
66
00
00
06
06
00
00
66
66
00
00
60
60
00
ENDCHAR
STARTCHAR U+287E
ENCODING 10366
SWIDTH 500 0
DWIDTH 8 0
BBX 8 16 0 -3
BITMAP
00
06
06
00
00
66
66
00
00
66
66
00
00
60
60
00
ENDCHAR
STARTCHAR U+287F
ENCODING 10367
SWIDTH 500 0
DWIDTH 8 0
BBX 8 16 0 -3
BITMAP
00
66
66
00
00
66
66
00
00
66
66
00
00
60
60
00
ENDCHAR
STARTCHAR U+2880
ENCODING 10368
SWIDTH 500 0
DWIDTH 8 0
BBX 8 16 0 -3
BITMAP
00
00
00
00
00
00
00
00
00
00
00
00
00
06
06
00
ENDCHAR
STARTCHAR U+2881
ENCODING 10369
SWIDTH 500 0
DWIDTH 8 0
BBX 8 16 0 -3
BITMAP
00
60
60
00
00
00
00
00
00
00
00
00
00
06
06
00
ENDCHAR
STARTCHAR U+2882
ENCODING 10370
SWIDTH 500 0
DWIDTH 8 0
BBX 8 16 0 -3
BITMAP
00
00
00
00
00
60
60
00
00
00
00
00
00
06
06
00
ENDCHAR
STARTCHAR U+2883
ENCODING 10371
SWIDTH 500 0
DWIDTH 8 0
BBX 8 16 0 -3
BITMAP
00
60
60
00
00
60
60
00
00
00
00
00
00
06
06
00
ENDCHAR
STARTCHAR U+2884
ENCODING 10372
SWIDTH 500 0
DWIDTH 8 0
BBX 8 16 0 -3
BITMAP
00
00
00
00
00
00
00
00
00
60
60
00
00
06
06
00
ENDCHAR
STARTCHAR U+2885
ENCODING 10373
SWIDTH 500 0
DWIDTH 8 0
BBX 8 16 0 -3
BITMAP
00
60
60
00
00
00
00
00
00
60
60
00
00
06
06
00
ENDCHAR
STARTCHAR U+2886
ENCODING 10374
SWIDTH 500 0
DWIDTH 8 0
BBX 8 16 0 -3
BITMAP
00
00
00
00
00
60
60
00
00
60
60
00
00
06
06
00
ENDCHAR
STARTCHAR U+2887
ENCODING 10375
SWIDTH 500 0
DWIDTH 8 0
BBX 8 16 0 -3
BITMAP
00
60
60
00
00
60
60
00
00
60
60
00
00
06
06
00
ENDCHAR
STARTCHAR U+2888
ENCODING 10376
SWIDTH 500 0
DWIDTH 8 0
BBX 8 16 0 -3
BITMAP
00
06
06
00
00
00
00
00
00
00
00
00
00
06
06
00
ENDCHAR
STARTCHAR U+2889
ENCODING 10377
SWIDTH 500 0
DWIDTH 8 0
BBX 8 16 0 -3
BITMAP
00
66
66
00
00
00
00
00
00
00
00
00
00
06
06
00
ENDCHAR
STARTCHAR U+288A
ENCODING 10378
SWIDTH 500 0
DWIDTH 8 0
BBX 8 16 0 -3
BITMAP
00
06
06
00
00
60
60
00
00
00
00
00
00
06
06
00
ENDCHAR
STARTCHAR U+288B
ENCODING 10379
SWIDTH 500 0
DWIDTH 8 0
BBX 8 16 0 -3
BITMAP
00
66
66
00
00
60
60
00
00
00
00
00
00
06
06
00
ENDCHAR
STARTCHAR U+288C
ENCODING 10380
SWIDTH 500 0
DWIDTH 8 0
BBX 8 16 0 -3
BITMAP
00
06
06
00
00
00
00
00
00
60
60
00
00
06
06
00
ENDCHAR
STARTCHAR U+288D
ENCODING 10381
SWIDTH 500 0
DWIDTH 8 0
BBX 8 16 0 -3
BITMAP
00
66
66
00
00
00
00
00
00
60
60
00
00
06
06
00
ENDCHAR
STARTCHAR U+288E
ENCODING 10382
SWIDTH 500 0
DWIDTH 8 0
BBX 8 16 0 -3
BITMAP
00
06
06
00
00
60
60
00
00
60
60
00
00
06
06
00
ENDCHAR
STARTCHAR U+288F
ENCODING 10383
SWIDTH 500 0
DWIDTH 8 0
BBX 8 16 0 -3
BITMAP
00
66
66
00
00
60
60
00
00
60
60
00
00
06
06
00
ENDCHAR
STARTCHAR U+2890
ENCODING 10384
SWIDTH 500 0
DWIDTH 8 0
BBX 8 16 0 -3
BITMAP
00
00
00
00
00
06
06
00
00
00
00
00
00
06
06
00
ENDCHAR
STARTCHAR U+2891
ENCODING 10385
SWIDTH 500 0
DWIDTH 8 0
BBX 8 16 0 -3
BITMAP
00
60
60
00
00
06
06
00
00
00
00
00
00
06
06
00
ENDCHAR
STARTCHAR U+2892
ENCODING 10386
SWIDTH 500 0
DWIDTH 8 0
BBX 8 16 0 -3
BITMAP
00
00
00
00
00
66
66
00
00
00
00
00
00
06
06
00
ENDCHAR
STARTCHAR U+2893
ENCODING 10387
SWIDTH 500 0
DWIDTH 8 0
BBX 8 16 0 -3
BITMAP
00
60
60
00
00
66
66
00
00
00
00
00
00
06
06
00
ENDCHAR
STARTCHAR U+2894
ENCODING 10388
SWIDTH 500 0
DWIDTH 8 0
BBX 8 16 0 -3
BITMAP
00
00
00
00
00
06
06
00
00
60
60
00
00
06
06
00
ENDCHAR
STARTCHAR U+2895
ENCODING 10389
SWIDTH 500 0
DWIDTH 8 0
BBX 8 16 0 -3
BITMAP
00
60
60
00
00
06
06
00
00
60
60
00
00
06
06
00
ENDCHAR
STARTCHAR U+2896
ENCODING 10390
SWIDTH 500 0
DWIDTH 8 0
BBX 8 16 0 -3
BITMAP
00
00
00
00
00
66
66
00
00
60
60
00
00
06
06
00
ENDCHAR
STARTCHAR U+2897
ENCODING 10391
SWIDTH 500 0
DWIDTH 8 0
BBX 8 16 0 -3
BITMAP
00
60
60
00
00
66
66
00
00
60
60
00
00
06
06
00
ENDCHAR
STARTCHAR U+2898
ENCODING 10392
SWIDTH 500 0
DWIDTH 8 0
BBX 8 16 0 -3
BITMAP
00
06
06
00
00
06
06
00
00
00
00
00
00
06
06
00
ENDCHAR
STARTCHAR U+2899
ENCODING 10393
SWIDTH 500 0
DWIDTH 8 0
BBX 8 16 0 -3
BITMAP
00
66
66
00
00
06
06
00
00
00
00
00
00
06
06
00
ENDCHAR
STARTCHAR U+289A
ENCODING 10394
SWIDTH 500 0
DWIDTH 8 0
BBX 8 16 0 -3
BITMAP
00
06
06
00
00
66
66
00
00
00
00
00
00
06
06
00
ENDCHAR
STARTCHAR U+289B
ENCODING 10395
SWIDTH 500 0
DWIDTH 8 0
BBX 8 16 0 -3
BITMAP
00
66
66
00
00
66
66
00
00
00
00
00
00
06
06
00
ENDCHAR
STARTCHAR U+289C
ENCODING 10396
SWIDTH 500 0
DWIDTH 8 0
BBX 8 16 0 -3
BITMAP
00
06
06
00
00
06
06
00
00
60
60
00
00
06
06
00
ENDCHAR
STARTCHAR U+289D
ENCODING 10397
SWIDTH 500 0
DWIDTH 8 0
BBX 8 16 0 -3
BITMAP
00
66
66
00
00
06
06
00
00
60
60
00
00
06
06
00
ENDCHAR
STARTCHAR U+289E
ENCODING 10398
SWIDTH 500 0
DWIDTH 8 0
BBX 8 16 0 -3
BITMAP
00
06
06
00
00
66
66
00
00
60
60
00
00
06
06
00
ENDCHAR
STARTCHAR U+289F
ENCODING 10399
SWIDTH 500 0
DWIDTH 8 0
BBX 8 16 0 -3
BITMAP
00
66
66
00
00
66
66
00
00
60
60
00
00
06
06
00
ENDCHAR
STARTCHAR U+28A0
ENCODING 10400
SWIDTH 500 0
DWIDTH 8 0
BBX 8 16 0 -3
BITMAP
00
00
00
00
00
00
00
00
00
06
06
00
00
06
06
00
ENDCHAR
STARTCHAR U+28A1
ENCODING 10401
SWIDTH 500 0
DWIDTH 8 0
BBX 8 16 0 -3
BITMAP
00
60
60
00
00
00
00
00
00
06
06
00
00
06
06
00
ENDCHAR
STARTCHAR U+28A2
ENCODING 10402
SWIDTH 500 0
DWIDTH 8 0
BBX 8 16 0 -3
BITMAP
00
00
00
00
00
60
60
00
00
06
06
00
00
06
06
00
ENDCHAR
STARTCHAR U+28A3
ENCODING 10403
SWIDTH 500 0
DWIDTH 8 0
BBX 8 16 0 -3
BITMAP
00
60
60
00
00
60
60
00
00
06
06
00
00
06
06
00
ENDCHAR
STARTCHAR U+28A4
ENCODING 10404
SWIDTH 500 0
DWIDTH 8 0
BBX 8 16 0 -3
BITMAP
00
00
00
00
00
00
00
00
00
66
66
00
00
06
06
00
ENDCHAR
STARTCHAR U+28A5
ENCODING 10405
SWIDTH 500 0
DWIDTH 8 0
BBX 8 16 0 -3
BITMAP
00
60
60
00
00
00
00
00
00
66
66
00
00
06
06
00
ENDCHAR
STARTCHAR U+28A6
ENCODING 10406
SWIDTH 500 0
DWIDTH 8 0
BBX 8 16 0 -3
BITMAP
00
00
00
00
00
60
60
00
00
66
66
00
00
06
06
00
ENDCHAR
STARTCHAR U+28A7
ENCODING 10407
SWIDTH 500 0
DWIDTH 8 0
BBX 8 16 0 -3
BITMAP
00
60
60
00
00
60
60
00
00
66
66
00
00
06
06
00
ENDCHAR
STARTCHAR U+28A8
ENCODING 10408
SWIDTH 500 0
DWIDTH 8 0
BBX 8 16 0 -3
BITMAP
00
06
06
00
00
00
00
00
00
06
06
00
00
06
06
00
ENDCHAR
STARTCHAR U+28A9
ENCODING 10409
SWIDTH 500 0
DWIDTH 8 0
BBX 8 16 0 -3
BITMAP
00
66
66
00
00
00
00
00
00
06
06
00
00
06
06
00
ENDCHAR
STARTCHAR U+28AA
ENCODING 10410
SWIDTH 500 0
DWIDTH 8 0
BBX 8 16 0 -3
BITMAP
00
06
06
00
00
60
60
00
00
06
06
00
00
06
06
00
ENDCHAR
STARTCHAR U+28AB
ENCODING 10411
SWIDTH 500 0
DWIDTH 8 0
BBX 8 16 0 -3
BITMAP
00
66
66
00
00
60
60
00
00
06
06
00
00
06
06
00
ENDCHAR
STARTCHAR U+28AC
ENCODING 10412
SWIDTH 500 0
DWIDTH 8 0
BBX 8 16 0 -3
BITMAP
00
06
06
00
00
00
00
00
00
66
66
00
00
06
06
00
ENDCHAR
STARTCHAR U+28AD
ENCODING 10413
SWIDTH 500 0
DWIDTH 8 0
BBX 8 16 0 -3
BITMAP
00
66
66
00
00
00
00
00
00
66
66
00
00
06
06
00
ENDCHAR
STARTCHAR U+28AE
ENCODING 10414
SWIDTH 500 0
DWIDTH 8 0
BBX 8 16 0 -3
BITMAP
00
06
06
00
00
60
60
00
00
66
66
00
00
06
06
00
ENDCHAR
STARTCHAR U+28AF
ENCODING 10415
SWIDTH 500 0
DWIDTH 8 0
BBX 8 16 0 -3
BITMAP
00
66
66
00
00
60
60
00
00
66
66
00
00
06
06
00
ENDCHAR
STARTCHAR U+28B0
ENCODING 10416
SWIDTH 500 0
DWIDTH 8 0
BBX 8 16 0 -3
BITMAP
00
00
00
00
00
06
06
00
00
06
06
00
00
06
06
00
ENDCHAR
STARTCHAR U+28B1
ENCODING 10417
SWIDTH 500 0
DWIDTH 8 0
BBX 8 16 0 -3
BITMAP
00
60
60
00
00
06
06
00
00
06
06
00
00
06
06
00
ENDCHAR
STARTCHAR U+28B2
ENCODING 10418
SWIDTH 500 0
DWIDTH 8 0
BBX 8 16 0 -3
BITMAP
00
00
00
00
00
66
66
00
00
06
06
00
00
06
06
00
ENDCHAR
STARTCHAR U+28B3
ENCODING 10419
SWIDTH 500 0
DWIDTH 8 0
BBX 8 16 0 -3
BITMAP
00
60
60
00
00
66
66
00
00
06
06
00
00
06
06
00
ENDCHAR
STARTCHAR U+28B4
ENCODING 10420
SWIDTH 500 0
DWIDTH 8 0
BBX 8 16 0 -3
BITMAP
00
00
00
00
00
06
06
00
00
66
66
00
00
06
06
00
ENDCHAR
STARTCHAR U+28B5
ENCODING 10421
SWIDTH 500 0
DWIDTH 8 0
BBX 8 16 0 -3
BITMAP
00
60
60
00
00
06
06
00
00
66
66
00
00
06
06
00
ENDCHAR
STARTCHAR U+28B6
ENCODING 10422
SWIDTH 500 0
DWIDTH 8 0
BBX 8 16 0 -3
BITMAP
00
00
00
00
00
66
66
00
00
66
66
00
00
06
06
00
ENDCHAR
STARTCHAR U+28B7
ENCODING 10423
SWIDTH 500 0
DWIDTH 8 0
BBX 8 16 0 -3
BITMAP
00
60
60
00
00
66
66
00
00
66
66
00
00
06
06
00
ENDCHAR
STARTCHAR U+28B8
ENCODING 10424
SWIDTH 500 0
DWIDTH 8 0
BBX 8 16 0 -3
BITMAP
00
06
06
00
00
06
06
00
00
06
06
00
00
06
06
00
ENDCHAR
STARTCHAR U+28B9
ENCODING 10425
SWIDTH 500 0
DWIDTH 8 0
BBX 8 16 0 -3
BITMAP
00
66
66
00
00
06
06
00
00
06
06
00
00
06
06
00
ENDCHAR
STARTCHAR U+28BA
ENCODING 10426
SWIDTH 500 0
DWIDTH 8 0
BBX 8 16 0 -3
BITMAP
00
06
06
00
00
66
66
00
00
06
06
00
00
06
06
00
ENDCHAR
STARTCHAR U+28BB
ENCODING 10427
SWIDTH 500 0
DWIDTH 8 0
BBX 8 16 0 -3
BITMAP
00
66
66
00
00
66
66
00
00
06
06
00
00
06
06
00
ENDCHAR
STARTCHAR U+28BC
ENCODING 10428
SWIDTH 500 0
DWIDTH 8 0
BBX 8 16 0 -3
BITMAP
00
06
06
00
00
06
06
00
00
66
66
00
00
06
06
00
ENDCHAR
STARTCHAR U+28BD
ENCODING 10429
SWIDTH 500 0
DWIDTH 8 0
BBX 8 16 0 -3
BITMAP
00
66
66
00
00
06
06
00
00
66
66
00
00
06
06
00
ENDCHAR
STARTCHAR U+28BE
ENCODING 10430
SWIDTH 500 0
DWIDTH 8 0
BBX 8 16 0 -3
BITMAP
00
06
06
00
00
66
66
00
00
66
66
00
00
06
06
00
ENDCHAR
STARTCHAR U+28BF
ENCODING 10431
SWIDTH 500 0
DWIDTH 8 0
BBX 8 16 0 -3
BITMAP
00
66
66
00
00
66
66
00
00
66
66
00
00
06
06
00
ENDCHAR
STARTCHAR U+28C0
ENCODING 10432
SWIDTH 500 0
DWIDTH 8 0
BBX 8 16 0 -3
BITMAP
00
00
00
00
00
00
00
00
00
00
00
00
00
66
66
00
ENDCHAR
STARTCHAR U+28C1
ENCODING 10433
SWIDTH 500 0
DWIDTH 8 0
BBX 8 16 0 -3
BITMAP
00
60
60
00
00
00
00
00
00
00
00
00
00
66
66
00
ENDCHAR
STARTCHAR U+28C2
ENCODING 10434
SWIDTH 500 0
DWIDTH 8 0
BBX 8 16 0 -3
BITMAP
00
00
00
00
00
60
60
00
00
00
00
00
00
66
66
00
ENDCHAR
STARTCHAR U+28C3
ENCODING 10435
SWIDTH 500 0
DWIDTH 8 0
BBX 8 16 0 -3
BITMAP
00
60
60
00
00
60
60
00
00
00
00
00
00
66
66
00
ENDCHAR
STARTCHAR U+28C4
ENCODING 10436
SWIDTH 500 0
DWIDTH 8 0
BBX 8 16 0 -3
BITMAP
00
00
00
00
00
00
00
00
00
60
60
00
00
66
66
00
ENDCHAR
STARTCHAR U+28C5
ENCODING 10437
SWIDTH 500 0
DWIDTH 8 0
BBX 8 16 0 -3
BITMAP
00
60
60
00
00
00
00
00
00
60
60
00
00
66
66
00
ENDCHAR
STARTCHAR U+28C6
ENCODING 10438
SWIDTH 500 0
DWIDTH 8 0
BBX 8 16 0 -3
BITMAP
00
00
00
00
00
60
60
00
00
60
60
00
00
66
66
00
ENDCHAR
STARTCHAR U+28C7
ENCODING 10439
SWIDTH 500 0
DWIDTH 8 0
BBX 8 16 0 -3
BITMAP
00
60
60
00
00
60
60
00
00
60
60
00
00
66
66
00
ENDCHAR
STARTCHAR U+28C8
ENCODING 10440
SWIDTH 500 0
DWIDTH 8 0
BBX 8 16 0 -3
BITMAP
00
06
06
00
00
00
00
00
00
00
00
00
00
66
66
00
ENDCHAR
STARTCHAR U+28C9
ENCODING 10441
SWIDTH 500 0
DWIDTH 8 0
BBX 8 16 0 -3
BITMAP
00
66
66
00
00
00
00
00
00
00
00
00
00
66
66
00
ENDCHAR
STARTCHAR U+28CA
ENCODING 10442
SWIDTH 500 0
DWIDTH 8 0
BBX 8 16 0 -3
BITMAP
00
06
06
00
00
60
60
00
00
00
00
00
00
66
66
00
ENDCHAR
STARTCHAR U+28CB
ENCODING 10443
SWIDTH 500 0
DWIDTH 8 0
BBX 8 16 0 -3
BITMAP
00
66
66
00
00
60
60
00
00
00
00
00
00
66
66
00
ENDCHAR
STARTCHAR U+28CC
ENCODING 10444
SWIDTH 500 0
DWIDTH 8 0
BBX 8 16 0 -3
BITMAP
00
06
06
00
00
00
00
00
00
60
60
00
00
66
66
00
ENDCHAR
STARTCHAR U+28CD
ENCODING 10445
SWIDTH 500 0
DWIDTH 8 0
BBX 8 16 0 -3
BITMAP
00
66
66
00
00
00
00
00
00
60
60
00
00
66
66
00
ENDCHAR
STARTCHAR U+28CE
ENCODING 10446
SWIDTH 500 0
DWIDTH 8 0
BBX 8 16 0 -3
BITMAP
00
06
06
00
00
60
60
00
00
60
60
00
00
66
66
00
ENDCHAR
STARTCHAR U+28CF
ENCODING 10447
SWIDTH 500 0
DWIDTH 8 0
BBX 8 16 0 -3
BITMAP
00
66
66
00
00
60
60
00
00
60
60
00
00
66
66
00
ENDCHAR
STARTCHAR U+28D0
ENCODING 10448
SWIDTH 500 0
DWIDTH 8 0
BBX 8 16 0 -3
BITMAP
00
00
00
00
00
06
06
00
00
00
00
00
00
66
66
00
ENDCHAR
STARTCHAR U+28D1
ENCODING 10449
SWIDTH 500 0
DWIDTH 8 0
BBX 8 16 0 -3
BITMAP
00
60
60
00
00
06
06
00
00
00
00
00
00
66
66
00
ENDCHAR
STARTCHAR U+28D2
ENCODING 10450
SWIDTH 500 0
DWIDTH 8 0
BBX 8 16 0 -3
BITMAP
00
00
00
00
00
66
66
00
00
00
00
00
00
66
66
00
ENDCHAR
STARTCHAR U+28D3
ENCODING 10451
SWIDTH 500 0
DWIDTH 8 0
BBX 8 16 0 -3
BITMAP
00
60
60
00
00
66
66
00
00
00
00
00
00
66
66
00
ENDCHAR
STARTCHAR U+28D4
ENCODING 10452
SWIDTH 500 0
DWIDTH 8 0
BBX 8 16 0 -3
BITMAP
00
00
00
00
00
06
06
00
00
60
60
00
00
66
66
00
ENDCHAR
STARTCHAR U+28D5
ENCODING 10453
SWIDTH 500 0
DWIDTH 8 0
BBX 8 16 0 -3
BITMAP
00
60
60
00
00
06
06
00
00
60
60
00
00
66
66
00
ENDCHAR
STARTCHAR U+28D6
ENCODING 10454
SWIDTH 500 0
DWIDTH 8 0
BBX 8 16 0 -3
BITMAP
00
00
00
00
00
66
66
00
00
60
60
00
00
66
66
00
ENDCHAR
STARTCHAR U+28D7
ENCODING 10455
SWIDTH 500 0
DWIDTH 8 0
BBX 8 16 0 -3
BITMAP
00
60
60
00
00
66
66
00
00
60
60
00
00
66
66
00
ENDCHAR
STARTCHAR U+28D8
ENCODING 10456
SWIDTH 500 0
DWIDTH 8 0
BBX 8 16 0 -3
BITMAP
00
06
06
00
00
06
06
00
00
00
00
00
00
66
66
00
ENDCHAR
STARTCHAR U+28D9
ENCODING 10457
SWIDTH 500 0
DWIDTH 8 0
BBX 8 16 0 -3
BITMAP
00
66
66
00
00
06
06
00
00
00
00
00
00
66
66
00
ENDCHAR
STARTCHAR U+28DA
ENCODING 10458
SWIDTH 500 0
DWIDTH 8 0
BBX 8 16 0 -3
BITMAP
00
06
06
00
00
66
66
00
00
00
00
00
00
66
66
00
ENDCHAR
STARTCHAR U+28DB
ENCODING 10459
SWIDTH 500 0
DWIDTH 8 0
BBX 8 16 0 -3
BITMAP
00
66
66
00
00
66
66
00
00
00
00
00
00
66
66
00
ENDCHAR
STARTCHAR U+28DC
ENCODING 10460
SWIDTH 500 0
DWIDTH 8 0
BBX 8 16 0 -3
BITMAP
00
06
06
00
00
06
06
00
00
60
60
00
00
66
66
00
ENDCHAR
STARTCHAR U+28DD
ENCODING 10461
SWIDTH 500 0
DWIDTH 8 0
BBX 8 16 0 -3
BITMAP
00
66
66
00
00
06
06
00
00
60
60
00
00
66
66
00
ENDCHAR
STARTCHAR U+28DE
ENCODING 10462
SWIDTH 500 0
DWIDTH 8 0
BBX 8 16 0 -3
BITMAP
00
06
06
00
00
66
66
00
00
60
60
00
00
66
66
00
ENDCHAR
STARTCHAR U+28DF
ENCODING 10463
SWIDTH 500 0
DWIDTH 8 0
BBX 8 16 0 -3
BITMAP
00
66
66
00
00
66
66
00
00
60
60
00
00
66
66
00
ENDCHAR
STARTCHAR U+28E0
ENCODING 10464
SWIDTH 500 0
DWIDTH 8 0
BBX 8 16 0 -3
BITMAP
00
00
00
00
00
00
00
00
00
06
06
00
00
66
66
00
ENDCHAR
STARTCHAR U+28E1
ENCODING 10465
SWIDTH 500 0
DWIDTH 8 0
BBX 8 16 0 -3
BITMAP
00
60
60
00
00
00
00
00
00
06
06
00
00
66
66
00
ENDCHAR
STARTCHAR U+28E2
ENCODING 10466
SWIDTH 500 0
DWIDTH 8 0
BBX 8 16 0 -3
BITMAP
00
00
00
00
00
60
60
00
00
06
06
00
00
66
66
00
ENDCHAR
STARTCHAR U+28E3
ENCODING 10467
SWIDTH 500 0
DWIDTH 8 0
BBX 8 16 0 -3
BITMAP
00
60
60
00
00
60
60
00
00
06
06
00
00
66
66
00
ENDCHAR
STARTCHAR U+28E4
ENCODING 10468
SWIDTH 500 0
DWIDTH 8 0
BBX 8 16 0 -3
BITMAP
00
00
00
00
00
00
00
00
00
66
66
00
00
66
66
00
ENDCHAR
STARTCHAR U+28E5
ENCODING 10469
SWIDTH 500 0
DWIDTH 8 0
BBX 8 16 0 -3
BITMAP
00
60
60
00
00
00
00
00
00
66
66
00
00
66
66
00
ENDCHAR
STARTCHAR U+28E6
ENCODING 10470
SWIDTH 500 0
DWIDTH 8 0
BBX 8 16 0 -3
BITMAP
00
00
00
00
00
60
60
00
00
66
66
00
00
66
66
00
ENDCHAR
STARTCHAR U+28E7
ENCODING 10471
SWIDTH 500 0
DWIDTH 8 0
BBX 8 16 0 -3
BITMAP
00
60
60
00
00
60
60
00
00
66
66
00
00
66
66
00
ENDCHAR
STARTCHAR U+28E8
ENCODING 10472
SWIDTH 500 0
DWIDTH 8 0
BBX 8 16 0 -3
BITMAP
00
06
06
00
00
00
00
00
00
06
06
00
00
66
66
00
ENDCHAR
STARTCHAR U+28E9
ENCODING 10473
SWIDTH 500 0
DWIDTH 8 0
BBX 8 16 0 -3
BITMAP
00
66
66
00
00
00
00
00
00
06
06
00
00
66
66
00
ENDCHAR
STARTCHAR U+28EA
ENCODING 10474
SWIDTH 500 0
DWIDTH 8 0
BBX 8 16 0 -3
BITMAP
00
06
06
00
00
60
60
00
00
06
06
00
00
66
66
00
ENDCHAR
STARTCHAR U+28EB
ENCODING 10475
SWIDTH 500 0
DWIDTH 8 0
BBX 8 16 0 -3
BITMAP
00
66
66
00
00
60
60
00
00
06
06
00
00
66
66
00
ENDCHAR
STARTCHAR U+28EC
ENCODING 10476
SWIDTH 500 0
DWIDTH 8 0
BBX 8 16 0 -3
BITMAP
00
06
06
00
00
00
00
00
00
66
66
00
00
66
66
00
ENDCHAR
STARTCHAR U+28ED
ENCODING 10477
SWIDTH 500 0
DWIDTH 8 0
BBX 8 16 0 -3
BITMAP
00
66
66
00
00
00
00
00
00
66
66
00
00
66
66
00
ENDCHAR
STARTCHAR U+28EE
ENCODING 10478
SWIDTH 500 0
DWIDTH 8 0
BBX 8 16 0 -3
BITMAP
00
06
06
00
00
60
60
00
00
66
66
00
00
66
66
00
ENDCHAR
STARTCHAR U+28EF
ENCODING 10479
SWIDTH 500 0
DWIDTH 8 0
BBX 8 16 0 -3
BITMAP
00
66
66
00
00
60
60
00
00
66
66
00
00
66
66
00
ENDCHAR
STARTCHAR U+28F0
ENCODING 10480
SWIDTH 500 0
DWIDTH 8 0
BBX 8 16 0 -3
BITMAP
00
00
00
00
00
06
06
00
00
06
06
00
00
66
66
00
ENDCHAR
STARTCHAR U+28F1
ENCODING 10481
SWIDTH 500 0
DWIDTH 8 0
BBX 8 16 0 -3
BITMAP
00
60
60
00
00
06
06
00
00
06
06
00
00
66
66
00
ENDCHAR
STARTCHAR U+28F2
ENCODING 10482
SWIDTH 500 0
DWIDTH 8 0
BBX 8 16 0 -3
BITMAP
00
00
00
00
00
66
66
00
00
06
06
00
00
66
66
00
ENDCHAR
STARTCHAR U+28F3
ENCODING 10483
SWIDTH 500 0
DWIDTH 8 0
BBX 8 16 0 -3
BITMAP
00
60
60
00
00
66
66
00
00
06
06
00
00
66
66
00
ENDCHAR
STARTCHAR U+28F4
ENCODING 10484
SWIDTH 500 0
DWIDTH 8 0
BBX 8 16 0 -3
BITMAP
00
00
00
00
00
06
06
00
00
66
66
00
00
66
66
00
ENDCHAR
STARTCHAR U+28F5
ENCODING 10485
SWIDTH 500 0
DWIDTH 8 0
BBX 8 16 0 -3
BITMAP
00
60
60
00
00
06
06
00
00
66
66
00
00
66
66
00
ENDCHAR
STARTCHAR U+28F6
ENCODING 10486
SWIDTH 500 0
DWIDTH 8 0
BBX 8 16 0 -3
BITMAP
00
00
00
00
00
66
66
00
00
66
66
00
00
66
66
00
ENDCHAR
STARTCHAR U+28F7
ENCODING 10487
SWIDTH 500 0
DWIDTH 8 0
BBX 8 16 0 -3
BITMAP
00
60
60
00
00
66
66
00
00
66
66
00
00
66
66
00
ENDCHAR
STARTCHAR U+28F8
ENCODING 10488
SWIDTH 500 0
DWIDTH 8 0
BBX 8 16 0 -3
BITMAP
00
06
06
00
00
06
06
00
00
06
06
00
00
66
66
00
ENDCHAR
STARTCHAR U+28F9
ENCODING 10489
SWIDTH 500 0
DWIDTH 8 0
BBX 8 16 0 -3
BITMAP
00
66
66
00
00
06
06
00
00
06
06
00
00
66
66
00
ENDCHAR
STARTCHAR U+28FA
ENCODING 10490
SWIDTH 500 0
DWIDTH 8 0
BBX 8 16 0 -3
BITMAP
00
06
06
00
00
66
66
00
00
06
06
00
00
66
66
00
ENDCHAR
STARTCHAR U+28FB
ENCODING 10491
SWIDTH 500 0
DWIDTH 8 0
BBX 8 16 0 -3
BITMAP
00
66
66
00
00
66
66
00
00
06
06
00
00
66
66
00
ENDCHAR
STARTCHAR U+28FC
ENCODING 10492
SWIDTH 500 0
DWIDTH 8 0
BBX 8 16 0 -3
BITMAP
00
06
06
00
00
06
06
00
00
66
66
00
00
66
66
00
ENDCHAR
STARTCHAR U+28FD
ENCODING 10493
SWIDTH 500 0
DWIDTH 8 0
BBX 8 16 0 -3
BITMAP
00
66
66
00
00
06
06
00
00
66
66
00
00
66
66
00
ENDCHAR
STARTCHAR U+28FE
ENCODING 10494
SWIDTH 500 0
DWIDTH 8 0
BBX 8 16 0 -3
BITMAP
00
06
06
00
00
66
66
00
00
66
66
00
00
66
66
00
ENDCHAR
STARTCHAR U+28FF
ENCODING 10495
SWIDTH 500 0
DWIDTH 8 0
BBX 8 16 0 -3
BITMAP
00
66
66
00
00
66
66
00
00
66
66
00
00
66
66
00
ENDCHAR
STARTCHAR U+2B9C
ENCODING 11164
SWIDTH 500 0
DWIDTH 8 0
BBX 8 16 0 -3
BITMAP
00
00
00
00
00
08
18
38
7F
38
18
08
00
00
00
00
ENDCHAR
STARTCHAR U+2B9D
ENCODING 11165
SWIDTH 500 0
DWIDTH 8 0
BBX 8 16 0 -3
BITMAP
00
08
1C
3E
7F
08
08
08
08
08
08
08
08
08
08
08
ENDCHAR
STARTCHAR U+2B9E
ENCODING 11166
SWIDTH 500 0
DWIDTH 8 0
BBX 8 16 0 -3
BITMAP
00
00
00
00
00
10
18
1C
FE
1C
18
10
00
00
00
00
ENDCHAR
STARTCHAR U+2B9F
ENCODING 11167
SWIDTH 500 0
DWIDTH 8 0
BBX 8 16 0 -3
BITMAP
08
08
08
08
08
08
08
08
08
08
08
7F
3E
1C
08
00
ENDCHAR
STARTCHAR U+2C7C
ENCODING 11388
SWIDTH 500 0
DWIDTH 8 0
BBX 8 16 0 -3
BITMAP
00
00
00
00
00
00
00
00
00
1C
0C
0C
0C
4C
38
00
ENDCHAR
STARTCHAR U+A730
ENCODING 42800
SWIDTH 500 0
DWIDTH 8 0
BBX 8 16 0 -3
BITMAP
00
00
00
00
00
00
FE
C0
C0
FC
C0
C0
C0
00
00
00
ENDCHAR
STARTCHAR U+A731
ENCODING 42801
SWIDTH 500 0
DWIDTH 8 0
BBX 8 16 0 -3
BITMAP
00
00
00
00
00
00
7C
C6
C0
7C
06
C6
7C
00
00
00
ENDCHAR
ENDFONT
